<svg width="30" height="23" viewBox="0 0 30 23" fill="none" xmlns="http://www.w3.org/2000/svg">
<path d="M30 11.25C30 11.5815 29.8683 11.8995 29.6339 12.1339C29.3995 12.3683 29.0815 12.5 28.75 12.5H1.25C0.918479 12.5 0.600537 12.3683 0.366117 12.1339C0.131696 11.8995 0 11.5815 0 11.25C0 10.9185 0.131696 10.6005 0.366117 10.3661C0.600537 10.1317 0.918479 10 1.25 10H28.75C29.0815 10 29.3995 10.1317 29.6339 10.3661C29.8683 10.6005 30 10.9185 30 11.25ZM1.25 2.5H28.75C29.0815 2.5 29.3995 2.3683 29.6339 2.13388C29.8683 1.89946 30 1.58152 30 1.25C30 0.918479 29.8683 0.600537 29.6339 0.366117C29.3995 0.131696 29.0815 0 28.75 0H1.25C0.918479 0 0.600537 0.131696 0.366117 0.366117C0.131696 0.600537 0 0.918479 0 1.25C0 1.58152 0.131696 1.89946 0.366117 2.13388C0.600537 2.3683 0.918479 2.5 1.25 2.5ZM28.75 20H1.25C0.918479 20 0.600537 20.1317 0.366117 20.3661C0.131696 20.6005 0 20.9185 0 21.25C0 21.5815 0.131696 21.8995 0.366117 22.1339C0.600537 22.3683 0.918479 22.5 1.25 22.5H28.75C29.0815 22.5 29.3995 22.3683 29.6339 22.1339C29.8683 21.8995 30 21.5815 30 21.25C30 20.9185 29.8683 20.6005 29.6339 20.3661C29.3995 20.1317 29.0815 20 28.75 20Z" fill="#090A0A"/>
</svg>
