<svg width="143" height="27" viewBox="0 0 143 27" fill="none" xmlns="http://www.w3.org/2000/svg">
<path d="M0 0H26.6454V26.5931H0V0ZM28.8621 0H55.5075V26.5931H28.8621V0ZM57.7242 0H84.3697V26.5931H57.7242V0ZM86.5863 0H113.232V26.5931H86.5863V0ZM115.448 0H142.094V26.5931H115.448V0Z" fill="#00B67A"/>
<path d="M13.323 17.9254L17.3755 16.8987L19.0692 22.1061L13.323 17.9254ZM22.6443 11.1921H15.5112L13.3173 4.48706L11.1233 11.1921H3.99023L9.76493 15.3444L7.571 22.0494L13.3457 17.8971L16.898 15.3501L22.6443 11.1977V11.1921ZM42.1851 17.9254L46.2376 16.8987L47.9313 22.1061L42.1851 17.9254ZM51.5121 11.1921H44.379L42.1851 4.48706L39.9911 11.1921H32.858L38.6327 15.3444L36.4388 22.0494L42.2135 17.8971L45.7658 15.3501L51.5121 11.1977V11.1921ZM71.0472 17.9254L75.0997 16.8987L76.7935 22.1061L71.0472 17.9254ZM80.3742 11.1921H73.2411L71.0472 4.48706L68.8532 11.1921H61.7201L67.4948 15.3444L65.3009 22.0494L71.0756 17.8971L74.6279 15.3501L80.3742 11.1977V11.1921ZM99.9093 17.9254L103.962 16.8987L105.656 22.1061L99.9093 17.9254ZM109.236 11.1921H102.103L99.9093 4.48706L97.7154 11.1921H90.5822L96.3569 15.3444L94.163 22.0494L99.9377 17.8971L103.49 15.3501L109.236 11.1977V11.1921ZM128.771 17.9254L132.824 16.8987L134.518 22.1061L128.771 17.9254ZM138.098 11.1921H130.965L128.771 4.48706L126.577 11.1921H119.444L125.219 15.3444L123.025 22.0494L128.8 17.8971L132.352 15.3501L138.098 11.1977V11.1921Z" fill="white"/>
</svg>
