<svg width="133" height="33" viewBox="0 0 133 33" fill="none" xmlns="http://www.w3.org/2000/svg">
<path d="M34.7198 11.4695H48.0824V13.9532H42.8198V27.9487H39.9348V13.9532H34.6934L34.7145 11.4695H34.7198ZM47.5117 16.0204H49.9792V18.3249H50.0215C50.1113 17.9979 50.2646 17.6868 50.4865 17.3809C50.7084 17.0751 50.9726 16.785 51.3002 16.5477C51.6066 16.2841 51.9607 16.0837 52.3569 15.9307C52.7321 15.7778 53.1284 15.6882 53.5246 15.6882C53.9209 15.6882 54.053 15.7093 54.164 15.7093C54.2749 15.7304 54.407 15.7515 54.518 15.7515V18.2774C54.3436 18.2352 54.1428 18.2141 53.9473 18.1877C53.7518 18.1667 53.5722 18.1456 53.3767 18.1456C52.9381 18.1456 52.5207 18.2352 52.1192 18.4092C51.7176 18.5833 51.39 18.8469 51.0836 19.1791C50.7982 19.5325 50.5552 19.9491 50.3808 20.4553C50.2064 20.9615 50.1166 21.5522 50.1166 22.2113V27.8802H47.4748L47.517 16.0151L47.5117 16.0204ZM66.6178 27.9487H64.0182V26.2771H63.9759C63.6483 26.8941 63.1622 27.3529 62.5229 27.7273C61.8835 28.1017 61.2231 28.2757 60.5626 28.2757C58.9986 28.2757 57.8573 27.9013 57.1493 27.1103C56.4466 26.3404 56.0925 25.1539 56.0925 23.5929V16.0151H58.7344V23.3293C58.7344 24.384 58.9299 25.1328 59.3526 25.5494C59.7489 25.9871 60.3195 26.2085 61.0487 26.2085C61.7779 26.2085 62.0632 26.1189 62.433 25.9449C62.8082 25.7708 63.1146 25.5494 63.3366 25.2646C63.5796 24.9798 63.7329 24.6265 63.8438 24.231C63.9548 23.8355 63.997 23.3978 63.997 22.9338V16.0151H66.6389V27.9435H66.6178V27.9487ZM71.109 24.1256C71.1988 24.8955 71.4841 25.4228 71.9913 25.7498C72.4986 26.0556 73.1168 26.2138 73.8195 26.2138C74.5223 26.2138 74.3479 26.1927 74.6544 26.1505C74.9608 26.1083 75.2726 26.0398 75.5367 25.9291C75.8221 25.8183 76.044 25.6654 76.2183 25.4439C76.3927 25.2224 76.4825 24.9588 76.4614 24.6318C76.4403 24.3049 76.3293 24.0148 76.0863 23.7986C75.8432 23.5824 75.5579 23.4242 75.2039 23.2713C74.8499 23.1394 74.4324 23.0287 73.9728 22.9443C73.5078 22.8547 73.0481 22.7492 72.562 22.6385C72.0759 22.5277 71.5951 22.3959 71.1301 22.243C70.6651 22.09 70.2741 21.8897 69.899 21.6049C69.545 21.3412 69.2385 21.009 69.043 20.5924C68.8211 20.1758 68.7154 19.6907 68.7154 19.0789C68.7154 18.4672 68.8686 17.8924 69.2015 17.4548C69.508 17.0171 69.9254 16.6637 70.4115 16.4001C70.8976 16.1364 71.4471 15.936 72.0389 15.8306C72.6307 15.7198 73.2066 15.6776 73.735 15.6776C74.2634 15.6776 74.945 15.7409 75.4945 15.8727C76.044 16.0046 76.5724 16.1997 77.0109 16.5108C77.4759 16.7956 77.8457 17.1911 78.1364 17.6551C78.4428 18.1192 78.6225 18.6887 78.707 19.3479H75.9542C75.8221 18.7098 75.5367 18.2932 75.0982 18.0717C74.6332 17.8503 74.1313 17.7448 73.5342 17.7448C72.9371 17.7448 73.1168 17.7659 72.8737 17.787C72.6095 17.8292 72.3876 17.8766 72.1499 17.961C71.9279 18.0506 71.7324 18.1825 71.5792 18.3354C71.426 18.4883 71.3362 18.7098 71.3362 18.9735C71.3362 19.2371 71.4471 19.543 71.6638 19.7434C71.8857 19.9385 72.171 20.0967 72.5461 20.2496C72.9002 20.3815 73.3176 20.4922 73.7773 20.5766C74.2369 20.661 74.723 20.7717 75.2092 20.8824C75.6953 20.9932 76.1549 21.125 76.6199 21.2779C77.0849 21.4309 77.5023 21.6313 77.851 21.916C78.205 22.1797 78.5115 22.5119 78.7334 22.9021C78.9553 23.2976 79.061 23.8039 79.061 24.3734C79.061 24.9429 78.9078 25.6707 78.5749 26.1769C78.2473 26.662 77.8246 27.0786 77.3174 27.3845C76.8101 27.6904 76.2183 27.9118 75.6002 28.0648C74.9608 28.1966 74.3426 28.2862 73.7297 28.2862C73.1168 28.2862 72.2767 28.1966 71.6373 28.0226C70.998 27.8486 70.4274 27.5849 69.9624 27.2527C69.4974 26.8993 69.1276 26.4828 68.8634 25.9554C68.5992 25.4492 68.446 24.8322 68.4248 24.1097H71.0878V24.1308H71.109V24.1256ZM79.806 16.0204H81.8086V12.4187H84.4504V15.9993H86.8281V17.9557H84.4504V24.3259C84.4504 24.6107 84.4716 24.8322 84.4927 25.0484C84.5138 25.2435 84.5825 25.4228 84.6459 25.5546C84.7358 25.6865 84.8678 25.7972 85.0211 25.8605C85.1954 25.9238 85.4174 25.9712 85.7238 25.9712C86.0303 25.9712 86.099 25.9712 86.2733 25.9501C86.4477 25.9291 86.6485 25.908 86.8228 25.8605V27.9013C86.5375 27.9435 86.2522 27.9646 85.9669 27.9909C85.6815 28.0331 85.4174 28.0331 85.1109 28.0331C84.4082 28.0331 83.8534 27.9698 83.4359 27.838C83.0185 27.7062 82.6857 27.5111 82.4479 27.2685C82.2048 27.0048 82.0516 26.699 81.9618 26.3246C81.872 25.9501 81.8297 25.4914 81.8086 25.0062V17.9768H79.806V15.9782V16.0204ZM88.6774 16.0204H91.1661V17.6446H91.2083C91.5835 16.9432 92.0907 16.4581 92.7512 16.1522C93.4117 15.8464 94.1144 15.6882 94.907 15.6882C95.6995 15.6882 96.6665 15.8411 97.3745 16.1944C98.0772 16.5214 98.6532 16.9643 99.1128 17.5549C99.5778 18.1245 99.9265 18.81 100.148 19.5746C100.37 20.3393 100.502 21.1777 100.502 22.0373C100.502 22.8969 100.392 23.6193 100.196 24.3681C99.9741 25.117 99.6676 25.7972 99.2502 26.3667C98.8328 26.9363 98.3044 27.4003 97.644 27.7484C96.9835 28.1017 96.2332 28.2757 95.3561 28.2757C94.479 28.2757 94.5847 28.2335 94.2095 28.165C93.8344 28.1017 93.4592 27.9909 93.1105 27.838C92.7565 27.6851 92.4289 27.4847 92.1436 27.2421C91.8371 26.9995 91.5941 26.7148 91.3933 26.4089H91.351V32.3626H88.7091V16.0151H88.688L88.6774 16.0204ZM97.9029 21.9951C97.9029 21.4678 97.8394 20.9404 97.6809 20.4342C97.5488 19.928 97.3269 19.4903 97.0416 19.0948C96.7563 18.6993 96.4023 18.3934 96.006 18.1508C95.5886 17.9083 95.1025 17.7975 94.5741 17.7975C93.4751 17.7975 92.635 18.1719 92.0643 18.9418C91.5148 19.7118 91.2295 20.7453 91.2295 22.0162C91.2295 23.2871 91.2929 23.1816 91.4514 23.6879C91.6099 24.1941 91.8054 24.6318 92.1119 25.0062C92.3972 25.3806 92.7512 25.6654 93.1686 25.8869C93.586 26.1083 94.051 26.2138 94.6005 26.2138C95.15 26.2138 95.6995 26.082 96.1169 25.8394C96.5344 25.5968 96.8672 25.2699 97.1526 24.8955C97.4167 24.5 97.6175 24.0623 97.7232 23.556C97.8342 23.0287 97.8976 22.5225 97.8976 21.9951H97.9029ZM102.547 11.4695H105.189V13.9532H102.547V11.4695ZM102.547 16.0204H105.189V27.9487H102.547V16.0204ZM107.546 11.4695H110.188V27.9487H107.546V11.4695ZM118.245 28.281C117.299 28.281 116.438 28.128 115.693 27.7958C114.943 27.4689 114.33 27.047 113.802 26.4986C113.294 25.9501 112.898 25.2699 112.634 24.5C112.37 23.7301 112.217 22.8758 112.217 21.974C112.217 21.0723 112.349 20.2391 112.634 19.4692C112.898 18.6993 113.294 18.0401 113.802 17.4706C114.309 16.9221 114.948 16.4845 115.693 16.1733C116.444 15.8675 117.299 15.6882 118.245 15.6882C119.191 15.6882 120.052 15.8411 120.797 16.1733C121.548 16.4792 122.161 16.9221 122.689 17.4706C123.196 18.019 123.592 18.6993 123.857 19.4692C124.121 20.2391 124.274 21.0723 124.274 21.974C124.274 22.8758 124.142 23.7301 123.857 24.5C123.571 25.2699 123.196 25.929 122.689 26.4986C122.182 27.047 121.542 27.4847 120.797 27.7958C120.047 28.1017 119.212 28.281 118.245 28.281ZM118.245 26.1927C118.816 26.1927 119.344 26.0609 119.767 25.8183C120.206 25.5757 120.538 25.2488 120.824 24.8533C121.109 24.4578 121.31 23.999 121.442 23.5138C121.574 23.0076 121.643 22.5014 121.643 21.974C121.643 21.4467 121.579 20.9615 121.442 20.4606C121.31 19.9543 121.114 19.5166 120.824 19.1211C120.533 18.7256 120.184 18.4198 119.767 18.1772C119.328 17.9346 118.821 17.8028 118.245 17.8028C117.669 17.8028 117.146 17.9346 116.724 18.1772C116.285 18.4198 115.952 18.7467 115.667 19.1211C115.382 19.5166 115.181 19.9543 115.049 20.4606C114.917 20.9668 114.848 21.4731 114.848 21.974C114.848 22.475 114.911 23.0076 115.049 23.5138C115.181 24.0201 115.376 24.4578 115.667 24.8533C115.952 25.2488 116.306 25.5757 116.724 25.8183C117.162 26.082 117.669 26.1927 118.245 26.1927ZM125.072 16.0204H127.074V12.4187H129.716V15.9993H132.094V17.9557H129.716V24.3259C129.716 24.6107 129.737 24.8322 129.759 25.0484C129.78 25.2435 129.848 25.4228 129.912 25.5546C130.002 25.6865 130.134 25.7972 130.287 25.8605C130.461 25.9238 130.683 25.9712 130.99 25.9712C131.296 25.9712 131.365 25.9712 131.539 25.9501C131.714 25.9291 131.914 25.908 132.089 25.8605V27.9013C131.803 27.9435 131.518 27.9646 131.227 27.9909C130.942 28.0331 130.678 28.0331 130.366 28.0331C129.663 28.0331 129.109 27.9698 128.691 27.838C128.274 27.7062 127.941 27.5111 127.703 27.2685C127.46 27.0048 127.307 26.699 127.217 26.3246C127.127 25.9501 127.085 25.4914 127.064 25.0062V17.9768H125.061V15.9782V16.0204H125.072Z" fill="#090A0A"/>
<path d="M31.6391 11.4696H19.5499L15.8301 0L12.0892 11.4696L0 11.4485L9.77494 18.5464L6.03404 30.016L15.809 22.918L25.5839 30.016L21.8642 18.5464L31.6391 11.4696Z" fill="#00B67A"/>
<path d="M22.699 21.1358L21.8641 18.5413L15.8301 22.9129L22.699 21.1305V21.1358Z" fill="#005128"/>
</svg>
