<svg width="65" height="32" viewBox="0 0 65 32" fill="none" xmlns="http://www.w3.org/2000/svg">
<path d="M64.2332 18.4935C62.4684 20.3879 60.3609 21.8911 58.186 23.2732C55.9944 24.6665 53.685 25.806 51.2787 26.7659C48.905 27.7232 46.4661 28.5187 44.0119 29.2118C41.5205 29.9153 39.0025 30.4995 36.4528 30.8991C31.2679 31.7022 25.7654 31.8471 20.697 30.2764C18.0245 29.4496 15.5669 28.0559 13.8553 25.7998C12.3164 23.7555 11.7114 21.1633 12.3263 18.6634C12.9412 16.1635 14.5362 13.9965 16.2391 12.1195C17.8212 10.3829 19.6334 8.8489 21.5969 7.546C25.5239 4.94021 30.1172 3.262 34.8171 2.8947C37.2915 2.70293 40.2666 2.58453 42.3089 4.23452C43.2559 4.99688 43.9206 6.20504 43.8396 7.44169C43.7471 8.82827 42.9332 9.99641 41.9215 10.8864C40.1232 12.4699 37.8099 13.5238 35.5358 14.1932C33.2537 14.8581 30.8556 15.1553 28.4827 15.1853C23.533 15.2556 18.498 14.3292 13.8869 12.5572C9.22829 10.7585 4.80698 8.01961 1.68159 4.07116C1.29079 3.58014 0.888613 3.07229 0.552757 2.53922C0.360345 2.23284 0.279286 1.89532 0.194767 1.54542C0.113709 1.2079 0.0192806 0.894132 0.0688692 0.546751C0.0901048 0.694228 0.111339 0.841708 0.132575 0.989183C0.117738 0.959983 0.102902 0.930776 0.0801482 0.897118C-0.293773 0.227952 0.736716 -0.380432 1.11855 0.293192C1.13339 0.322394 1.14823 0.351599 1.17098 0.385256C1.09727 0.312489 1.02355 0.239724 0.949839 0.166956C1.21654 0.285803 1.4436 0.549138 1.65782 0.742695C1.93091 0.979815 2.15751 1.16991 2.37021 1.47728C2.5374 1.71734 2.69668 1.95294 2.86388 2.193C2.95143 2.31525 3.0469 2.44197 3.13446 2.56422C3.15375 2.58551 3.25269 2.72459 3.15721 2.59788C3.21064 2.66965 3.2606 2.72906 3.31402 2.80083C4.0422 3.7111 4.85451 4.56448 5.7104 5.35899C6.13883 5.7461 6.57619 6.11737 7.03037 6.47727C7.39055 6.76341 7.7913 7.05154 8.29497 7.3976C9.2751 8.06398 10.2988 8.67148 11.3581 9.21564C11.8816 9.48946 12.414 9.74744 12.9474 9.98513C13.2141 10.104 13.4887 10.2273 13.7599 10.3382C13.8875 10.3892 14.0152 10.4402 14.1508 10.4957C14.1745 10.5091 14.3383 10.57 14.1869 10.5056C14.2829 10.5388 14.3824 10.5843 14.4784 10.6175C15.5922 11.0464 16.7213 11.411 17.8649 11.7315C19.0287 12.053 20.199 12.326 21.3881 12.547C21.9646 12.6526 22.5455 12.7503 23.1354 12.8321C23.414 12.8743 23.6846 12.9119 23.9677 12.9462C24.0929 12.9645 24.2305 12.9794 24.3601 12.9898C24.3195 12.9878 24.1943 12.9695 24.4007 12.9918C24.4977 13.0047 24.5991 13.0097 24.6961 13.0226C26.9219 13.2539 29.1691 13.2991 31.3976 13.0627C31.6757 13.0316 31.9459 12.996 32.224 12.9649C32.2443 12.9659 32.4413 12.9308 32.3467 12.9506C32.2522 12.9704 32.4615 12.9318 32.4615 12.9318C32.609 12.9106 32.7733 12.878 32.9332 12.8533C33.479 12.754 34.0135 12.6378 34.549 12.5014C35.0969 12.3615 35.6378 12.1969 36.1674 12.0155C36.4113 11.9339 36.6519 11.8399 36.8924 11.746C36.9172 11.739 37.2329 11.604 37.1206 11.6555C37.27 11.5937 37.4116 11.5274 37.5611 11.4656C38.5598 11.0061 39.5344 10.4601 40.409 9.79524C40.3372 9.84867 40.4684 9.74528 40.4684 9.74528C40.5233 9.70323 40.5783 9.66119 40.6332 9.61914C40.752 9.51921 40.8753 9.41137 40.9862 9.30699C41.1866 9.11751 41.4396 8.85333 41.5747 8.66878C41.8406 8.30761 42.0753 7.83508 42.1076 7.42583C42.185 6.51035 41.6142 5.70951 40.8651 5.22531C39.8434 4.57723 38.6226 4.50512 37.4419 4.52852C33.1266 4.60148 28.7047 5.77152 24.9248 7.78253C23.9433 8.30383 22.9915 8.88354 22.0739 9.51373C21.1517 10.1518 20.4791 10.6802 19.6074 11.4509C18.7906 12.1796 18.0159 12.9632 17.2922 13.786C16.4868 14.6983 15.8833 15.474 15.2659 16.5339C15.1189 16.7951 14.9718 17.0564 14.8406 17.3265C14.7817 17.4497 14.7183 17.5808 14.6594 17.704C14.5816 17.8792 14.5494 17.9549 14.5163 18.0509C14.3102 18.6021 14.1482 19.1677 14.055 19.7407C14.0476 19.8095 14.0322 19.8738 14.0248 19.9426C14.0387 19.8253 14.0218 20.0035 14.0218 20.0035C14.0069 20.1411 14.0044 20.2752 13.9974 20.4172C13.9825 20.7215 13.9958 21.0313 14.0259 21.3297C14.0308 21.395 14.0402 21.4525 14.0451 21.5178C14.0273 21.3827 14.052 21.5425 14.051 21.5628C14.0733 21.69 14.0955 21.8172 14.1301 21.9409C14.1894 22.2245 14.2735 22.5011 14.3743 22.7664C14.3916 22.8283 14.4213 22.8867 14.4386 22.9485C14.4317 22.9238 14.5474 23.2183 14.496 23.1059C14.448 23.006 14.5326 23.1891 14.5439 23.2059C14.5736 23.2643 14.6033 23.3227 14.625 23.3767C14.7507 23.635 14.8966 23.8944 15.0514 24.1379C15.3793 24.6665 15.5599 24.8828 15.9695 25.3219C16.159 25.5224 16.3529 25.7149 16.5592 25.904C16.6567 25.9901 16.7541 26.0763 16.8516 26.1624C16.9026 26.2015 16.9491 26.2485 17 26.2877C17.0272 26.3134 17.2469 26.4787 17.102 26.3659C17.6353 26.7703 18.2201 27.1204 18.8114 27.4219C19.9702 28.0116 21.1751 28.4084 22.4864 28.7087C23.1138 28.8533 23.7502 28.9822 24.392 29.0828C25.0056 29.178 25.5875 29.2554 26.0972 29.313C28.526 29.5542 30.9745 29.5564 33.397 29.3458C38.1765 28.9295 42.9939 27.7423 47.6163 26.216C49.9439 25.4516 52.1894 24.5368 54.3869 23.5219C56.6012 22.4958 58.6983 21.2889 60.6574 19.8272C61.5904 19.1326 62.4893 18.3876 63.3689 17.6213C63.9471 17.1128 64.7748 17.9019 64.2332 18.4935Z" fill="black"/>
</svg>
