<svg width="33" height="33" viewBox="0 0 33 33" fill="none" xmlns="http://www.w3.org/2000/svg">
<path d="M16.25 0C13.0361 0 9.89429 0.953046 7.22199 2.73862C4.54969 4.52419 2.46689 7.06209 1.23696 10.0314C0.00704087 13.0007 -0.314763 16.268 0.312247 19.4202C0.939256 22.5724 2.48692 25.4679 4.75952 27.7405C7.03213 30.0131 9.9276 31.5607 13.0798 32.1878C16.232 32.8148 19.4993 32.493 22.4686 31.263C25.4379 30.0331 27.9758 27.9503 29.7614 25.278C31.547 22.6057 32.5 19.4639 32.5 16.25C32.4955 11.9416 30.7819 7.81102 27.7355 4.76454C24.689 1.71806 20.5584 0.00454972 16.25 0ZM17.5 29.9422V20H21.25C21.5815 20 21.8995 19.8683 22.1339 19.6339C22.3683 19.3995 22.5 19.0815 22.5 18.75C22.5 18.4185 22.3683 18.1005 22.1339 17.8661C21.8995 17.6317 21.5815 17.5 21.25 17.5H17.5V13.75C17.5 13.087 17.7634 12.4511 18.2322 11.9822C18.7011 11.5134 19.337 11.25 20 11.25H22.5C22.8315 11.25 23.1495 11.1183 23.3839 10.8839C23.6183 10.6495 23.75 10.3315 23.75 10C23.75 9.66848 23.6183 9.35054 23.3839 9.11612C23.1495 8.8817 22.8315 8.75 22.5 8.75H20C18.6739 8.75 17.4022 9.27678 16.4645 10.2145C15.5268 11.1521 15 12.4239 15 13.75V17.5H11.25C10.9185 17.5 10.6005 17.6317 10.3661 17.8661C10.1317 18.1005 10 18.4185 10 18.75C10 19.0815 10.1317 19.3995 10.3661 19.6339C10.6005 19.8683 10.9185 20 11.25 20H15V29.9422C11.4762 29.6205 8.21214 27.9528 5.88663 25.2859C3.56112 22.619 2.35325 19.1582 2.51425 15.6235C2.67525 12.0887 4.19274 8.75211 6.75106 6.30767C9.30939 3.86322 12.7116 2.49912 16.25 2.49912C19.7884 2.49912 23.1906 3.86322 25.749 6.30767C28.3073 8.75211 29.8248 12.0887 29.9858 15.6235C30.1468 19.1582 28.9389 22.619 26.6134 25.2859C24.2879 27.9528 21.0238 29.6205 17.5 29.9422Z" fill="#DEC4A6"/>
</svg>
