<svg width="15" height="15" viewBox="0 0 15 15" fill="none" xmlns="http://www.w3.org/2000/svg">
<path d="M7.16668 0C7.34451 0 7.50896 0.0944556 7.59857 0.248064L9.82602 4.06657L13.9556 5.10806C14.1268 5.15123 14.2625 5.28144 14.3127 5.45066C14.3629 5.61988 14.3202 5.80303 14.2002 5.93256L11.3787 8.98029L12.4415 13.724C12.4823 13.9064 12.418 14.0964 12.2748 14.2165C12.1316 14.3366 11.9333 14.3667 11.7608 14.2947L7.16668 12.3752L2.57254 14.2947C2.40006 14.3667 2.20179 14.3366 2.05855 14.2165C1.9153 14.0964 1.85101 13.9064 1.89188 13.724L2.95469 8.98029L0.133106 5.93256C0.013191 5.80303 -0.0295446 5.61988 0.0206638 5.45066C0.0708721 5.28144 0.206584 5.15123 0.377737 5.10806L4.50733 4.06657L6.73479 0.248064C6.82439 0.0944556 6.98884 0 7.16668 0Z" fill="#8A220F"/>
</svg>
