<svg width="22" height="22" viewBox="0 0 22 22" fill="none" xmlns="http://www.w3.org/2000/svg">
<path d="M10.75 0C11.0168 0 11.2634 0.141683 11.3978 0.372097L14.739 6.09985L20.9334 7.66209C21.1902 7.72684 21.3937 7.92215 21.469 8.17598C21.5443 8.42981 21.4802 8.70455 21.3004 8.89884L17.068 13.4704L18.6622 20.586C18.7235 20.8596 18.6271 21.1446 18.4122 21.3247C18.1973 21.5049 17.8999 21.5501 17.6412 21.442L10.75 18.5628L3.85881 21.442C3.60009 21.5501 3.30269 21.5049 3.08782 21.3247C2.87295 21.1446 2.77652 20.8596 2.83782 20.586L4.43203 13.4704L0.199658 8.89884C0.0197864 8.70455 -0.0443169 8.42981 0.0309957 8.17598C0.106308 7.92215 0.309876 7.72684 0.566605 7.66209L6.76099 6.09985L10.1022 0.372097C10.2366 0.141683 10.4833 0 10.75 0Z" fill="#8A220F"/>
</svg>
