<svg width="27" height="27" viewBox="0 0 27 27" fill="none" xmlns="http://www.w3.org/2000/svg">
<path d="M13.3331 1.38867C13.6295 1.38867 13.9036 1.5461 14.0529 1.80211L17.7654 8.16628L24.648 9.90211C24.9333 9.97405 25.1595 10.1911 25.2432 10.4731C25.3268 10.7551 25.2556 11.0604 25.0558 11.2763L20.3531 16.3558L22.1245 24.262C22.1926 24.566 22.0854 24.8827 21.8467 25.0828C21.6079 25.283 21.2775 25.3333 20.99 25.2131L13.3331 22.014L5.67624 25.2131C5.38877 25.3333 5.05832 25.283 4.81958 25.0828C4.58084 24.8827 4.47369 24.566 4.5418 24.262L6.31315 16.3558L1.61051 11.2763C1.41066 11.0604 1.33943 10.7551 1.42311 10.4731C1.50679 10.1911 1.73298 9.97405 2.01823 9.90211L8.90089 8.16628L12.6133 1.80211C12.7627 1.5461 13.0367 1.38867 13.3331 1.38867Z" fill="#F2DFCA"/>
</svg>
