<svg width="244" height="18" viewBox="0 0 244 18" fill="none" xmlns="http://www.w3.org/2000/svg">
<path d="M0.744 8.572C0.744 7.196 0.968 6.124 1.416 5.356C1.864 4.58 2.648 4.192 3.768 4.192C4.88 4.192 5.66 4.58 6.108 5.356C6.556 6.124 6.78 7.196 6.78 8.572C6.78 9.972 6.556 11.06 6.108 11.836C5.66 12.612 4.88 13 3.768 13C2.648 13 1.864 12.612 1.416 11.836C0.968 11.06 0.744 9.972 0.744 8.572ZM5.7 8.572C5.7 7.876 5.652 7.288 5.556 6.808C5.468 6.32 5.28 5.928 4.992 5.632C4.712 5.336 4.304 5.188 3.768 5.188C3.224 5.188 2.808 5.336 2.52 5.632C2.24 5.928 2.052 6.32 1.956 6.808C1.868 7.288 1.824 7.876 1.824 8.572C1.824 9.292 1.868 9.896 1.956 10.384C2.052 10.872 2.24 11.264 2.52 11.56C2.808 11.856 3.224 12.004 3.768 12.004C4.304 12.004 4.712 11.856 4.992 11.56C5.28 11.264 5.468 10.872 5.556 10.384C5.652 9.896 5.7 9.292 5.7 8.572ZM8.27916 8.572C8.27916 7.196 8.50316 6.124 8.95116 5.356C9.39916 4.58 10.1832 4.192 11.3032 4.192C12.4152 4.192 13.1952 4.58 13.6432 5.356C14.0912 6.124 14.3152 7.196 14.3152 8.572C14.3152 9.972 14.0912 11.06 13.6432 11.836C13.1952 12.612 12.4152 13 11.3032 13C10.1832 13 9.39916 12.612 8.95116 11.836C8.50316 11.06 8.27916 9.972 8.27916 8.572ZM13.2352 8.572C13.2352 7.876 13.1872 7.288 13.0912 6.808C13.0032 6.32 12.8152 5.928 12.5272 5.632C12.2472 5.336 11.8392 5.188 11.3032 5.188C10.7592 5.188 10.3432 5.336 10.0552 5.632C9.77516 5.928 9.58716 6.32 9.49116 6.808C9.40316 7.288 9.35916 7.876 9.35916 8.572C9.35916 9.292 9.40316 9.896 9.49116 10.384C9.58716 10.872 9.77516 11.264 10.0552 11.56C10.3432 11.856 10.7592 12.004 11.3032 12.004C11.8392 12.004 12.2472 11.856 12.5272 11.56C12.8152 11.264 13.0032 10.872 13.0912 10.384C13.1872 9.896 13.2352 9.292 13.2352 8.572ZM16.3423 13.072C16.1343 13.072 15.9583 13 15.8143 12.856C15.6703 12.712 15.5983 12.536 15.5983 12.328C15.5983 12.12 15.6703 11.944 15.8143 11.8C15.9583 11.656 16.1343 11.584 16.3423 11.584C16.5423 11.584 16.7103 11.656 16.8463 11.8C16.9903 11.944 17.0623 12.12 17.0623 12.328C17.0623 12.536 16.9903 12.712 16.8463 12.856C16.7103 13 16.5423 13.072 16.3423 13.072ZM16.3423 7.936C16.1343 7.936 15.9583 7.864 15.8143 7.72C15.6703 7.576 15.5983 7.4 15.5983 7.192C15.5983 6.984 15.6703 6.808 15.8143 6.664C15.9583 6.52 16.1343 6.448 16.3423 6.448C16.5423 6.448 16.7103 6.52 16.8463 6.664C16.9903 6.808 17.0623 6.984 17.0623 7.192C17.0623 7.4 16.9903 7.576 16.8463 7.72C16.7103 7.864 16.5423 7.936 16.3423 7.936ZM18.369 8.572C18.369 7.196 18.593 6.124 19.041 5.356C19.489 4.58 20.273 4.192 21.393 4.192C22.505 4.192 23.285 4.58 23.733 5.356C24.181 6.124 24.405 7.196 24.405 8.572C24.405 9.972 24.181 11.06 23.733 11.836C23.285 12.612 22.505 13 21.393 13C20.273 13 19.489 12.612 19.041 11.836C18.593 11.06 18.369 9.972 18.369 8.572ZM23.325 8.572C23.325 7.876 23.277 7.288 23.181 6.808C23.093 6.32 22.905 5.928 22.617 5.632C22.337 5.336 21.929 5.188 21.393 5.188C20.849 5.188 20.433 5.336 20.145 5.632C19.865 5.928 19.677 6.32 19.581 6.808C19.493 7.288 19.449 7.876 19.449 8.572C19.449 9.292 19.493 9.896 19.581 10.384C19.677 10.872 19.865 11.264 20.145 11.56C20.433 11.856 20.849 12.004 21.393 12.004C21.929 12.004 22.337 11.856 22.617 11.56C22.905 11.264 23.093 10.872 23.181 10.384C23.277 9.896 23.325 9.292 23.325 8.572ZM25.9042 8.572C25.9042 7.196 26.1282 6.124 26.5762 5.356C27.0242 4.58 27.8082 4.192 28.9282 4.192C30.0402 4.192 30.8202 4.58 31.2682 5.356C31.7162 6.124 31.9402 7.196 31.9402 8.572C31.9402 9.972 31.7162 11.06 31.2682 11.836C30.8202 12.612 30.0402 13 28.9282 13C27.8082 13 27.0242 12.612 26.5762 11.836C26.1282 11.06 25.9042 9.972 25.9042 8.572ZM30.8602 8.572C30.8602 7.876 30.8122 7.288 30.7162 6.808C30.6282 6.32 30.4402 5.928 30.1522 5.632C29.8722 5.336 29.4642 5.188 28.9282 5.188C28.3842 5.188 27.9682 5.336 27.6802 5.632C27.4002 5.928 27.2122 6.32 27.1162 6.808C27.0282 7.288 26.9842 7.876 26.9842 8.572C26.9842 9.292 27.0282 9.896 27.1162 10.384C27.2122 10.872 27.4002 11.264 27.6802 11.56C27.9682 11.856 28.3842 12.004 28.9282 12.004C29.4642 12.004 29.8722 11.856 30.1522 11.56C30.4402 11.264 30.6282 10.872 30.7162 10.384C30.8122 9.896 30.8602 9.292 30.8602 8.572Z" fill="white"/>
<ellipse cx="40.6552" cy="9" rx="3.65523" ry="4" fill="white"/>
<rect x="48.3105" y="8.36591" width="158.69" height="1.26814" rx="0.63407" fill="white" fill-opacity="0.3"/>
<path d="M211.744 8.572C211.744 7.196 211.968 6.124 212.416 5.356C212.864 4.58 213.648 4.192 214.768 4.192C215.88 4.192 216.66 4.58 217.108 5.356C217.556 6.124 217.78 7.196 217.78 8.572C217.78 9.972 217.556 11.06 217.108 11.836C216.66 12.612 215.88 13 214.768 13C213.648 13 212.864 12.612 212.416 11.836C211.968 11.06 211.744 9.972 211.744 8.572ZM216.7 8.572C216.7 7.876 216.652 7.288 216.556 6.808C216.468 6.32 216.28 5.928 215.992 5.632C215.712 5.336 215.304 5.188 214.768 5.188C214.224 5.188 213.808 5.336 213.52 5.632C213.24 5.928 213.052 6.32 212.956 6.808C212.868 7.288 212.824 7.876 212.824 8.572C212.824 9.292 212.868 9.896 212.956 10.384C213.052 10.872 213.24 11.264 213.52 11.56C213.808 11.856 214.224 12.004 214.768 12.004C215.304 12.004 215.712 11.856 215.992 11.56C216.28 11.264 216.468 10.872 216.556 10.384C216.652 9.896 216.7 9.292 216.7 8.572ZM219.279 8.572C219.279 7.196 219.503 6.124 219.951 5.356C220.399 4.58 221.183 4.192 222.303 4.192C223.415 4.192 224.195 4.58 224.643 5.356C225.091 6.124 225.315 7.196 225.315 8.572C225.315 9.972 225.091 11.06 224.643 11.836C224.195 12.612 223.415 13 222.303 13C221.183 13 220.399 12.612 219.951 11.836C219.503 11.06 219.279 9.972 219.279 8.572ZM224.235 8.572C224.235 7.876 224.187 7.288 224.091 6.808C224.003 6.32 223.815 5.928 223.527 5.632C223.247 5.336 222.839 5.188 222.303 5.188C221.759 5.188 221.343 5.336 221.055 5.632C220.775 5.928 220.587 6.32 220.491 6.808C220.403 7.288 220.359 7.876 220.359 8.572C220.359 9.292 220.403 9.896 220.491 10.384C220.587 10.872 220.775 11.264 221.055 11.56C221.343 11.856 221.759 12.004 222.303 12.004C222.839 12.004 223.247 11.856 223.527 11.56C223.815 11.264 224.003 10.872 224.091 10.384C224.187 9.896 224.235 9.292 224.235 8.572ZM227.342 13.072C227.134 13.072 226.958 13 226.814 12.856C226.67 12.712 226.598 12.536 226.598 12.328C226.598 12.12 226.67 11.944 226.814 11.8C226.958 11.656 227.134 11.584 227.342 11.584C227.542 11.584 227.71 11.656 227.846 11.8C227.99 11.944 228.062 12.12 228.062 12.328C228.062 12.536 227.99 12.712 227.846 12.856C227.71 13 227.542 13.072 227.342 13.072ZM227.342 7.936C227.134 7.936 226.958 7.864 226.814 7.72C226.67 7.576 226.598 7.4 226.598 7.192C226.598 6.984 226.67 6.808 226.814 6.664C226.958 6.52 227.134 6.448 227.342 6.448C227.542 6.448 227.71 6.52 227.846 6.664C227.99 6.808 228.062 6.984 228.062 7.192C228.062 7.4 227.99 7.576 227.846 7.72C227.71 7.864 227.542 7.936 227.342 7.936ZM229.105 11.068V10.24L233.317 4.408H234.625V10.12H235.825V11.068H234.625V13H233.545V11.068H229.105ZM233.593 5.548L230.365 10.12H233.593V5.548ZM242.448 5.272H238.236V8.008C238.42 7.752 238.692 7.544 239.052 7.384C239.412 7.216 239.8 7.132 240.216 7.132C240.88 7.132 241.42 7.272 241.836 7.552C242.252 7.824 242.548 8.18 242.724 8.62C242.908 9.052 243 9.512 243 10C243 10.576 242.892 11.092 242.676 11.548C242.46 12.004 242.128 12.364 241.68 12.628C241.24 12.892 240.692 13.024 240.036 13.024C239.196 13.024 238.516 12.808 237.996 12.376C237.476 11.944 237.16 11.368 237.048 10.648H238.116C238.22 11.104 238.44 11.46 238.776 11.716C239.112 11.972 239.536 12.1 240.048 12.1C240.68 12.1 241.156 11.912 241.476 11.536C241.796 11.152 241.956 10.648 241.956 10.024C241.956 9.4 241.796 8.92 241.476 8.584C241.156 8.24 240.684 8.068 240.06 8.068C239.636 8.068 239.264 8.172 238.944 8.38C238.632 8.58 238.404 8.856 238.26 9.208H237.228V4.312H242.448V5.272Z" fill="white"/>
</svg>
