<svg width="170" height="41" viewBox="0 0 170 41" fill="none" xmlns="http://www.w3.org/2000/svg">
<path fill-rule="evenodd" clip-rule="evenodd" d="M168.719 18.2232C167.165 18.2026 165.61 18.2191 164.055 18.2224C162.296 18.2138 160.536 18.205 158.777 18.1962C157.595 18.1502 156.413 18.1039 155.23 18.0617C155.207 18.0608 155.182 18.1098 155.158 18.1357C155.052 18.1328 154.945 18.1302 154.839 18.1274C154.802 18.063 154.767 17.9433 154.729 17.9419C152.973 17.8797 151.216 17.8334 149.46 17.7724C148.47 17.7381 147.48 17.6964 146.491 17.6247C146.241 17.6066 145.878 17.2784 145.769 17.4029C145.055 18.2129 144.499 17.6294 143.959 17.1626C143.705 17.417 143.476 17.6465 143.269 17.8534C142.792 17.5381 142.36 17.2529 141.944 16.9782C141.746 17.3145 141.565 17.6233 141.318 18.0427C140.62 16.4982 139.908 17.3757 139.18 17.9225C139.038 17.5825 138.923 17.3083 138.79 16.9881C138.243 17.2154 137.719 17.4337 137.28 17.6167C137.074 17.3488 136.918 17.1451 136.761 16.9413C136.482 17.7837 135.826 16.4919 135.519 17.3052C135.514 17.3172 135.164 17.0082 134.982 17.0207C134.782 17.0344 134.59 17.2478 134.359 17.3966C134.293 17.0698 134.233 16.768 134.181 16.5128C133.693 16.3705 133.355 16.4401 133.303 17.135C132.899 16.7148 132.885 17.6466 132.49 17.4689C132.434 17.2811 132.362 17.0288 132.286 16.7763C132.251 16.7915 132.205 16.8069 132.185 16.8222C132.185 17.3603 132.185 17.8982 132.185 18.4362C132.125 18.4427 132.074 18.4411 132.021 18.4318C131.991 17.6647 131.959 16.8975 131.929 16.1305C131.374 16.832 130.884 17.2534 130.179 16.7375C130.094 16.4106 129.993 16.0289 129.907 15.6966C129.532 16.2135 129.179 16.7011 128.875 17.1206C128.579 16.6672 128.276 16.2071 127.986 15.7637C127.662 16.2315 127.441 16.5675 127.061 17.0927C127.061 17.3424 127.061 17.8817 127.061 18.4212C127.021 18.428 126.976 18.4293 126.932 18.4252C126.862 17.5178 126.794 16.6105 126.703 15.4345C126.493 16.0671 126.382 16.4051 126.244 16.821C126.087 16.2201 125.964 15.751 125.841 15.282C125.778 15.3007 125.715 15.3193 125.652 15.338C125.611 15.7112 125.57 16.0841 125.507 16.6581C125.412 16.2451 125.37 16.063 125.324 15.8635C125.195 16.004 125.096 16.1116 124.89 16.3353C124.851 15.4314 124.82 14.72 124.789 14.0086C124.748 14.0076 124.707 14.0068 124.666 14.0059C124.563 14.8339 124.46 15.6618 124.319 16.8015C124.11 16.0041 123.97 15.4906 123.835 14.977C123.791 14.9832 123.758 14.9896 123.698 14.9958C123.698 15.6352 123.698 16.2746 123.698 16.9139C123.658 16.9167 123.625 16.9194 123.587 16.922C123.518 16.4036 123.451 15.8852 123.382 15.3669C123.333 15.3808 123.285 15.3945 123.236 15.4085C123.141 16.0824 123.046 16.7564 122.951 17.4305C122.872 15.9609 123.12 14.4539 122.653 12.9159C122.569 14.1584 122.493 15.2943 122.416 16.4303C122.352 16.4256 122.289 16.4211 122.226 16.4163C122.123 15.944 122.018 15.4717 121.915 14.9992C121.856 15.0081 121.797 15.017 121.737 15.0258C121.737 15.6753 121.737 16.325 121.737 16.9744C121.657 16.9725 121.578 16.9705 121.497 16.9686C121.466 16.2097 121.436 15.4509 121.403 14.6403C121.276 14.7889 121.204 14.8747 121.116 14.9786C121.011 13.7948 120.911 12.6659 120.789 11.2845C120.69 12.6918 120.609 13.8365 120.528 14.9814C120.453 15.5553 120.379 16.1295 120.304 16.7035C120.254 16.6958 120.205 16.6882 120.155 16.6805C120.13 16.1202 120.106 15.5601 120.074 14.8577C119.878 15.6449 119.735 16.2534 119.575 16.8618C119.575 16.1581 119.575 15.4543 119.575 14.6383C118.955 14.9129 118.992 14.3787 118.987 13.9281C118.978 12.8949 118.984 11.8617 118.984 10.8283C118.699 12.5449 118.558 14.2575 118.426 15.9712C118.397 16.3558 118.396 16.7443 118.383 17.131C118.359 17.1277 118.335 17.1246 118.312 17.1213C118.234 16.3967 118.155 15.6721 118.077 14.9475C118.013 14.9585 117.95 14.9696 117.886 14.9807C117.866 15.4608 117.845 15.9407 117.824 16.4208C117.783 16.422 117.742 16.4233 117.701 16.4245C117.676 15.6444 117.65 14.8641 117.624 14.0839C117.538 14.088 117.452 14.092 117.366 14.0961C117.321 14.7756 117.277 15.4551 117.232 16.1346C117.145 16.1294 117.053 16.124 116.973 16.1187C116.973 14.1037 116.973 12.0884 116.973 10.0734C116.893 10.0751 116.836 10.0769 116.769 10.0786C116.634 12.6068 116.504 15.135 116.37 17.6633C116.303 17.6586 116.232 17.6541 116.172 17.6494C116.172 17.3244 116.172 16.9994 116.172 16.6744C116.172 16.3442 116.172 16.0142 116.172 15.6952C115.392 15.4964 115.048 15.0058 115.036 14.0781C115.022 12.9777 115.03 11.8765 115.03 10.7756C114.573 12.3928 114.775 14.2206 113.872 15.6262C113.791 15.1529 113.708 14.6795 113.626 14.2011C113.51 14.4637 113.389 14.7293 113.272 14.9949C113.219 14.9837 113.17 14.9726 113.11 14.9615C113.11 13.4882 113.11 12.0149 113.11 10.4582C112.85 11.8795 112.591 13.1789 112.287 14.7619C112.214 14.1923 112.181 13.9192 112.125 13.4796C111.834 14.1526 111.603 14.6913 111.287 15.4233C111.196 13.8221 111.328 12.4446 111.193 11.1007C111.106 11.1043 111.019 11.1079 110.932 11.1115C110.901 11.8658 110.869 12.6202 110.838 13.3745C110.782 13.3687 110.728 13.3628 110.668 13.3569C110.668 12.5776 110.668 11.7982 110.668 11.0187C110.648 11.0171 110.611 11.0155 110.581 11.0139C110.517 11.4857 110.453 11.9576 110.366 12.599C110.168 12.2482 110.092 12.112 110.053 12.0428C109.85 13.0837 109.646 14.1339 109.419 15.3055C108.345 12.9572 109.081 10.4105 108.691 8.08775C108.602 8.09438 108.506 8.10094 108.426 8.10757C108.426 9.69398 108.426 11.2805 108.426 12.8671C108.366 12.8634 108.333 12.8596 108.288 12.856C108.248 12.2511 108.206 11.6461 108.166 11.0411C108.068 11.0477 107.97 11.0542 107.872 11.0607C107.743 13.2714 107.613 15.4823 107.484 17.6929C107.422 17.1745 107.312 16.6569 107.307 16.1375C107.287 14.0982 107.302 12.0585 107.302 10.0186C107.236 10.0191 107.165 10.0194 107.105 10.0199C107.105 12.3162 107.105 14.6126 107.105 16.909C107.045 16.9097 106.993 16.9103 106.939 16.9108C106.847 14.1256 106.752 11.3407 106.659 8.55548C106.624 8.55678 106.589 8.558 106.554 8.55929C106.498 10.2026 106.441 11.8458 106.384 13.4892C106.336 13.571 106.288 13.6531 106.24 13.7351C106.223 13.7031 106.193 13.6712 106.193 13.6391C106.19 12.7532 106.191 11.8672 106.191 10.9814C106.11 10.9786 106.029 10.9758 105.949 10.9729C105.894 11.8208 105.846 12.6696 105.782 13.5164C105.673 14.9848 105.554 16.452 105.439 17.9197C105.423 15.2764 105.406 12.6331 105.39 9.98985C105.284 9.98535 105.178 9.98108 105.072 9.9765C104.98 11.8508 105.069 13.7444 105.011 15.6222C104.942 15.6187 104.883 15.6152 104.803 15.6118C104.803 12.3508 104.803 9.08983 104.803 5.82876C104.583 8.14065 104.527 10.4517 104.457 12.7618C104.443 13.2421 104.343 13.7178 104.283 14.1957C104.283 13.6253 104.283 13.0549 104.283 12.4846C104.203 12.4792 104.116 12.4737 104.033 12.4683C103.925 13.289 103.816 14.1096 103.708 14.9303C103.647 14.5355 103.561 14.1443 103.529 13.7456C103.431 12.4975 103.349 11.2465 103.263 9.99669C103.231 9.99883 103.202 10.0013 103.162 10.0035C103.162 12.8208 103.162 15.6383 103.162 18.4557C103.102 18.4561 103.008 18.4568 102.929 18.4573C102.936 14.9408 102.954 11.4243 102.944 7.9078C102.943 7.4528 102.813 6.99827 102.742 6.54349C102.58 8.56798 102.593 10.5525 102.572 12.5362C102.567 13.0137 102.455 13.4891 102.392 13.9654C102.321 13.3032 102.25 12.6408 102.179 11.9786C102.133 11.9877 102.087 11.9969 102.042 12.006C101.969 12.8991 101.897 13.7923 101.825 14.6853C101.763 14.2088 101.665 13.7343 101.649 13.2552C101.62 12.411 101.641 11.5639 101.641 10.718C101.557 10.7151 101.474 10.7121 101.39 10.7093C101.11 13.0132 101.365 15.3672 101.147 17.6812C101.055 14.0543 100.964 10.4274 100.872 6.8004C100.697 8.99996 100.708 11.1942 100.689 13.3882C100.684 13.9161 100.582 14.4427 100.524 14.9699C100.456 14.5481 100.344 14.1289 100.33 13.704C100.3 12.7833 100.321 11.8595 100.321 10.937C100.254 10.9371 100.188 10.9371 100.122 10.9373C100.122 11.5401 100.136 12.1442 100.105 12.7441C100.101 12.8298 99.8769 12.8958 99.7544 12.971C99.692 12.4934 99.5845 12.0173 99.5757 11.5381C99.5511 10.19 99.5672 8.84052 99.5672 7.4916C99.5214 7.49137 99.4756 7.49121 99.4298 7.49106C99.3296 10.1292 99.2293 12.7674 99.1291 15.4057C99.0846 15.4038 99.0399 15.4018 98.9954 15.3999C98.9954 14.9916 98.9954 14.5833 98.9954 14.1752C98.995 10.979 98.9991 7.78304 98.9889 4.58705C98.9876 4.19637 98.9074 3.80624 98.8648 3.41586C98.7833 3.43088 98.6984 3.44597 98.6185 3.46106C98.6185 3.86736 98.6185 4.27375 98.6185 4.68012C98.6185 7.17059 98.6288 9.66105 98.6112 12.1513C98.6082 12.5861 98.4956 13.0196 98.4331 13.4537C98.3849 11.6122 98.337 9.77072 98.2888 7.9293C98.2268 7.93029 98.1651 7.93121 98.1031 7.9322C98.0245 10.1061 97.9459 12.28 97.8673 14.4537C97.8034 13.9788 97.6881 13.5042 97.6854 13.0285C97.6685 9.95485 97.6777 6.88097 97.6777 3.80715C97.6777 3.29217 97.6777 2.77719 97.6777 2.2622C97.4375 4.53218 97.3441 6.79964 97.3089 9.06863C97.2736 11.34 97.3005 13.613 97.3005 15.8852C97.2576 15.8839 97.2143 15.8827 97.1714 15.8813C97.0762 11.6685 96.9794 7.45555 96.8841 3.24271C96.829 3.24255 96.777 3.24232 96.7169 3.24209C96.7169 6.79156 96.7169 10.341 96.7169 13.8904C96.6769 13.8893 96.6354 13.8882 96.5938 13.8872C96.4948 11.7512 96.3966 9.61509 96.2975 7.47917C96.281 7.47795 96.2648 7.47682 96.2482 7.47567C96.1615 9.04448 96.075 10.6133 95.9883 12.1823C95.6222 9.87277 96.0635 7.50882 95.5024 5.2396C95.4387 5.40339 95.4219 5.56482 95.4178 5.72662C95.352 8.33416 95.2919 10.9419 95.2149 13.5487C95.2057 13.8615 95.0956 14.1693 95.0356 14.4795C95.0356 11.4113 95.0356 8.34315 95.0356 5.27505C94.9755 5.27551 94.9122 5.27597 94.8498 5.27642C94.8498 6.55851 94.8879 7.84257 94.8443 9.12214C94.8004 10.4122 95.0555 11.7471 94.4751 12.9836C94.4751 10.8073 94.4751 8.63116 94.4751 6.45478C94.4351 6.45447 94.4016 6.45395 94.3664 6.45357C94.2747 7.87497 94.1838 9.29644 94.092 10.7178C93.7623 9.06551 94.1548 7.33742 93.4943 5.73561C93.4943 8.60563 93.4943 11.4756 93.4943 14.3457C93.3742 14.3476 93.2797 14.3494 93.1737 14.3513C93.1203 11.0819 93.1801 7.80537 93.0396 4.5369C92.8859 6.60118 92.8375 8.66424 92.7695 10.7261C92.7536 11.2068 92.6536 11.6829 92.5935 12.1611C92.5935 10.8543 92.5935 9.54742 92.5935 8.24072C92.5134 8.24293 92.4334 8.24513 92.3533 8.24742C92.3533 9.96538 92.3533 11.6833 92.3533 13.399C91.5127 11.3411 91.9777 9.10628 91.6741 6.97242C91.3214 10.3793 91.5508 13.8111 91.335 17.2245C91.2569 14.2173 91.1753 11.2103 91.0971 8.20329C91.0233 8.20405 90.9522 8.2049 90.8722 8.20574C90.8722 9.55329 90.8722 10.9008 90.8722 12.2483C90.7121 11.8387 90.6999 11.4335 90.6998 11.0281C90.6995 8.66181 90.7127 6.29519 90.6918 3.9291C90.6867 3.35932 90.5745 2.79122 90.511 2.22227C90.47 2.23104 90.4295 2.2398 90.3884 2.24864C90.3118 5.24891 90.2354 8.24918 90.1589 11.2496C90.1126 11.2487 90.0664 11.2479 90.0202 11.2471C89.9309 9.07419 89.8418 6.90132 89.7524 4.72852C89.6919 4.72943 89.6312 4.73027 89.5712 4.73111C89.5712 5.12072 89.5712 5.51047 89.5712 5.89993C89.5712 9.47028 89.5793 13.0405 89.5645 16.6108C89.562 17.2248 89.4619 17.8379 89.4069 18.4514C89.3851 18.5299 89.3842 18.6089 89.4045 18.6882C89.3756 18.811 89.3484 18.9339 89.2671 19.2795C89.215 18.8346 89.1909 18.6397 89.1708 18.4447C89.1708 14.7192 89.1708 10.9936 89.1708 7.26815C89.1108 7.26761 89.0307 7.26708 88.9707 7.26655C88.9707 9.07489 88.9707 10.8832 88.9707 12.6917C88.6905 10.1997 89.0498 7.66842 88.4997 5.20981C88.4357 7.64769 88.446 10.0843 88.4283 12.5205C88.4247 12.9948 88.3152 13.4677 88.2544 13.9413C88.2533 12.8191 88.2932 11.6939 88.2427 10.5756C88.1349 8.18851 87.9806 5.80513 87.8452 3.42014C87.7152 3.61373 87.6886 3.80731 87.6863 4.00158C87.6299 8.89525 87.5761 13.7889 87.5218 18.6827C87.4987 19.0381 87.4756 19.3936 87.4526 19.7488C87.4173 19.7485 87.3853 19.748 87.35 19.7475C87.3287 19.3133 87.3094 18.879 87.2894 18.4446C87.2894 15.6333 87.2894 12.8221 87.2894 10.011C87.2093 10.012 87.1493 10.0129 87.0892 10.0137C87.0892 10.5769 87.0892 11.1399 87.0892 11.7031C87.0092 11.7015 86.9492 11.6999 86.8815 11.6984C86.8159 8.04012 86.7493 4.38174 86.6837 0.72336C86.6392 0.723894 86.5888 0.72442 86.5488 0.724877C86.5488 4.73301 86.5488 8.74106 86.5488 12.7491C86.4888 12.7495 86.4287 12.7497 86.3687 12.7501C86.3687 9.74124 86.3687 6.73219 86.3687 3.72309C86.3086 3.72171 86.2486 3.72042 86.1885 3.71905C86.1885 4.48691 86.1885 5.25477 86.1885 6.23276C86.0084 5.87927 85.946 5.73074 85.8736 5.58212C85.8045 5.58029 85.7282 5.57853 85.6681 5.57678C85.6681 7.1103 85.6681 8.64389 85.6681 10.1776C85.6081 10.1711 85.556 10.1647 85.5026 10.1582C85.4125 9.40612 85.3155 8.6541 85.2256 7.90202C85.162 7.90903 85.1077 7.91589 85.0276 7.92267C85.0276 9.77682 85.0276 11.631 85.0276 13.4851C84.9675 13.4853 84.9075 13.4854 84.8274 13.4856C84.8274 9.99906 84.8274 6.5124 84.8274 3.02573C84.7673 3.02756 84.6873 3.0293 84.6272 3.03098C84.6272 3.67667 84.6272 4.32236 84.6272 4.96812C84.5872 4.96561 84.5688 4.96294 84.5403 4.9602C84.4382 3.54527 84.3354 2.13043 84.2332 0.715731C84.19 0.716798 84.1464 0.717872 84.1031 0.719016C84.1031 1.12745 84.1031 1.53619 84.103 1.94485C84.1027 5.30942 84.1098 8.67423 84.0939 12.0387C84.0916 12.5126 83.9759 12.9854 83.9128 13.4587C83.9104 12.2175 83.9079 10.9764 83.9054 9.73528C83.818 9.732 83.7308 9.72873 83.6434 9.72546C83.5325 10.9026 83.4237 12.0796 83.3128 13.2566C83.2633 13.2523 83.206 13.248 83.166 13.2437C83.166 12.053 83.166 10.8623 83.166 9.67142C83.126 9.66228 83.0892 9.65312 83.0518 9.64405C82.9992 9.8493 82.9455 10.0545 82.893 10.2596C82.8466 10.2608 82.7998 10.2619 82.7536 10.2631C82.6197 6.84202 82.4856 3.42105 82.3518 0C82.2991 3.78787 82.3012 7.565 81.5008 11.1886C81.4789 10.9771 81.4444 10.6821 81.3891 10.1486C81.2714 11.3313 81.1845 12.2536 81.0844 13.1759C81.0844 9.54528 81.0844 5.91487 81.0844 2.28438C80.9843 2.2853 80.8842 2.28614 80.7641 2.28698C80.7641 5.60194 80.7641 8.91682 80.7641 12.2316C80.6841 12.2315 80.604 12.2312 80.5039 12.2309C80.5039 10.2133 80.5039 8.19567 80.5039 6.17796C80.2638 8.69182 80.5512 11.2666 79.8265 13.6226C79.7369 10.1899 79.65 6.67847 79.5587 3.18441C79.4953 3.18441 79.423 3.18441 79.363 3.18441C79.363 5.93728 79.363 8.70007 79.363 11.4585C79.3029 11.4577 79.2429 11.4571 79.1628 11.4564C79.1628 10.464 79.1628 9.47129 79.1628 8.47882C79.1428 8.48072 79.107 8.4827 79.0779 8.48461C78.9781 9.9009 78.8795 11.317 78.7797 12.7333C78.6321 12.3189 78.6539 11.9103 78.6266 11.5073C78.5997 11.1113 78.5238 10.721 78.4693 10.3282C78.3986 10.3357 78.3279 10.3432 78.2572 10.3506C78.162 10.7516 78.0667 11.1527 77.9715 11.5537C77.9104 11.5519 77.8495 11.5499 77.7886 11.5481C77.7391 10.5013 77.6897 9.45443 77.6403 8.40778C77.4989 9.93047 77.5123 11.4505 77.491 12.9695C77.4843 13.4489 77.3842 13.926 77.327 14.404C77.2586 10.1397 77.1912 5.87532 77.1199 1.61096C77.1164 1.40358 77.0848 1.19711 77.0637 0.990261C77.0146 0.994833 76.961 0.999251 76.921 1.0039C76.921 4.74017 76.921 8.47652 76.921 12.2129C76.8809 12.2126 76.8481 12.2125 76.8142 12.2123C76.7463 9.12739 76.6799 6.04246 76.6121 2.95744C76.5411 2.95896 76.4605 2.96057 76.4005 2.96202C76.4005 8.12602 76.4005 13.29 76.4005 18.4542C76.3805 18.5322 76.3768 18.61 76.3984 18.6876C76.3697 18.8163 76.3392 18.9448 76.2585 19.3069C76.2054 18.8463 76.1813 18.6455 76.1581 18.4447C76.1657 17.4073 76.1774 16.3699 76.1793 15.3325C76.1822 13.7967 76.1425 12.2591 76.1863 10.7255C76.2311 9.15932 75.2854 7.94309 75.359 6.3794C75.3623 6.3076 75.2396 6.22492 75.0395 5.9997C75.0395 8.525 75.0395 10.884 75.0395 13.2428C74.9994 13.2421 74.9383 13.2413 74.8857 13.2407C74.7904 10.2292 74.6971 7.21776 74.6018 4.20629C74.5843 4.20744 74.5679 4.20835 74.5505 4.20949C74.4511 6.78913 74.3529 9.36869 74.2536 11.9485C74.1949 11.946 74.1387 11.9435 74.0787 11.9409C74.0787 8.28202 74.0787 4.62319 74.0787 0.96435C74.0387 0.964045 74.0017 0.963816 73.9636 0.963587C73.8637 3.38569 73.7635 5.80793 73.6544 8.45335C73.5415 7.29145 73.4503 6.36568 73.3604 5.43998C73.2899 4.45163 73.5182 3.40375 72.9378 2.2209C72.9378 5.22299 72.9378 7.95125 72.9378 10.6793C72.8777 10.678 72.8177 10.6767 72.7776 10.6754C72.7776 8.03043 72.7776 5.38548 72.7776 2.74044C72.7376 2.73923 72.7063 2.73802 72.6722 2.73665C72.5739 4.32702 72.474 5.91731 72.3758 7.5076C72.3458 7.51042 72.315 7.51332 72.2849 7.51607C72.2409 7.16822 72.1965 6.82022 72.1526 6.4723C72.0025 7.27904 72.2082 8.21785 71.954 8.81332C71.5735 9.70465 71.6723 10.5556 71.6574 11.4298C71.6285 13.1326 71.661 14.8372 71.6453 16.5408C71.6413 16.9852 71.5542 17.4285 71.5051 17.8724C71.4915 16.6713 71.4991 15.4693 71.4584 14.2698C71.4186 13.0981 71.3331 11.9293 71.2658 10.7591C71.2015 10.7639 71.1363 10.769 71.0763 10.7738C71.0763 12.0057 71.0763 13.2377 71.0763 14.4697C71.0363 14.4717 71.0007 14.4739 70.9647 14.4758C70.8595 13.2934 70.7542 12.111 70.6491 10.9286C70.6047 10.9318 70.5558 10.935 70.5158 10.9382C70.5158 12.3748 70.5158 13.8114 70.5158 15.248C70.4758 15.2482 70.4457 15.2485 70.4114 15.2487C70.3168 12.8912 70.2243 10.5337 70.1297 8.17616C70.0642 8.17661 69.9953 8.17715 69.9353 8.17768C69.9353 9.36366 69.9353 10.5498 69.9353 11.736C69.8952 11.7329 69.854 11.7299 69.8147 11.7268C69.7839 11.5672 69.7518 11.4076 69.7211 11.2481C69.6747 10.758 69.6349 10.2667 69.5794 9.77858C69.5196 9.25262 69.4394 8.72956 69.371 8.2052C69.3006 8.21458 69.2347 8.22396 69.1547 8.23348C69.1547 9.62997 69.1547 11.0265 69.1547 12.4232C69.1346 12.42 69.1092 12.4167 69.0841 12.4136C68.9892 10.4448 68.8968 8.47591 68.8019 6.50714C68.6359 9.41777 68.648 12.3195 68.6304 15.2208C68.6279 15.6343 68.4941 16.0465 68.434 16.4594C68.434 13.9682 68.434 11.4769 68.434 8.98556C68.394 8.98534 68.3444 8.98496 68.3009 8.98465C68.2774 9.57905 68.2524 10.1734 68.218 11.0427C68.0979 10.5592 68.0461 10.3538 67.995 10.1484C67.9429 10.151 67.8903 10.1535 67.8382 10.1561C67.7157 12.1825 67.5931 14.2089 67.4705 16.2353C67.4093 16.244 67.3478 16.2528 67.2866 16.2615C67.1444 15.3113 67.0022 14.3611 66.8471 13.3242C66.7812 13.5802 66.7282 13.7862 66.6313 14.1627C66.5246 11.5711 66.4284 9.15217 66.3289 6.73304C66.2822 6.73525 66.2323 6.73753 66.1923 6.73974C66.1923 8.39353 66.1923 10.0473 66.1923 11.7012C65.3316 11.6713 65.8189 10.5861 65.4919 10.0991C65.4177 10.2105 65.3053 10.299 65.3047 10.3888C65.2862 13.0745 65.2777 15.7604 65.2685 18.4462C65.2442 18.8591 65.2195 19.272 65.1953 19.685C65.16 19.6811 65.1244 19.6772 65.089 19.6734C65.07 19.2641 65.051 18.855 65.032 18.4458C65.0344 14.8306 65.0376 11.2157 65.0349 7.60051C65.0348 7.48741 64.9761 7.37217 64.9375 7.26242C64.9261 7.23025 64.8912 7.20763 64.8636 7.19201C64.8359 7.17631 64.8036 7.17486 64.6781 7.14292C64.6781 8.94288 64.6905 10.7213 64.6698 12.499C64.6641 12.9764 64.5575 13.4516 64.4973 13.9277C64.4931 12.9754 64.5267 12.0189 64.4691 11.0723C64.4403 10.5995 64.2425 10.1445 64.1225 9.68147C64.0392 9.70654 63.9506 9.73162 63.8704 9.7567C63.8704 11.1675 63.8704 12.5782 63.8704 13.9891C63.7704 13.865 63.7522 13.7433 63.7274 13.6276C63.7079 13.537 63.6699 13.454 63.6396 13.3677C63.5941 13.3732 63.5493 13.3787 63.5038 13.384C63.4328 14.3207 63.3621 15.2574 63.2911 16.1942C63.2731 16.1906 63.2552 16.1869 63.2373 16.1834C63.1406 14.4346 63.044 12.6857 62.9473 10.937C62.7932 12.7149 62.806 14.4872 62.7848 16.2587C62.7791 16.7322 62.6698 17.2033 62.608 17.6755C62.5511 15.4332 62.4941 13.1908 62.4371 10.9485C62.3457 10.9443 62.2542 10.9401 62.1628 10.936C62.1204 11.7714 62.078 12.6068 62.0356 13.4423C61.4982 13.3327 61.6723 12.7593 61.6641 12.3576C61.6394 11.151 61.6552 9.94298 61.6552 8.73543C61.5652 8.73093 61.4752 8.72651 61.3851 8.72194C61.3333 9.72759 61.283 10.7334 61.2312 11.739C61.1897 11.739 61.1484 11.7392 61.1084 11.7392C61.1084 10.2298 61.1084 8.7204 61.1084 7.21082C61.0483 7.21021 60.9974 7.20946 60.9429 7.20877C60.8453 9.9506 60.7471 12.6925 60.6496 15.4343C60.6353 15.432 60.6206 15.4295 60.6064 15.427C60.5133 12.9278 60.42 10.4285 60.327 7.92922C60.236 7.92404 60.1448 7.91862 60.0539 7.91344C59.8444 9.50267 60.0675 11.1468 59.7673 12.7446C59.7673 11.9897 59.7673 11.2349 59.7673 10.4801C59.7273 10.4816 59.6894 10.4829 59.6504 10.4843C59.585 11.9874 59.5239 13.4904 59.4585 14.9934C59.3733 14.9895 59.2869 14.9855 59.2069 14.9817C59.2069 13.1399 59.2069 11.298 59.2069 9.45612C58.9466 11.1495 58.9763 12.8957 58.4456 14.4857C58.3742 14.4746 58.3062 14.4636 58.2261 14.4527C58.2261 13.626 58.2261 12.7993 58.2261 11.9725C58.126 11.5214 57.9533 11.0801 57.8994 10.6169C57.7974 9.74207 57.7579 8.85448 57.6921 7.9723C57.5267 8.33759 57.5324 8.9784 57.4324 9.00866C56.6901 9.2325 57.0017 9.93985 56.9775 10.4925C56.8858 10.5285 56.7163 10.604 56.7137 10.5948C56.5943 10.1836 56.4163 9.77064 56.3978 9.34636C56.353 8.31769 56.3832 7.28338 56.3832 6.25144C56.2163 6.41339 56.1968 6.57398 56.1948 6.73502C56.1816 7.81345 56.4091 9.02787 56.11 9.94123C55.5548 11.6365 55.6585 13.3347 55.6169 15.0576C55.6089 15.3923 55.5403 15.7248 55.5011 16.0583C55.4162 16.0499 55.3437 16.0414 55.2436 16.033C55.2436 14.436 55.2436 12.8391 55.2436 11.242C55.2036 11.2436 55.1436 11.2451 55.0835 11.2467C55.0835 13.6466 55.0835 16.0466 55.0835 18.4463C55.0034 18.4468 54.9234 18.4473 54.8433 18.4479C54.8433 17.6068 54.8433 16.7656 54.8433 15.6435C54.7031 16.0417 54.6629 16.152 54.5675 16.4158C54.4432 15.4224 54.3382 14.5618 54.2303 13.7011C54.1802 13.7063 54.1227 13.7116 54.0827 13.7167C54.0827 14.5408 54.0827 15.3648 54.0827 16.189C53.9226 15.1902 53.956 14.1973 53.9196 13.2085C53.8853 12.277 54.0826 11.2951 53.7748 10.4084C53.699 10.415 53.6223 10.4216 53.5423 10.4282C53.5423 11.3648 53.5423 12.3014 53.5423 13.238C53.5222 13.2379 53.4733 13.2378 53.4365 13.2377C53.2494 11.5862 53.0658 9.93481 52.8787 8.28331C52.8451 8.28545 52.8216 8.28758 52.7816 8.28979C52.7816 9.85486 52.7816 11.4198 52.7816 12.9849C52.6014 12.2536 52.6407 11.5181 52.6015 10.789C52.5642 10.0933 52.4537 9.40443 52.3554 8.53185C51.9552 10.3104 52.701 12.0939 51.7509 13.6667C51.6866 13.3203 51.642 13.0812 51.6036 12.8749C50.9255 13.9548 51.1173 15.2243 51.099 16.4469C51.089 17.1112 51.0911 17.7756 51.0879 18.4401C51.0326 18.4491 50.9781 18.4437 50.9244 18.4239C50.7532 17.0533 50.5802 15.6826 50.409 14.3121C50.3333 14.3137 50.2597 14.3155 50.1796 14.3172C50.1796 15.4358 50.1796 16.5544 50.1796 17.6732C50.0996 17.6705 50.0195 17.6679 49.9394 17.6653C49.9394 15.604 49.9394 13.5428 49.9394 11.4814C49.8995 11.4822 49.8699 11.483 49.8351 11.4837C49.6918 12.3063 49.5482 13.1288 49.4048 13.9513C49.3965 13.703 49.4643 13.362 49.3669 13.2219C48.9058 12.5584 49.0896 11.7598 49.0133 11.0095C48.9488 10.3757 48.7475 9.76814 48.658 9.13617C48.6041 8.75616 48.648 8.35184 48.648 7.95842C48.5763 7.9511 48.5047 7.94386 48.4329 7.9367C48.3799 8.40603 48.2878 8.87452 48.2812 9.34507C48.2573 11.0045 48.2635 12.6647 48.2529 14.3245C48.2526 14.372 48.1911 14.4187 48.1887 14.4221C48.0473 14.1918 47.9038 13.9578 47.6558 13.5536C47.4898 14.5618 47.372 15.2771 47.2393 16.0827C47.1317 15.0457 47.0315 14.1066 46.9341 13.1675C46.8692 13.1737 46.817 13.1801 46.7369 13.1863C46.7369 14.0344 46.7369 14.8825 46.7369 15.7306C46.6769 15.7306 46.6167 15.7308 46.5567 15.7309C46.5567 14.8898 46.5567 14.0488 46.5567 13.2078C46.5367 13.2094 46.4992 13.211 46.468 13.2127C46.3867 13.8866 46.3081 14.5605 46.2268 15.2343C46.1424 15.2216 46.0563 15.209 45.9762 15.1963C45.9762 14.4562 45.9762 13.7161 45.9762 12.976C45.9362 12.9783 45.8991 12.9805 45.8607 12.9828C45.8307 13.476 45.8057 13.9691 45.7757 14.4623C45.7208 14.4586 45.656 14.4549 45.6159 14.4513C45.6159 13.6199 45.6159 12.7886 45.6159 11.9571C45.5559 11.9586 45.5278 11.9599 45.4863 11.9614C45.4587 12.5501 45.4286 13.1388 45.4011 13.7277C45.2472 12.7413 45.174 11.7598 45.047 10.791C45.0226 10.6051 44.7802 10.469 44.6388 10.3099C44.5525 10.4875 44.4657 10.665 44.3755 10.8503C44.255 10.5374 44.1387 10.2381 44.0234 9.93869C43.9809 9.95074 43.9347 9.96279 43.8947 9.97476C43.8947 11.2183 43.8947 12.4618 43.8947 13.7054C43.8546 13.7039 43.8223 13.7026 43.7856 13.7012C43.7576 13.3551 43.73 13.0092 43.702 12.6631C43.1763 14.5703 43.4244 16.5223 43.3912 18.4527C43.3706 18.5318 43.3713 18.6106 43.3927 18.6892C43.3743 19.2646 43.3556 19.8399 43.3371 20.4152C43.2761 19.7587 43.2141 19.102 43.1541 18.4453C43.1541 16.3205 43.1541 14.1957 43.1541 12.0709C43.054 12.0636 42.9646 12.0566 42.8697 12.0493C42.8341 12.9476 42.7986 13.8458 42.7629 14.7441C42.7357 14.7416 42.7085 14.7392 42.6814 14.7365C42.6344 14.5306 42.5875 14.3249 42.5233 14.0434C42.4457 14.3406 42.3939 14.5447 42.3406 14.749C42.2977 14.7412 42.2534 14.7336 42.2134 14.7259C42.2134 12.9706 42.2134 11.2151 42.2134 9.45977C42.1534 9.44932 42.107 9.43912 42.0544 9.42867C41.7978 10.4471 41.5405 11.4657 41.284 12.4841C40.6627 10.8217 41.0891 8.96636 40.8437 7.13568C40.7216 7.66347 40.6168 8.10567 40.5145 8.54787C40.4544 8.53568 40.392 8.52331 40.3319 8.5112C40.3319 7.24542 40.3319 5.97965 40.3319 4.7138C40.2519 4.70755 40.1848 4.70131 40.11 4.69506C40.0635 5.20265 39.98 5.71023 39.9775 6.2182C39.9639 8.91956 39.9716 11.6211 39.9716 14.3225C39.9716 14.6956 39.9716 15.0689 39.9716 15.4422C39.9115 15.4394 39.8315 15.4368 39.7514 15.434C39.7514 13.0233 39.7514 10.6125 39.7514 8.20178C39.7314 8.20269 39.6958 8.20345 39.6655 8.20429C39.5762 10.6438 39.4895 13.0831 39.3965 15.6194C38.5012 14.9963 39.0465 13.9428 38.7409 13.2028C38.6219 13.6566 38.5109 14.0681 38.403 14.4795C38.3532 14.4723 38.3102 14.4652 38.2502 14.458C38.2502 13.0396 38.2502 11.6211 38.2502 10.2026C38.2102 10.1987 38.1687 10.1947 38.127 10.1908C37.9394 10.692 37.7498 11.193 37.4896 11.8991C37.4896 11.0335 37.4896 10.3732 37.4896 9.71288C36.6489 9.83231 37.1712 8.75448 36.9135 8.49504C36.7323 8.52522 36.5211 8.57065 36.5194 8.55929C36.4639 8.19956 36.4027 7.83534 36.3963 7.46989C36.3804 6.56331 36.3914 5.65589 36.3914 4.74886C36.3504 4.75145 36.3095 4.75397 36.2686 4.75671C36.1675 6.09108 36.0663 7.42538 35.9567 8.87117C35.8432 8.63277 35.7878 8.51638 35.6655 8.25946C35.566 11.0097 35.4724 13.5931 35.3789 16.1769C35.3462 16.175 35.3134 16.1728 35.2808 16.1708C35.2642 15.6853 35.2476 15.1996 35.231 14.7141C35.1923 14.7125 35.1534 14.711 35.1145 14.7094C35.0884 15.3842 35.0622 16.0588 35.036 16.7335C34.9984 16.7345 34.9608 16.7352 34.9232 16.7361C34.8956 16.1389 34.8672 15.5417 34.8397 14.9446C34.7892 14.9443 34.7474 14.944 34.6874 14.9438C34.6874 15.7756 34.6874 16.6073 34.6874 17.4391C34.6274 17.4382 34.5473 17.4371 34.4873 17.4361C34.4873 15.5489 34.4873 13.6619 34.4873 11.7749C34.4472 11.7774 34.411 11.7799 34.3752 11.7826C34.2738 13.2523 34.1701 14.7218 34.0687 16.1917C34.0451 16.1873 34.0204 16.183 33.9967 16.1785C33.6358 12.6177 33.2712 9.05713 32.9103 5.4963C32.8701 5.49653 32.826 5.49676 32.786 5.49707C32.786 8.89891 32.786 12.3008 32.786 15.7028C32.6459 15.5433 32.6203 15.3836 32.6179 15.2234C32.5531 10.9101 32.4927 6.59677 32.4269 2.28347C32.423 2.02732 32.3916 1.77176 32.3725 1.51599C32.2427 2.55708 32.2508 3.58956 32.2381 4.62166C32.2347 4.89954 32.1897 5.40865 32.1302 5.41734C31.4637 5.51588 31.6878 6.17544 31.6852 6.63281C31.6691 9.41724 31.6781 12.2018 31.6743 14.9863C31.6738 15.3005 31.6468 15.6146 31.6321 15.9288C31.4878 15.5036 31.5002 15.0911 31.4842 14.6807C31.4686 14.2816 31.4259 13.8845 31.3941 13.4864C31.3103 13.4978 31.2247 13.5092 31.1447 13.5206C31.1447 14.42 31.1447 15.3195 31.1447 16.454C30.0839 14.7219 30.8044 12.861 30.3841 11.2363C30.3841 13.6389 30.3841 16.0417 30.3841 18.4444C30.3641 18.9544 30.3412 19.4643 30.319 19.9743C30.2813 19.9741 30.2442 19.9741 30.2065 19.9741C30.1855 19.4644 30.1648 18.9546 30.1438 18.445C30.1489 17.0769 30.2486 15.699 30.0804 14.3489C30.0018 14.3514 29.9231 14.3539 29.8445 14.3564C29.8119 14.6535 29.7773 14.9505 29.7447 15.2476C29.6917 15.2422 29.6435 15.2369 29.5834 15.2316C29.5834 12.8835 29.5834 10.5352 29.5834 8.18706C29.5234 8.18645 29.4834 8.18585 29.4233 8.18516C29.4233 8.87308 29.4233 9.56098 29.4233 10.2489C29.3833 10.2502 29.3512 10.2514 29.3169 10.2526C29.2227 9.49437 29.1312 8.73603 29.037 7.97762C28.9714 7.98699 28.9029 7.99636 28.8429 8.00558C28.8429 8.99135 28.8429 9.97703 28.8429 10.9627C28.8028 10.9633 28.7676 10.9639 28.7323 10.9643C28.6316 8.31776 28.5283 5.67106 28.4277 3.02443C28.3734 3.02747 28.3225 3.03038 28.2624 3.03343C28.2624 5.84621 28.2624 8.65906 28.2624 11.472C27.9222 10.0944 28.3707 8.58895 27.773 7.26662C27.7162 9.55466 27.7255 11.8371 27.7084 14.1189C27.705 14.5545 27.598 14.9885 27.5388 15.4233C27.5067 15.1011 27.4747 14.7791 27.4426 14.457C26.8194 15.8478 26.9941 17.2901 26.979 18.7055C26.9011 18.6186 26.8214 18.5317 26.7413 18.4447C26.7413 15.6327 26.7413 12.8208 26.7413 10.0088C26.7013 10.0078 26.6388 10.0069 26.5855 10.0059C26.4959 11.16 26.4083 12.3141 26.3186 13.4683C26.2964 13.468 26.2751 13.4677 26.2528 13.4675C26.2192 12.9673 26.1859 12.4669 26.1521 11.9668C26.1196 11.9701 26.0874 11.9733 26.0547 11.9766C26.032 12.5744 26.0093 13.1721 25.9864 13.7699C25.9387 13.801 25.8911 13.8321 25.8434 13.8632C25.7804 13.6363 25.7189 13.4092 25.6559 13.1821C25.5834 13.2457 25.5002 13.3096 25.4402 13.3732C25.4402 13.9827 25.4402 14.5923 25.4402 15.2017C25.3801 15.2038 25.3348 15.2059 25.2829 15.208C25.1312 12.2327 24.9777 9.25726 24.8259 6.28192C24.7776 6.28474 24.7195 6.28756 24.6795 6.29031C24.6795 8.35428 24.6795 10.4183 24.6795 12.4822C24.6395 12.4829 24.5995 12.4836 24.5394 12.4841C24.5394 11.6334 24.5394 10.7826 24.5394 10.0869C24.2192 9.81371 24.019 9.62966 23.7588 9.41009C23.7588 11.4383 23.7588 13.429 23.7588 15.4199C23.5987 14.1821 23.4484 12.9443 23.2846 11.6236C23.0168 12.6615 23.4385 13.7835 22.798 14.6643C22.798 12.3546 22.798 10.0451 22.798 7.73541C22.6379 8.33095 22.7948 9.15765 22.5545 9.4837C22.0916 10.1115 22.1175 10.7755 22.0974 11.4876C22.0974 12.5182 22.0974 13.5488 22.0974 14.6092C21.0766 14.3242 21.7389 13.2453 21.3576 12.5971C21.3216 13.2761 21.2882 13.8753 21.2565 14.4744C21.1901 14.4708 21.1231 14.4672 21.0567 14.4636C20.9938 11.7899 20.9304 9.11612 20.8766 6.82519C20.546 9.72965 20.1736 12.9975 19.8015 16.2654C19.7564 16.2594 19.7111 16.2535 19.6659 16.2476C19.6223 15.7954 19.5786 15.3434 19.535 14.8912C19.4491 14.8894 19.3631 14.8876 19.2772 14.8858C19.2547 16.1603 19.2324 17.4348 19.21 18.7093C19.1658 18.7026 19.1216 18.6959 19.0775 18.6892C19.0571 18.6111 19.0367 18.533 19.0161 18.4548C19.0003 17.2563 19.1709 16.0363 18.9138 14.8661C18.8328 14.8691 18.7549 14.8721 18.6748 14.8751C18.6748 15.8262 18.6748 16.7774 18.6748 17.7284C18.6148 17.7265 18.5547 17.7245 18.4947 17.7226C18.4947 17.0305 18.4947 16.3382 18.4947 15.5552C18.2145 15.6906 18.0398 15.7831 17.8289 15.8895C17.7474 15.3706 17.6759 14.9276 17.6063 14.4844C17.5385 14.4924 17.4698 14.5004 17.4021 14.5084C17.3687 15.2349 17.332 15.9615 17.2877 16.9261C16.9703 15.7231 17.4339 14.6056 16.7333 13.7369C16.7333 14.3067 16.7333 14.8766 16.7333 15.4466C16.6933 15.4441 16.657 15.4418 16.6174 15.4393C16.5965 15.0058 16.577 14.5723 16.5562 14.1388C16.5003 14.1306 16.4451 14.1223 16.3892 14.1141C16.2357 15.1399 16.0827 16.1657 15.9255 17.217C15.7396 17.1171 15.5853 17.0341 15.3854 16.9265C15.3178 17.2846 15.2631 17.5746 15.2083 17.8647C15.166 17.7772 15.1238 17.6898 15.0814 17.6024C14.9135 17.6759 14.7454 17.7491 14.6653 17.7842C14.4807 17.485 14.3451 17.0505 14.1501 16.9974C13.8233 16.9084 13.7358 15.9847 13.2543 16.5534C12.9993 15.5035 12.5907 16.2354 12.379 16.5101C11.7668 17.3039 11.2341 17.8538 10.7488 17.9639C10.5665 17.7119 10.3782 17.4516 10.1466 17.1316C10.0433 17.3717 9.97224 17.5371 9.90106 17.7024C9.23294 17.2462 9.0454 17.2855 8.28483 17.624C7.80199 17.839 7.2663 18.043 6.77338 17.9818C5.65941 17.8435 4.56555 17.9184 3.46455 18.1095C3.15772 18.1626 2.83463 18.1485 2.5282 18.0862C1.88589 17.9556 1.26128 17.6935 0.611302 18.1201C0.464802 18.2162 0.200098 18.0126 0 17.947C0 18.1132 0 18.2795 0 18.4457C0 18.5289 0 18.6119 0 18.695C0 18.7781 0 18.8612 0 18.9444C0.920729 19.3359 1.82601 19.3451 2.7657 19.0177C3.17454 18.8752 3.63445 18.9497 4.06784 18.9925C4.26454 19.0118 4.54065 19.124 4.62601 19.3152C4.85152 19.8204 5.15415 19.6517 5.44173 19.5813C6.17602 19.4017 6.90529 19.1869 7.63814 18.9961C8.04301 18.8906 8.35019 18.9859 8.55426 19.5657C8.63518 19.7959 9.07445 20.0756 9.14384 20.0003C9.67394 19.4235 10.3378 20.1862 10.8665 19.6535C10.936 19.5835 11.2003 19.8515 11.2667 19.8939C11.5644 19.5368 11.8174 19.2335 12.2051 18.7683C12.4343 19.6544 12.6028 20.3057 12.7801 20.9912C12.8069 20.6955 12.834 20.3986 12.8813 19.8802C12.9796 20.2967 13.0242 20.485 13.0844 20.7399C13.3336 20.7121 13.6792 19.952 13.8576 21.1371C13.9337 20.5691 13.9683 20.3109 14.0028 20.0528C14.0518 20.0118 14.1007 19.9708 14.1497 19.9298C14.1593 20.0983 14.1713 20.2669 14.181 20.4354C14.2303 20.389 14.2714 20.3423 14.3314 20.2959C14.3314 20.0919 14.3314 19.8878 14.3314 19.6838C14.4315 20.2111 14.5303 20.7382 14.6846 21.5463C14.8205 20.9165 14.9019 20.5341 15.0392 19.897C15.0796 20.6641 15.1053 21.165 15.1277 21.5912C15.5027 21.0148 15.8627 20.4611 16.2802 19.8195C16.4177 20.5637 16.5415 21.2551 16.6693 21.9466C16.712 21.9373 16.7533 21.9279 16.7933 21.9187C16.7933 20.8494 16.7933 19.7803 16.7933 18.7111L16.8762 18.709L16.9587 18.7183C17.0651 19.7951 16.7532 20.9467 17.3737 21.9475C17.3737 21.2645 17.3737 20.5816 17.3737 19.8987C17.3937 19.8987 17.4224 19.8987 17.4474 19.8989C17.5428 20.9148 17.6374 21.9307 17.7411 23.0341C17.9436 22.1681 18.1127 21.4435 18.2821 20.7188C18.3727 21.7153 18.4659 22.7118 18.5565 23.7083C18.5951 23.708 18.6348 23.7077 18.6748 23.7074C18.6748 22.8614 18.6748 22.0152 18.6748 21.1692C18.7148 21.1676 18.7515 21.1661 18.7913 21.1645C18.897 22.0787 19.0014 22.9931 19.107 23.9074C19.2238 23.1337 19.1983 22.3643 19.2309 21.5991C19.258 20.9636 19.3525 20.3331 19.4173 19.7005C19.5212 20.6658 19.1153 21.7773 19.9064 22.573C20.0241 22.0293 20.1355 21.4925 20.2517 20.9558C20.3015 20.9663 20.3561 20.9769 20.3961 20.9874C20.3961 22.2431 20.3961 23.4987 20.3961 24.7544C20.9766 23.7965 20.5612 22.6758 20.8434 21.5471C20.9557 23.1648 21.0598 24.6575 21.1635 26.1502C21.2211 26.1457 21.2768 26.1412 21.3369 26.1368C21.3369 25.3158 21.3369 24.495 21.3369 23.6741C21.3969 23.6757 21.4569 23.6774 21.517 23.6789C21.517 24.7699 21.517 25.8609 21.517 26.9518C21.577 26.9512 21.6371 26.9504 21.6971 26.9498C21.6971 25.6927 21.6971 24.4355 21.6971 23.1783C21.7371 23.1777 21.7922 23.177 21.8412 23.1764C21.8632 23.6099 21.8839 24.0435 21.9059 24.477C22.0628 23.9983 22.0408 23.5186 22.0675 23.0436C22.1061 22.3561 22.1775 21.6723 22.2375 20.9871C22.2375 22.8004 22.2375 24.6137 22.2375 26.427C22.3176 26.4282 22.4053 26.4294 22.4893 26.4306C22.5275 23.772 22.5656 21.1135 22.6037 18.455C22.6278 18.1889 22.6516 17.9228 22.6755 17.6565C22.7104 17.6554 22.7451 17.6545 22.7799 17.6534C22.7984 17.9125 22.8167 18.1716 22.8351 18.4308C22.8784 21.0217 22.6346 23.6301 23.1333 26.1964C23.19 25.7926 23.1899 25.3892 23.1899 24.9857C23.1903 23.0767 23.1865 21.1676 23.195 19.2588C23.1965 18.8983 23.2472 18.5385 23.2753 18.1783C23.3105 18.2284 23.3498 18.2748 23.3797 18.33C23.3969 18.3619 23.3991 18.4081 23.408 18.4479C23.4567 19.7841 23.5054 21.1203 23.554 22.4568C23.6002 22.4564 23.6464 22.4558 23.6926 22.4554C23.7994 21.4534 23.9057 20.4515 24.0125 19.4496C24.0681 19.4559 24.1189 19.4621 24.179 19.4684C24.179 21.1936 24.179 22.9188 24.179 24.7678C24.3991 23.7082 24.5946 22.8028 24.7675 21.9849C25.065 23.2906 25.3755 24.6526 25.6858 26.0147C25.9184 25.5555 26.0023 25.1197 26.0115 24.6811C26.0329 23.6436 26.0037 22.6037 26.0313 21.5666C26.0474 20.9609 26.1405 20.3586 26.2005 19.7548C26.2005 22.6375 26.2005 25.5202 26.2005 28.4029C26.2406 28.4039 26.2967 28.4048 26.347 28.4058C26.4478 26.4088 26.544 24.4116 26.6447 22.4144C26.6917 22.4149 26.741 22.4152 26.781 22.4156C26.781 23.7439 26.781 25.0723 26.781 26.4005C26.8611 26.4004 26.9192 26.4002 26.9871 26.3999C27.0438 24.5931 27.1016 22.7864 27.1583 20.9796C27.3131 21.9657 27.4686 22.9517 27.6351 24.0129C27.7217 22.0956 27.8046 20.2657 27.8873 18.4358C27.9099 18.028 27.9326 17.6204 27.9552 17.2127C27.9913 17.2171 28.0294 17.2214 28.0655 17.2257C28.0836 17.6323 28.1021 18.039 28.1221 18.4455C28.1221 21.4454 28.1221 24.4451 28.1221 27.4449C28.3823 25.8517 28.2177 24.2372 28.6099 22.6276C28.925 21.3343 28.8132 19.8595 28.8914 18.4653L28.9452 18.4694L28.9992 18.4676C29.0126 19.7949 29.0114 21.123 29.0495 22.449C29.0593 22.792 29.1388 23.3686 29.2791 23.4234C29.7001 23.5885 29.5924 23.9651 29.5971 24.2987C29.6095 25.1715 29.6013 26.0449 29.6013 26.918C29.6473 26.9141 29.6933 26.9103 29.7392 26.9066C29.7774 26.7327 29.8152 26.5588 29.8533 26.3849C29.9169 26.3924 29.9835 26.3998 30.0436 26.4072C30.0436 28.5833 30.0436 30.7594 30.0436 32.9353C30.1436 32.9344 30.2437 32.9337 30.3238 32.933C30.3238 29.8607 30.3238 26.7885 30.3238 23.7163C30.4038 23.7183 30.4839 23.7205 30.564 23.7227C30.564 26.2013 30.564 28.68 30.564 31.1586C30.604 31.1627 30.6488 31.1669 30.6927 31.1712C30.8729 29.5765 31.0517 27.9819 31.2285 26.418C31.2718 26.5123 31.3289 26.6384 31.4882 26.9854C31.5897 25.7372 31.6735 24.7017 31.7577 23.6663C31.7806 23.666 31.8032 23.6655 31.8261 23.6652C31.8514 24.3427 31.8765 25.0201 31.9018 25.6975C32.4223 23.2978 32.1933 20.8628 32.2225 18.4443C32.2427 17.9326 32.263 17.4208 32.2832 16.909C32.3214 16.9099 32.3595 16.9106 32.3976 16.9115C32.4173 17.4249 32.437 17.9385 32.4567 18.452C32.4848 20.7895 32.5174 23.1272 32.5455 25.4649C32.6375 25.4645 32.7257 25.4639 32.8258 25.4636C32.8258 23.617 32.8258 21.7659 32.8258 19.913C32.8859 19.913 32.9459 19.913 33.0059 19.913C33.0059 22.0835 33.0059 24.2466 33.0059 26.4079C33.086 26.4105 33.1495 26.413 33.2212 26.4158C33.2967 25.1662 33.3678 23.917 33.4433 22.6676C33.4856 22.6685 33.5263 22.6693 33.5664 22.6704C33.5664 24.5793 33.5664 26.4882 33.5664 28.3973C33.6264 28.3984 33.6546 28.3996 33.6967 28.4006C33.7355 27.9919 33.7796 27.583 33.8185 27.1741C33.8728 27.1792 33.9267 27.1842 33.9867 27.1894C33.9867 28.3337 33.9867 29.4779 33.9867 30.6223C34.0067 30.6175 34.0314 30.6128 34.0553 30.608C34.1443 29.8678 34.2271 29.1276 34.3161 28.3874C34.3885 28.395 34.4671 28.4024 34.5272 28.4099C34.5272 29.1524 34.5272 29.8949 34.5272 30.6376C34.6072 30.6359 34.6673 30.6343 34.7273 30.6326C34.7273 29.5481 34.7273 28.4637 34.7273 27.1225C34.8674 27.5281 34.9199 27.6662 34.9791 27.8325C35.0519 27.6229 35.1096 27.4551 35.1779 27.2588C35.2427 27.4748 35.2944 27.6482 35.3465 27.8219C35.4168 27.8155 35.4871 27.8091 35.5574 27.8027C35.749 25.2297 35.5683 22.6351 35.6565 20.0561C35.7124 20.4931 35.8123 20.9293 35.8165 21.3672C35.8346 23.2258 35.8241 25.0851 35.8241 26.9441C36.4808 24.6448 36.0315 22.2416 36.2914 19.6474C36.5888 21.7174 36.1084 23.6255 36.7489 25.392C36.7489 23.0767 36.7489 20.7614 36.7489 18.4462C36.7489 17.4546 36.7489 16.4631 36.7489 15.4717C36.829 15.4733 36.909 15.4747 36.9891 15.4762C36.9891 16.4659 36.9891 17.4555 36.9891 18.4452C36.9891 21.0926 36.9891 23.7403 36.9891 26.3877C37.0492 26.3893 37.1279 26.3911 37.1987 26.3926C37.2771 25.0156 37.3574 23.6384 37.4356 22.2612C37.9047 23.3154 37.4295 24.5161 38.11 25.7596C38.11 24.3026 38.11 23.1232 38.11 21.9439C38.2701 22.9354 38.2512 23.9262 38.2964 24.9104C38.3396 25.8539 38.07 26.8578 38.6504 27.7327C38.6504 26.7906 38.6504 25.8484 38.6504 24.9061C39.2109 26.852 39.2438 28.8746 39.2331 30.9046C39.3008 30.9009 39.371 30.8974 39.4311 30.8937C39.4311 29.6499 39.4311 28.406 39.4311 26.9553C39.5912 27.3712 39.6754 27.5572 39.8225 27.9198C39.9014 27.5639 39.96 27.4167 39.9633 27.2675C40.0286 24.3288 40.0875 21.3899 40.1477 18.4509C40.2241 18.5318 40.2993 18.6126 40.3758 18.6936C40.4121 21.2796 40.1516 23.8837 40.7322 26.4464C40.7322 24.6094 40.7322 22.7722 40.7322 20.9353C40.7922 20.9353 40.8522 20.9354 40.9123 20.9357C40.9123 23.5237 40.9123 26.1119 40.9123 28.6999C40.9923 28.7033 41.0865 28.7067 41.1728 28.7101C41.2592 25.9464 41.3514 23.1828 41.4378 20.4194C41.5209 20.4221 41.5928 20.425 41.6929 20.428C41.6929 22.515 41.6929 24.6021 41.6929 26.6893C41.7129 26.6892 41.748 26.689 41.7779 26.6889C41.8535 26.3393 41.9275 25.9897 42.0031 25.6401C42.0737 25.6514 42.1333 25.6626 42.2133 25.6738C42.2133 26.9276 42.2133 28.1814 42.2133 29.4353C42.2734 29.4351 42.3534 29.435 42.4335 29.4348C42.4335 27.6765 42.4335 25.9179 42.4335 24.1595C42.4735 24.1582 42.5329 24.1569 42.5849 24.1555C42.6084 24.5864 42.6325 25.0174 42.6561 25.4483C42.7086 25.4479 42.7537 25.4475 42.8138 25.447C42.8138 24.6846 42.8138 23.9223 42.8138 23.1599C42.8738 23.1616 42.9339 23.1633 42.9939 23.1651C42.9939 25.9039 42.9939 28.6426 42.9939 31.3815C43.074 31.3818 43.1539 31.3821 43.2318 31.3823C43.2754 28.9101 43.3169 26.4379 43.3738 23.9662C43.3849 23.4824 43.4744 23.0019 43.5344 22.5198C43.5344 24.1576 43.5344 25.7954 43.5344 27.4331C43.5744 27.4343 43.6331 27.4355 43.684 27.4368C43.8737 26.015 44.062 24.5933 44.2665 23.061C44.2999 23.9079 44.3328 24.6651 44.3626 25.4221C44.419 25.4183 44.4751 25.4147 44.5351 25.411C44.5351 23.7493 44.5351 22.0876 44.5351 20.426C44.5752 20.4268 44.6352 20.4276 44.6952 20.4284C44.6952 23.1792 44.6952 25.93 44.6952 28.6807C44.7353 28.6846 44.7928 28.6886 44.8423 28.6925C44.9905 27.4252 45.1381 26.1579 45.2863 24.8907C45.3301 24.9001 45.3734 24.9095 45.4172 24.9189C45.4374 25.165 45.4573 25.4109 45.4775 25.657C45.5399 26.3319 45.5993 27.0068 45.6617 27.6816C45.7208 27.6765 45.7761 27.6713 45.8361 27.666C45.8361 26.3422 45.8361 25.0182 45.8361 23.6943C46.1763 26.4201 45.736 29.1943 46.3965 31.8914C46.3965 30.8824 46.3965 29.8736 46.3965 28.6915C46.5567 28.9867 46.6092 29.1008 46.7594 29.3952C46.7594 27.4608 46.7491 25.7295 46.7698 23.9989C46.775 23.5661 46.8869 23.1357 46.9491 22.7041C47.0449 24.8891 46.6146 27.1737 47.7104 29.3838C48.0376 26.3688 48.3382 23.542 48.6384 20.8347C48.6384 22.6919 48.6384 24.6939 48.6384 26.696C48.6784 26.6951 48.7037 26.6941 48.736 26.6933C48.8326 25.8548 48.9293 25.0165 49.0258 24.1781C49.5144 24.482 49.3662 25.0808 49.4022 25.5956C49.4452 26.2121 49.4952 26.8283 49.5403 27.4447C49.6322 27.4361 49.7192 27.4274 49.8193 27.4189C49.8193 25.5278 49.8193 23.6366 49.8193 21.7455C49.8794 21.7476 49.9393 21.7499 49.9995 21.7521C49.9995 24.6273 49.9995 27.5022 49.9995 30.3774C50.2196 29.6636 50.2844 28.9386 50.3483 28.2142C50.3727 27.9374 50.4024 27.6617 50.4307 27.3854C50.4665 27.436 50.5051 27.483 50.5358 27.5386C50.5535 27.5704 50.5566 27.6159 50.5666 27.6552C50.6891 28.8376 50.8114 30.0198 50.934 31.2021C50.9798 31.1967 51.0254 31.1911 51.0712 31.1857C51.0919 30.8298 51.1125 30.4741 51.1332 30.1183C51.1601 30.1183 51.187 30.1181 51.2138 30.1181C51.2722 30.4513 51.3332 30.7846 51.3915 31.1177C51.4671 31.114 51.5406 31.1101 51.6207 31.1064C51.6207 28.7233 51.6207 26.3403 51.6207 23.9569C51.6808 23.9576 51.7328 23.9581 51.7903 23.9585C51.8893 26.5286 51.9836 29.0985 52.0825 31.6686C52.1369 31.6673 52.2012 31.6661 52.2412 31.6648C52.2412 28.2556 52.2412 24.8463 52.2412 21.437C52.5014 22.9209 52.2972 24.4506 52.5987 25.9167C53.072 23.8586 52.3412 21.6226 53.362 19.4417C53.362 21.9299 53.362 24.1905 53.362 26.4511C53.4221 26.4519 53.4822 26.4527 53.5422 26.4535C53.5422 25.8495 53.5422 25.2457 53.5422 24.6418C53.5822 24.6381 53.6116 24.6345 53.647 24.6308C53.759 25.1634 53.8702 25.6959 53.9821 26.2284C54.0182 26.2217 54.0539 26.2149 54.09 26.2081C54.1141 25.5481 54.1382 24.8882 54.1624 24.2282C54.2464 24.229 54.3303 24.2298 54.4144 24.2309C54.5232 26.0487 54.6304 27.8667 54.7391 29.6846C54.7811 29.6841 54.8231 29.6836 54.8632 29.6833C54.8632 28.7467 54.8632 27.8101 54.8632 26.8733C54.9632 26.8631 55.0463 26.8528 55.1371 26.8426C55.1968 27.7834 55.2573 28.7241 55.317 29.6647C55.3507 29.6605 55.3847 29.6563 55.4184 29.652C55.5137 27.9052 55.6092 26.1584 55.7045 24.4117C55.717 24.4123 55.7294 24.4128 55.7418 24.4133C55.8145 25.6616 55.8915 26.91 55.9641 28.1584C56.056 28.1513 56.1441 28.1441 56.2442 28.1371C56.2442 26.6579 56.2442 25.1785 56.2442 23.6993C56.2842 23.7013 56.3443 23.7035 56.4043 23.7055C56.4043 24.805 56.4043 25.9044 56.4043 27.0038C56.4844 27.0129 56.5606 27.022 56.6381 27.0311C56.7503 25.4894 56.863 23.9479 56.9751 22.4062C57.014 22.4081 57.0532 22.4101 57.0921 22.4122C57.192 24.2383 57.2944 26.0647 57.3943 27.891C57.4239 27.8892 57.4452 27.8874 57.4852 27.8857C57.4852 24.7389 57.4852 21.5921 57.4852 18.4453C57.4852 17.8603 57.4829 17.2751 57.4828 16.6903C57.5622 17.2761 57.6402 17.8619 57.7196 18.4478C57.7171 19.5262 57.6979 20.6054 57.7162 21.6833C57.7345 22.7571 57.6232 23.8501 57.8155 25C58.0654 24.7413 58.2057 24.6002 58.4859 24.3071C58.4859 26.7473 58.4859 28.9435 58.4859 31.1399C58.546 31.1392 58.606 31.1386 58.6661 31.1379C58.6661 29.9016 58.6661 28.6652 58.6661 27.4288C58.7262 27.4259 58.7775 27.4231 58.8312 27.4203C58.9911 28.5144 59.153 29.6086 59.3129 30.7027C59.7454 29.0892 59.5385 27.4347 59.5759 25.8042C59.613 24.1826 59.5845 22.5583 59.5845 20.9352C59.6481 20.9363 59.712 20.9374 59.7756 20.9385C59.7756 23.0058 59.7662 25.0731 59.7832 27.1401C59.7869 27.5816 59.8843 28.0219 59.9397 28.4628C60.0162 28.4512 60.0872 28.4394 60.1672 28.4279C60.1672 26.8421 60.1672 25.2564 60.1672 23.6706C60.5074 26.1618 60.5074 26.1618 60.9078 26.738C60.9078 24.011 60.9078 21.3589 60.9078 18.7068L60.9977 18.6925L61.088 18.7029C61.088 22.0272 61.088 25.3517 61.088 28.676C61.188 28.6809 61.2957 28.6858 61.3987 28.6906C61.5682 26.3801 61.4014 24.0361 61.507 21.7193C61.5726 21.7219 61.6284 21.7244 61.7084 21.7271C61.7084 22.7172 61.7084 23.7073 61.7084 24.6975C61.7485 24.6938 61.8085 24.6899 61.8486 24.6861C61.8486 24.362 61.8486 24.038 61.8486 23.7138C62.369 23.6209 62.1932 24.1476 62.2158 24.4564C62.3129 25.7861 62.3933 27.1183 62.4856 28.5634C62.5985 27.946 62.6907 27.4481 62.7817 26.9501C62.948 28.1722 63.1148 29.3941 63.2637 30.4881C63.4112 29.3678 63.5732 28.139 63.7352 26.9101C63.798 26.5408 63.9004 26.1744 63.9155 25.8018C63.9444 25.0881 63.9285 24.3709 63.9285 23.6553C63.9943 23.6563 64.0504 23.6572 64.1304 23.6583C64.1304 24.5124 64.1304 25.3665 64.1304 26.2205C64.1505 26.2186 64.1845 26.2166 64.2121 26.2147C64.3053 25.3795 64.3907 24.5443 64.4907 23.7093C64.4907 26.2645 64.4907 28.8198 64.4907 31.375C64.5508 31.3749 64.6311 31.3747 64.703 31.3745C64.7817 28.9054 64.8588 26.4361 64.9375 23.9668C64.9893 23.9681 65.0312 23.9692 65.0912 23.9703C65.0912 26.0203 65.0912 28.0704 65.0912 30.1204C65.1113 30.1179 65.1504 30.1155 65.1802 30.113C65.246 28.9431 65.3117 27.7732 65.3775 26.6033C65.4349 26.6032 65.4924 26.6032 65.5498 26.603C65.6 26.8699 65.6501 27.1367 65.6704 27.2447C65.8213 26.6018 65.9895 25.886 66.1576 25.1701C66.1857 24.7483 66.2138 24.3267 66.2419 23.905C66.4545 25.9504 66.6122 27.9799 66.7738 30.0091C66.7779 30.061 66.8263 30.1066 66.8859 30.2114C66.9258 29.7951 66.9592 29.4554 66.9917 29.1158C67.0451 29.1206 67.0928 29.1253 67.1528 29.1301C67.1528 31.3008 67.1528 33.4716 67.1528 35.6423C67.3129 35.1519 67.3018 34.6606 67.3149 34.1702C67.3736 31.9805 67.4074 29.7884 67.5135 27.6025C67.5772 26.2911 67.7566 24.9896 67.8842 23.6836C67.9798 24.9352 68.0761 26.187 68.1717 27.4387C68.1989 27.4419 68.2336 27.4448 68.2537 27.448C68.2537 26.6859 68.2537 25.9237 68.2537 25.1616C68.3338 25.1602 68.3939 25.159 68.4739 25.1576C68.4739 26.4873 68.4739 27.8172 68.4739 29.147C68.5339 29.1437 68.594 29.1403 68.654 29.1369C68.654 27.2409 68.654 25.3449 68.654 23.4488C68.9943 24.7426 68.5739 26.1686 69.1744 27.6374C69.1744 24.419 69.1744 21.4361 69.1744 18.4531C69.1744 17.7089 69.1744 16.965 69.1744 16.2208C69.2545 16.2239 69.3345 16.2271 69.4146 16.2301C69.4146 16.9693 69.4146 17.7083 69.4146 18.4473C69.4146 21.358 69.4146 24.269 69.4146 27.1796C69.4546 27.1814 69.489 27.1833 69.5251 27.1851C69.5666 26.9072 69.6094 26.6293 69.6725 26.207C69.7601 26.5759 69.8077 26.7629 69.8521 26.9498C69.9053 26.9342 69.9551 26.9187 70.0151 26.9031C70.0151 25.5136 70.0151 24.1239 70.0151 22.7344C70.0351 22.7375 70.0587 22.7405 70.0818 22.7435C70.1803 24.7254 70.2774 26.7071 70.3757 28.689C70.4088 28.6846 70.4412 28.6804 70.4741 28.6762C70.5144 28.4947 70.5554 28.3131 70.5956 28.1316C70.6421 28.134 70.6956 28.1364 70.7357 28.139C70.7357 29.3379 70.7357 30.537 70.7357 31.736C70.7957 31.7422 70.8388 31.7485 70.8907 31.7549C70.9931 31.4684 71.0923 31.182 71.1945 30.8958C71.2361 30.9058 71.276 30.916 71.316 30.926C71.316 32.411 71.316 33.8959 71.316 35.3808C71.8964 30.9227 71.4944 26.4292 71.854 21.9649C71.9371 24.7016 72.0217 27.4383 72.1049 30.1751C72.8131 26.2967 72.5484 22.3622 72.5706 18.4462C72.5936 18.088 72.6171 17.7297 72.6401 17.3712C72.6737 17.3714 72.7104 17.3714 72.744 17.3714C72.7674 17.7292 72.7972 18.087 72.8172 18.4449C72.8172 22.5165 72.8172 26.5881 72.8172 30.6597C72.8772 30.661 72.9312 30.6622 72.9897 30.6633C73.0557 28.4446 73.1204 26.2259 73.1865 24.0072C73.5969 23.3754 73.2363 22.3297 73.8966 21.7808C74.0387 21.6625 73.9481 21.0556 73.9649 20.6738C74.1029 22.7575 74.0992 24.8291 74.1051 26.9006C74.1066 27.4385 74.1153 27.9793 74.1584 28.5137C74.3859 31.3391 74.6484 34.1601 74.8489 36.9887C74.923 38.033 74.8641 39.0939 74.8641 40.1473C74.9279 40.1471 74.979 40.1468 75.0591 40.1465C75.0591 38.3863 75.0591 36.6262 75.0591 34.8659C75.0791 34.8641 75.1257 34.8621 75.1607 34.8603C75.2151 35.0595 75.2679 35.2587 75.3223 35.4577C75.3636 35.4501 75.4041 35.4427 75.4453 35.435C75.5251 32.1909 75.6043 28.9466 75.684 25.7024C75.736 25.7039 75.7796 25.7052 75.8397 25.7065C75.8397 27.4452 75.8397 29.1838 75.8397 30.9225C75.8597 30.9187 75.8801 30.9147 75.9002 30.9111C76.1442 28.8446 76.3909 26.7782 76.6349 24.7116C76.6825 24.7166 76.7204 24.7218 76.7804 24.7269C76.7804 26.2895 76.7804 27.852 76.7804 29.4146C76.8405 29.4143 76.8805 29.4139 76.9406 29.4135C76.9406 26.1696 76.9406 22.9258 76.9406 19.6819C76.9805 19.6824 77.016 19.6829 77.0528 19.6833C77.1495 22.93 77.2461 26.1765 77.3427 29.4231C77.4022 29.4215 77.4609 29.4198 77.521 29.4182C77.521 27.989 77.521 26.56 77.521 24.9888C78.3416 26.0824 78.0139 27.303 78.0571 28.416C78.1021 29.5805 78.0654 30.7505 78.0654 31.9181C78.1314 31.9178 78.2015 31.9176 78.2616 31.9173C78.2616 30.2397 78.2616 28.5622 78.2616 26.8846C78.3216 26.8829 78.357 26.8812 78.4036 26.8795C78.5173 28.2935 78.6337 29.7073 78.7475 31.1213C78.8381 31.1114 78.9221 31.1015 79.0222 31.0916C79.0222 29.2866 79.0222 27.4815 79.0222 25.6764C79.0822 25.6787 79.1623 25.6812 79.2224 25.6835C79.2224 28.4276 79.2224 31.1717 79.2224 33.9158C79.2625 33.9152 79.2823 33.9147 79.3112 33.9142C79.3834 32.6476 79.4567 31.3812 79.529 30.1146C79.596 30.1207 79.6635 30.1268 79.7306 30.133C79.7534 30.5673 79.7766 31.0018 79.7995 31.4364C79.8418 31.4351 79.8841 31.434 79.9263 31.4328C79.9451 30.9121 79.966 30.3915 79.9848 29.8708C80.0369 29.8707 80.083 29.8705 80.1431 29.8702C80.1431 30.637 80.1431 31.4037 80.1431 32.1706C80.1631 32.1689 80.1932 32.1672 80.2193 32.1655C80.4362 29.8172 80.6537 27.4691 80.8708 25.1208C80.9483 25.1303 81.0238 25.1397 81.1039 25.1492C81.1039 25.8395 81.1039 26.5296 81.1039 27.2199C81.1639 27.2193 81.224 27.2185 81.284 27.218C81.284 25.2348 81.284 23.2518 81.284 21.2685C81.3441 22.1221 81.4369 22.9745 81.449 23.8291C81.4743 25.6176 81.4581 27.4073 81.4581 29.1966C81.5042 29.1963 81.551 29.196 81.5972 29.1957C81.699 27.2731 81.801 25.3506 81.9028 23.4281C81.9331 23.4298 81.9636 23.4316 81.9939 23.4334C82.0187 23.9543 82.0451 24.4753 82.0699 24.9962C82.1277 24.9945 82.1846 24.9929 82.2447 24.9913C82.2447 23.722 82.2447 22.4525 82.2447 21.1831C82.3047 21.1848 82.3806 21.1865 82.4493 21.1881C82.5184 22.8537 82.5868 24.5193 82.6558 26.1848C82.6873 26.1855 82.7185 26.1859 82.7499 26.1864C82.7719 25.7532 82.7936 25.3199 82.8155 24.8867C82.8464 24.8876 82.8772 24.8886 82.9081 24.8896C83.0078 27.2542 83.1075 29.619 83.2073 31.9837C83.8822 29.1068 83.6609 26.1339 83.746 23.1974C83.8126 23.2009 83.886 23.2045 83.9461 23.2081C83.9461 27.265 83.9461 31.322 83.9461 35.3788C84.1262 34.1766 83.983 32.9432 84.1453 31.7824C84.4924 29.3004 84.1336 26.7835 84.5991 24.2771C84.9263 22.5158 84.6494 20.5581 84.6423 18.6882C84.6649 18.61 84.6659 18.5313 84.6456 18.452C84.6678 17.863 84.6945 17.274 84.7166 16.6848C84.7653 16.6869 84.8068 16.6891 84.8668 16.6911C84.8668 17.0584 84.8668 17.4257 84.8668 17.7929C84.8668 21.5242 84.8616 25.2555 84.8654 28.9869C84.8657 29.3139 84.8552 29.9111 84.9181 29.9274C85.7628 30.1455 85.388 31.0144 85.4061 31.5808C85.4572 33.1865 85.4234 34.7968 85.4234 36.4054C85.4849 36.4069 85.5459 36.4085 85.6074 36.4099C85.6074 35.9757 85.6074 35.5413 85.6074 35.1071C85.6075 31.0438 85.6072 26.9805 85.6079 22.9172C85.6083 21.5905 85.6054 20.2636 85.6197 18.9371C85.6218 18.7401 85.7117 18.5449 85.7611 18.349C85.7807 18.3806 85.804 18.4123 85.8237 18.4441C85.6802 20.82 85.9877 23.1178 86.6082 25.3784C86.6082 24.7407 86.6082 24.103 86.6082 23.4652C86.6282 23.4686 86.6529 23.4719 86.6771 23.4753C86.7719 27.0993 86.8608 30.7232 86.9555 34.3472C87.015 34.3453 87.0685 34.3433 87.1286 34.3414C87.1286 30.1154 87.1286 25.8895 87.1286 21.6636C87.1886 21.6631 87.2487 21.6629 87.3087 21.6627C87.3087 26.4902 87.3087 31.3177 87.3087 36.1451C87.5288 34.6707 87.6465 33.1942 87.6717 31.7146C87.7101 29.4715 87.6711 27.2261 87.6898 24.9821C87.6934 24.5489 87.8081 24.1175 87.8718 23.6854C87.9928 25.0426 87.5288 26.5328 88.4696 27.8562C88.4696 26.9018 88.4696 26.0803 88.4696 25.259C88.5296 25.7007 88.6136 26.1418 88.619 26.5847C88.6379 28.1209 88.5995 29.6588 88.6352 31.194C88.6657 32.5114 88.7645 33.8258 88.8351 35.1416C88.9013 35.1378 88.97 35.1339 89.03 35.1303C89.03 30.4094 89.03 25.6887 89.03 20.968C89.0901 20.9686 89.1501 20.9694 89.1901 20.9701C89.1901 21.4213 89.1901 21.8726 89.1901 22.3237C89.1901 26.435 89.1853 30.5465 89.2007 34.6576C89.2029 35.2415 89.3133 35.8247 89.3732 36.4082C89.4373 36.4002 89.5018 36.3922 89.566 36.3844C89.566 35.9743 89.5661 35.5644 89.5662 35.1545C89.5668 31.9984 89.5461 28.8416 89.5849 25.6863C89.5931 25.0199 89.819 24.3581 89.9444 23.6942C90.0079 25.6867 90.0716 27.6791 90.1352 29.6716C90.1705 29.6661 90.2058 29.6608 90.2411 29.6554C90.3262 28.7731 90.4111 27.8909 90.4963 27.0085C90.5853 28.15 90.6743 29.2914 90.7634 30.4329C90.7883 30.4399 90.813 30.4469 90.8378 30.4537C90.8701 30.0893 90.9025 29.7249 90.9348 29.3603C90.9937 29.3613 91.0526 29.3621 91.1114 29.363C91.1881 30.2962 91.2648 31.2294 91.3414 32.1625C91.454 30.8344 91.4214 29.5154 91.4632 28.2004C91.5042 26.9062 91.2627 25.5728 91.7041 24.1976C92.3002 25.3611 91.8219 26.6171 92.1551 27.7136C92.2137 27.2657 92.1919 26.8181 92.2189 26.3757C92.258 25.7351 92.3325 25.0983 92.3919 24.4599C92.4579 27.7736 92.5238 31.0873 92.5899 34.401C92.5906 34.4425 92.5833 34.4877 92.5933 34.5249C92.6435 34.7118 92.6981 34.8968 92.7511 35.0823C92.8218 35.0684 92.8924 35.0546 92.9631 35.0406C92.9631 33.6001 92.9305 32.1577 92.9733 30.7195C93.0084 29.5436 92.7367 28.3256 93.3383 27.2053C93.5458 26.8189 93.5151 26.1716 93.5229 25.6417C93.5453 24.1053 93.526 22.5678 93.5384 21.031C93.5407 20.7501 93.618 20.4701 93.6592 20.1897C93.7432 20.2009 93.8339 20.2118 93.914 20.223C93.914 23.0192 93.914 25.8156 93.914 28.6118C93.9741 28.6103 94.0541 28.6089 94.1142 28.6074C94.1142 27.2154 94.1142 25.8234 94.1142 24.4313C94.1542 24.4284 94.2056 24.4255 94.2514 24.4225C94.4144 26.0741 94.5768 27.7256 94.7399 29.377C94.7851 29.3722 94.8347 29.3671 94.8748 29.3622C94.8748 26.4707 94.8748 23.5792 94.8748 20.6878C95.1751 23.327 94.7947 26.0189 95.4153 28.6299C95.4153 26.3983 95.4153 24.1668 95.4153 21.9352C95.4753 21.9273 95.5199 21.9194 95.5718 21.9117C95.8606 24.2944 96.1496 26.6772 96.4382 29.0599C96.514 29.0562 96.5901 29.0524 96.6658 29.0485C96.7773 27.5925 96.8936 26.1366 97.0051 24.6806C97.0405 24.6798 97.0766 24.6788 97.1166 24.6779C97.1166 26.0958 97.1166 27.5137 97.1166 28.9317C97.1767 28.9321 97.2559 28.9325 97.328 28.9328C97.4075 26.5957 97.4846 24.2587 97.5711 21.7165C97.6824 22.8494 97.7719 23.774 97.8628 24.6985C97.8825 24.8672 97.9016 25.0358 97.9214 25.2044C97.9544 25.1972 97.987 25.1902 98.0198 25.183C98.048 24.6894 98.0759 24.1957 98.104 23.7019C98.137 23.7063 98.17 23.7105 98.203 23.7146C98.346 26.0243 98.4888 28.3339 98.6319 30.6436C98.6807 30.6391 98.738 30.6347 98.778 30.6301C98.778 26.6485 98.778 22.6668 98.778 18.6851C98.798 18.6083 98.8134 18.5282 98.8112 18.4453L98.9048 18.4412L98.9981 18.4487C98.9981 22.4952 98.9981 26.5417 98.9981 30.588C99.0782 30.5883 99.1843 30.5885 99.2797 30.5885C99.3276 27.307 99.3731 24.0256 99.4209 20.7441C99.4492 20.7466 99.4762 20.7492 99.5045 20.7518C99.569 21.7662 99.633 22.7805 99.6975 23.7948C99.7593 23.8017 99.8208 23.8086 99.8826 23.8154C99.9994 23.5016 100.116 23.1879 100.233 22.8741C100.287 22.8757 100.341 22.8771 100.395 22.8787C100.454 24.5542 100.51 26.2299 100.569 27.9054C100.613 27.9045 100.659 27.9037 100.699 27.9029C100.699 26.0887 100.699 24.2746 100.699 22.4604C100.76 22.8912 100.848 23.319 100.877 23.7534C100.977 25.205 101.057 26.6591 101.143 28.1122C101.171 28.1092 101.199 28.1065 101.227 28.1036C101.303 26.4721 101.379 24.8407 101.455 23.2091C101.552 23.4577 101.65 23.7063 101.835 24.1764C101.835 23.4026 101.803 22.8718 101.851 22.3542C101.87 22.1507 102.07 21.9768 102.187 21.7894C102.289 23.3142 102.387 24.839 102.489 26.3639C102.554 26.3628 102.621 26.362 102.681 26.3609C102.681 24.2343 102.681 22.1075 102.681 19.9809C102.781 19.9817 102.861 19.9825 102.941 19.9834C102.941 22.7014 102.941 25.4194 102.941 28.1373C103.001 28.1417 103.054 28.1459 103.108 28.1504C103.21 27.152 103.314 26.1537 103.417 25.1507C103.492 25.258 103.562 25.3564 103.647 25.4777C103.738 23.9506 103.826 22.4731 103.914 20.9955C104.336 20.8834 104.266 21.3037 104.272 21.6025C104.293 22.6189 104.299 23.6358 104.311 24.6525C104.317 24.693 104.319 24.7369 104.332 24.773C104.345 24.8084 104.371 24.8359 104.391 24.8669C104.477 24.5597 104.63 24.2553 104.638 23.9445C104.668 22.7957 104.65 21.6446 104.65 20.4944C104.988 22.7911 104.623 25.1278 105.223 27.3903C105.223 25.831 105.223 24.2716 105.223 22.7122C105.283 22.7109 105.363 22.7096 105.423 22.7082C105.423 23.9236 105.423 25.139 105.423 26.3544C105.443 26.347 105.462 26.3398 105.48 26.3323C105.65 24.4639 105.82 22.5956 105.99 20.7271C106.043 20.7327 106.096 20.7383 106.15 20.744C106.244 21.7979 106.341 22.8518 106.436 23.9056C106.464 23.9046 106.484 23.9037 106.524 23.9028C106.524 22.0856 106.524 20.2685 106.524 18.4514C106.524 18.1274 106.542 17.8036 106.553 17.4797C106.62 17.8041 106.685 18.1286 106.752 18.453C106.736 18.5308 106.736 18.6085 106.752 18.6862C106.745 20.6828 106.596 22.6915 107.018 24.7456C107.092 24.4398 107.144 24.2301 107.194 24.0203C107.237 24.0299 107.285 24.0396 107.325 24.049C107.325 24.9923 107.325 25.9353 107.325 26.8785C107.385 26.8842 107.453 26.8898 107.518 26.8955C107.57 26.2595 107.634 25.6249 107.67 24.9875C107.743 23.7204 107.799 22.4518 107.862 21.1838C108.056 21.713 108.249 22.2422 108.545 23.0516C108.59 21.9405 108.624 21.0935 108.659 20.2463C108.972 21.8921 108.435 23.6756 109.299 25.1721C109.514 23.8456 109.729 22.5129 109.99 20.8997C110.135 21.8559 110.237 22.4976 110.334 23.1395C110.404 23.1292 110.467 23.119 110.547 23.1089C110.547 21.9948 110.547 20.8805 110.547 19.7664C110.547 19.7708 110.567 19.775 110.58 19.7795C110.726 21.5746 110.869 23.3698 111.015 25.1649C111.104 25.1637 111.192 25.1628 111.28 25.1617C111.401 23.6837 111.521 22.2058 111.64 20.7333C111.851 20.7568 111.96 20.7426 111.968 20.7738C112.102 21.2961 112.224 21.8241 112.407 22.5941C112.523 21.9916 112.599 21.6202 112.709 21.0468C112.843 23.2068 112.829 23.2068 113.61 23.1665C113.61 22.2981 113.61 21.4241 113.61 20.5498C113.65 20.5476 113.718 20.5451 113.775 20.5427C113.873 21.1205 113.969 21.6985 114.067 22.2763C114.165 22.6411 114.262 23.0059 114.384 23.4596C114.482 22.6889 114.562 22.0623 114.649 21.3795C114.872 21.7168 115.038 21.9687 115.205 22.2209C115.22 22.4511 115.234 22.6813 115.25 22.9115C115.298 22.9099 115.351 22.9082 115.391 22.9066C115.391 21.7636 115.391 20.6209 115.391 19.478C115.451 19.472 115.511 19.466 115.57 19.46C115.669 20.3674 115.768 21.2749 115.872 22.2346C115.933 22.0977 115.974 21.9988 116.022 21.9078C116.031 21.8907 116.075 21.9053 116.099 21.9053C116.154 22.1831 116.21 22.4638 116.266 22.7445C116.312 22.7374 116.358 22.7304 116.405 22.7234C116.513 21.8876 116.622 21.0517 116.731 20.216C116.889 21.1013 117.044 21.9866 117.202 22.8719C117.247 22.8709 117.293 22.87 117.333 22.8689C117.333 22.0367 117.333 21.2045 117.333 20.3724C117.413 20.3639 117.466 20.3554 117.531 20.347C117.746 21.1238 117.964 21.9008 118.18 22.681C119.033 21.9993 118.256 20.5384 118.945 19.7008C118.986 20.3456 119.025 20.9577 119.063 21.5698C119.138 21.5655 119.213 21.5611 119.288 21.5569C119.334 20.9557 119.381 20.3546 119.414 19.9101C119.645 20.6482 119.901 21.4663 120.204 22.4347C120.453 21.7428 120.633 21.2405 120.888 20.5316C121.007 21.052 121.075 21.3473 121.196 21.8721C121.241 21.1286 121.269 20.6615 121.313 19.92C121.423 20.3962 121.467 20.5869 121.511 20.7806C121.646 20.6803 121.771 20.5867 121.908 20.485C121.995 20.8863 122.068 21.2229 122.171 21.6986C122.472 21.3957 122.691 21.1759 122.894 20.9712C122.928 21.0946 122.983 21.2964 123.068 21.6109C123.413 21.1301 123.699 20.7316 123.961 20.3656C124.149 20.7445 124.33 21.1101 124.511 21.4755C124.567 21.4626 124.618 21.4497 124.678 21.437C124.678 20.8027 124.678 20.1683 124.678 19.5342C124.718 19.5395 124.755 19.545 124.794 19.5503C124.83 20.0676 124.866 20.5849 124.908 21.1893C125.516 20.4523 125.889 19.7214 125.799 18.7123L125.871 18.7048L125.944 18.7105C126.074 19.6613 126.203 20.612 126.325 21.5075C126.893 21.5222 127.093 21.2401 127.227 20.6649C127.322 20.2535 127.656 19.9391 127.92 19.5248C128.061 20.2371 128.175 20.8145 128.307 21.4827C129.19 20.8911 129.658 20.1004 129.732 18.9291C129.958 19.7541 130.183 20.5793 130.419 21.4437C130.473 21.1379 130.519 20.8809 130.568 20.6054C130.726 20.7315 130.826 20.8126 130.868 20.8463C131.185 20.3173 131.475 19.8326 131.852 19.2023C132.024 19.991 132.159 20.6126 132.325 21.3731C132.557 20.9445 132.744 20.5808 132.944 20.2312C133.295 19.621 133.817 19.6675 134.065 20.3342C134.167 20.6103 134.238 20.907 134.296 21.1025C134.533 20.6182 134.763 20.147 134.994 19.6757C135.339 19.7361 135.685 19.7964 136.084 19.866C136.116 20.0052 136.168 20.2354 136.231 20.5153C136.409 20.1547 136.569 19.8306 136.792 19.3784C137.223 20.4339 137.794 19.9149 138.324 19.7986C138.567 19.7453 138.838 19.3377 139.011 19.9532C139.035 20.0362 139.274 20.0844 139.387 20.0385C139.812 19.8673 140.226 19.6501 140.691 19.4277C140.776 19.6453 140.86 19.8567 140.939 20.06C141.688 19.9697 142.36 18.9735 143.186 19.7416C143.252 19.8027 143.384 19.8269 143.452 19.7814C144.324 19.2005 145.295 19.474 146.174 19.4701C148.172 19.4615 150.17 18.9121 152.17 19.3681C152.259 19.3886 152.355 19.3578 152.448 19.3488C153.348 19.2611 154.247 19.1751 155.147 19.0842C155.666 19.0318 156.185 18.9717 156.704 18.915C157.44 18.9374 158.175 18.9813 158.911 18.9786C161.889 18.9675 164.867 18.947 167.845 18.9137C168.117 18.9106 168.389 18.7926 168.661 18.7279C169.012 18.7998 169.354 18.8716 169.714 18.9435C169.714 18.7772 169.714 18.611 169.714 18.4447C169.374 18.3674 169.052 18.2276 168.719 18.2232Z" fill="#DEC4A6"/>
</svg>
