<svg width="243" height="24" viewBox="0 0 243 24" fill="none" xmlns="http://www.w3.org/2000/svg">
<path fill-rule="evenodd" clip-rule="evenodd" d="M241.36 10.8938C239.136 10.8815 236.912 10.8914 234.688 10.8933C232.171 10.8882 229.653 10.8829 227.136 10.8777C225.445 10.8502 223.754 10.8225 222.063 10.7973C222.03 10.7967 221.994 10.826 221.96 10.8415C221.808 10.8398 221.655 10.8382 221.503 10.8366C221.451 10.798 221.4 10.7265 221.346 10.7257C218.834 10.6885 216.321 10.6608 213.809 10.6243C212.392 10.6038 210.976 10.5789 209.561 10.536C209.204 10.5252 208.685 10.329 208.528 10.4034C207.507 10.8876 206.712 10.5388 205.938 10.2598C205.575 10.4119 205.248 10.549 204.953 10.6727C204.27 10.4842 203.652 10.3137 203.057 10.1495C202.774 10.3506 202.514 10.5352 202.161 10.7859C201.162 9.86259 200.143 10.3871 199.102 10.714C198.899 10.5108 198.735 10.3469 198.544 10.1555C197.763 10.2913 197.013 10.4218 196.384 10.5313C196.09 10.3711 195.866 10.2493 195.642 10.1275C195.243 10.6311 194.304 9.85881 193.865 10.345C193.859 10.3522 193.357 10.1674 193.097 10.175C192.811 10.1832 192.536 10.3107 192.206 10.3997C192.112 10.2043 192.025 10.0239 191.951 9.87134C191.253 9.78628 190.77 9.82788 190.695 10.2433C190.118 9.99208 190.097 10.5491 189.533 10.4429C189.452 10.3306 189.349 10.1798 189.241 10.0288C189.19 10.038 189.125 10.0471 189.096 10.0563C189.096 10.3779 189.096 10.6995 189.096 11.0211C189.01 11.025 188.937 11.0241 188.861 11.0185C188.818 10.5599 188.772 10.1013 188.73 9.64281C187.936 10.0622 187.235 10.3141 186.226 10.0057C186.104 9.81025 185.961 9.58208 185.837 9.38339C185.301 9.69238 184.795 9.98388 184.361 10.2347C183.938 9.96365 183.503 9.68856 183.09 9.42353C182.625 9.70314 182.31 9.90402 181.766 10.218C181.766 10.3672 181.766 10.6897 181.766 11.0121C181.708 11.0162 181.644 11.017 181.581 11.0146C181.481 10.4721 181.384 9.92971 181.254 9.22675C180.954 9.6049 180.795 9.80692 180.597 10.0556C180.372 9.69634 180.197 9.41592 180.021 9.13554C179.931 9.14674 179.841 9.15785 179.751 9.16906C179.692 9.39213 179.633 9.61506 179.542 9.95818C179.406 9.71129 179.347 9.60244 179.281 9.48321C179.096 9.56717 178.954 9.63152 178.659 9.76524C178.604 9.22488 178.56 8.79961 178.516 8.3743C178.457 8.37371 178.398 8.37325 178.339 8.3727C178.192 8.86768 178.046 9.36261 177.844 10.0439C177.544 9.56723 177.345 9.26028 177.151 8.95325C177.088 8.95694 177.041 8.96076 176.955 8.96445C176.955 9.34671 176.955 9.72892 176.955 10.1111C176.898 10.1128 176.851 10.1144 176.796 10.1159C176.697 9.80606 176.601 9.49615 176.502 9.18634C176.432 9.19463 176.363 9.20283 176.293 9.21116C176.157 9.61406 176.022 10.017 175.886 10.4199C175.773 9.54139 176.128 8.64051 175.46 7.72109C175.34 8.46387 175.23 9.14291 175.121 9.822C175.03 9.81922 174.939 9.81649 174.848 9.81367C174.702 9.53133 174.551 9.24894 174.404 8.96651C174.32 8.97184 174.235 8.97716 174.149 8.9824C174.149 9.37067 174.149 9.75904 174.149 10.1473C174.035 10.1461 173.922 10.1449 173.806 10.1438C173.761 9.69015 173.719 9.2365 173.671 8.75196C173.49 8.84076 173.387 8.89206 173.261 8.95416C173.111 8.24651 172.969 7.57166 172.794 6.74586C172.651 7.58715 172.536 8.27142 172.42 8.95584C172.313 9.29896 172.206 9.64217 172.099 9.98533C172.028 9.98073 171.958 9.97618 171.887 9.97157C171.851 9.63666 171.816 9.30183 171.771 8.88189C171.49 9.35249 171.286 9.71626 171.057 10.08C171.057 9.65926 171.057 9.23855 171.057 8.75073C170.169 8.91488 170.222 8.59554 170.216 8.32618C170.202 7.70856 170.211 7.09089 170.211 6.47313C169.804 7.4993 169.602 8.5231 169.413 9.54754C169.371 9.77744 169.371 10.0097 169.351 10.2409C169.317 10.2389 169.283 10.2371 169.25 10.2351C169.138 9.80191 169.026 9.36877 168.914 8.93562C168.823 8.94218 168.732 8.94882 168.641 8.95543C168.611 9.24242 168.582 9.52932 168.552 9.8163C168.494 9.81703 168.435 9.81781 168.376 9.81854C168.34 9.35218 168.303 8.88573 168.265 8.41936C168.142 8.42178 168.019 8.42419 167.896 8.4266C167.832 8.83283 167.769 9.23905 167.704 9.64523C167.581 9.64213 167.449 9.6389 167.335 9.63575C167.335 8.43116 167.335 7.22644 167.335 6.02185C167.22 6.0229 167.139 6.02395 167.042 6.025C166.85 7.5363 166.663 9.04769 166.471 10.5591C166.375 10.5563 166.275 10.5536 166.189 10.5508C166.189 10.3565 166.189 10.1622 166.189 9.96794C166.189 9.77057 166.189 9.57324 166.189 9.38256C165.073 9.26374 164.581 8.97046 164.563 8.41589C164.543 7.75804 164.555 7.09974 164.555 6.44165C163.901 7.40841 164.19 8.50105 162.899 9.34133C162.782 9.05839 162.664 8.77537 162.546 8.48938C162.381 8.64639 162.208 8.80517 162.04 8.9639C161.965 8.95725 161.894 8.9506 161.808 8.94395C161.808 8.06325 161.808 7.18252 161.808 6.25189C161.436 7.10156 161.066 7.87833 160.631 8.82463C160.527 8.48411 160.479 8.32086 160.399 8.05811C159.983 8.46042 159.652 8.78244 159.2 9.22005C159.07 8.26286 159.259 7.43934 159.065 6.63601C158.941 6.63815 158.817 6.6403 158.693 6.64244C158.649 7.09336 158.602 7.54431 158.558 7.99528C158.478 7.99177 158.401 7.98826 158.315 7.98471C158.315 7.51885 158.315 7.05294 158.315 6.58699C158.286 6.58603 158.233 6.58508 158.19 6.58412C158.098 6.86614 158.008 7.14825 157.883 7.53169C157.6 7.32197 157.491 7.24052 157.435 7.19919C157.145 7.82142 156.854 8.4492 156.527 9.14961C154.992 7.74578 156.044 6.22336 155.487 4.83485C155.359 4.83881 155.223 4.84273 155.108 4.84669C155.108 5.79505 155.108 6.74349 155.108 7.69193C155.022 7.6897 154.974 7.68747 154.91 7.68533C154.853 7.32366 154.793 6.96205 154.736 6.60034C154.596 6.6043 154.455 6.60818 154.315 6.61209C154.13 7.93364 153.945 9.25527 153.76 10.5768C153.672 10.2669 153.515 9.95745 153.507 9.647C153.478 8.42787 153.5 7.20853 153.5 5.98913C153.405 5.98941 153.304 5.98959 153.218 5.98987C153.218 7.36262 153.218 8.73542 153.218 10.1082C153.132 10.1086 153.058 10.1089 152.981 10.1093C152.848 8.44428 152.712 6.77944 152.58 5.11445C152.53 5.11523 152.48 5.11596 152.43 5.11673C152.349 6.09907 152.268 7.08142 152.187 8.06381C152.118 8.11274 152.049 8.1618 151.98 8.21082C151.957 8.19169 151.913 8.1726 151.913 8.15342C151.909 7.62381 151.91 7.09422 151.91 6.56466C151.795 6.56298 151.679 6.56129 151.564 6.5596C151.485 7.06647 151.416 7.57384 151.326 8.08011C151.169 8.95789 150.999 9.83498 150.835 10.7124C150.811 9.1322 150.787 7.55206 150.764 5.97191C150.612 5.96923 150.461 5.96667 150.309 5.96394C150.179 7.08438 150.306 8.21638 150.222 9.33891C150.124 9.33682 150.04 9.33477 149.925 9.33272C149.925 7.3833 149.925 5.43389 149.925 3.48442C149.61 4.86647 149.53 6.24801 149.43 7.62901C149.409 7.91609 149.267 8.20048 149.181 8.48615C149.181 8.14517 149.181 7.80419 149.181 7.46326C149.066 7.46007 148.942 7.45675 148.824 7.45356C148.669 7.94416 148.513 8.43467 148.358 8.92532C148.271 8.68931 148.148 8.45545 148.103 8.21712C147.962 7.47101 147.844 6.72312 147.722 5.97601C147.676 5.97728 147.635 5.97875 147.577 5.98007C147.577 7.66428 147.577 9.34857 147.577 11.0328C147.491 11.0331 147.357 11.0334 147.243 11.0337C147.254 8.9316 147.279 6.82946 147.266 4.72727C147.264 4.45527 147.078 4.18355 146.977 3.91169C146.745 5.12193 146.763 6.30824 146.733 7.49415C146.726 7.77959 146.566 8.06375 146.476 8.34851C146.374 7.95263 146.273 7.55666 146.171 7.16078C146.106 7.16625 146.04 7.17176 145.975 7.17718C145.871 7.71106 145.768 8.24504 145.664 8.77883C145.576 8.49399 145.436 8.21037 145.413 7.92393C145.372 7.4193 145.401 6.91288 145.401 6.4072C145.282 6.40547 145.162 6.40369 145.043 6.40201C144.642 7.77927 145.006 9.18652 144.695 10.5698C144.564 8.40164 144.433 6.23347 144.302 4.06527C144.051 5.38016 144.066 6.69186 144.039 8.00343C144.033 8.31903 143.886 8.63382 143.804 8.94901C143.707 8.69683 143.546 8.44624 143.526 8.19224C143.483 7.64181 143.513 7.08962 143.513 6.5381C143.418 6.53819 143.323 6.53819 143.228 6.53828C143.228 6.89867 143.249 7.25979 143.205 7.6184C143.198 7.66965 142.878 7.70911 142.703 7.75403C142.613 7.46855 142.459 7.18393 142.447 6.89744C142.412 6.09156 142.435 5.28485 142.435 4.47847C142.369 4.47833 142.304 4.47824 142.238 4.47815C142.095 6.05524 141.951 7.63234 141.808 9.20948C141.744 9.20835 141.68 9.20715 141.617 9.20601C141.617 8.96194 141.617 8.71788 141.617 8.4739C141.616 6.56325 141.622 4.65269 141.607 2.74213C141.606 2.50859 141.491 2.27536 141.43 2.042C141.313 2.05097 141.192 2.06 141.078 2.06902C141.078 2.3119 141.078 2.55484 141.078 2.79777C141.078 4.28657 141.092 5.77536 141.067 7.26402C141.063 7.52394 140.902 7.7831 140.812 8.04262C140.743 6.94177 140.675 5.84092 140.606 4.74012C140.517 4.74071 140.429 4.74126 140.34 4.74186C140.228 6.04139 140.116 7.34098 140.003 8.64043C139.912 8.35649 139.747 8.07277 139.743 7.78843C139.719 5.951 139.732 4.11343 139.732 2.27591C139.732 1.96805 139.732 1.6602 139.732 1.35234C139.388 2.70933 139.255 4.06481 139.204 5.42121C139.154 6.77902 139.192 8.13784 139.192 9.49615C139.131 9.49538 139.069 9.49465 139.008 9.49383C138.871 6.9754 138.733 4.45692 138.597 1.93848C138.518 1.93839 138.443 1.93825 138.357 1.93812C138.357 4.05999 138.357 6.18181 138.357 8.30368C138.3 8.303 138.241 8.30236 138.181 8.30172C138.04 7.02483 137.899 5.74789 137.757 4.47104C137.734 4.47031 137.711 4.46963 137.687 4.46895C137.563 5.40677 137.439 6.34464 137.315 7.28256C136.791 5.90193 137.423 4.48876 136.62 3.13223C136.529 3.23014 136.505 3.32664 136.499 3.42337C136.405 4.98215 136.319 6.54107 136.209 8.09939C136.195 8.28637 136.038 8.47039 135.952 8.65582C135.952 6.82167 135.952 4.98752 135.952 3.15342C135.866 3.15369 135.776 3.15397 135.686 3.15424C135.686 3.92067 135.741 4.68828 135.678 5.4532C135.616 6.22441 135.981 7.02242 135.15 7.7616C135.15 6.4606 135.15 5.1597 135.15 3.85866C135.093 3.85847 135.045 3.85816 134.995 3.85793C134.864 4.70765 134.734 5.5574 134.602 6.40711C134.131 5.41935 134.692 4.3863 133.747 3.42874C133.747 5.14443 133.747 6.86012 133.747 8.57581C133.575 8.57695 133.44 8.57805 133.289 8.57919C133.212 6.62476 133.298 4.66604 133.097 2.71215C132.877 3.94618 132.808 5.17947 132.71 6.41208C132.688 6.69938 132.545 6.98401 132.459 7.26986C132.459 6.48867 132.459 5.70744 132.459 4.92629C132.344 4.92761 132.23 4.92893 132.115 4.9303C132.115 5.95729 132.115 6.98428 132.115 8.0099C130.912 6.77971 131.578 5.44372 131.143 4.16811C130.639 6.20473 130.967 8.25626 130.658 10.2968C130.547 8.4991 130.43 6.70152 130.318 4.90391C130.212 4.90437 130.111 4.90488 129.996 4.90538C129.996 5.71094 129.996 6.51646 129.996 7.32203C129.767 7.07718 129.75 6.83493 129.75 6.5926C129.749 5.17802 129.768 3.76325 129.738 2.34881C129.731 2.0082 129.57 1.66859 129.479 1.32847C129.421 1.33371 129.363 1.33895 129.304 1.34423C129.195 3.13779 129.085 4.93135 128.976 6.725C128.91 6.72445 128.844 6.72398 128.777 6.72348C128.65 5.42454 128.522 4.1256 128.394 2.8267C128.308 2.82725 128.221 2.82775 128.135 2.82825C128.135 3.06116 128.135 3.29415 128.135 3.52697C128.135 5.66132 128.147 7.79559 128.125 9.9299C128.122 10.2969 127.979 10.6635 127.9 11.0302C127.869 11.0771 127.868 11.1244 127.897 11.1718C127.855 11.2452 127.816 11.3186 127.7 11.5253C127.626 11.2593 127.591 11.1428 127.562 11.0262C127.562 8.79912 127.562 6.57196 127.562 4.34489C127.477 4.34457 127.362 4.34425 127.276 4.34393C127.276 5.42496 127.276 6.50598 127.276 7.58705C126.875 6.09734 127.389 4.58417 126.602 3.11442C126.511 4.57178 126.525 6.02836 126.5 7.48472C126.495 7.76824 126.338 8.05095 126.251 8.33411C126.25 7.66323 126.307 6.99062 126.235 6.3221C126.08 4.89508 125.86 3.4703 125.666 2.04456C125.48 2.16028 125.442 2.276 125.439 2.39214C125.358 5.31757 125.281 8.24299 125.203 11.1685C125.17 11.381 125.137 11.5935 125.104 11.8058C125.054 11.8056 125.008 11.8053 124.958 11.805C124.927 11.5454 124.9 11.2858 124.871 11.0261C124.871 9.34557 124.871 7.66506 124.871 5.98458C124.756 5.98513 124.67 5.98567 124.585 5.98618C124.585 6.32287 124.585 6.65943 124.585 6.99608C124.47 6.99512 124.384 6.99421 124.287 6.9933C124.194 4.80637 124.098 2.6194 124.004 0.432424C123.941 0.432743 123.869 0.433057 123.811 0.43333C123.811 2.82938 123.811 5.22539 123.811 7.6214C123.726 7.62163 123.64 7.62177 123.554 7.622C123.554 5.8233 123.554 4.0245 123.554 2.22566C123.468 2.22483 123.382 2.22406 123.296 2.22324C123.296 2.68227 123.296 3.14129 123.296 3.72593C123.038 3.51462 122.949 3.42583 122.846 3.33698C122.747 3.33589 122.638 3.33484 122.552 3.33379C122.552 4.25052 122.552 5.1673 122.552 6.08413C122.466 6.08025 122.391 6.07643 122.315 6.07256C122.186 5.62296 122.047 5.17341 121.919 4.72381C121.828 4.72801 121.75 4.73211 121.635 4.73616C121.635 5.84457 121.635 6.95297 121.635 8.06138C121.549 8.06152 121.464 8.06157 121.349 8.06166C121.349 5.97743 121.349 3.8931 121.349 1.80878C121.263 1.80987 121.148 1.81091 121.062 1.81191C121.062 2.19791 121.062 2.5839 121.062 2.96994C121.005 2.96843 120.979 2.96684 120.938 2.9652C120.792 2.11936 120.645 1.27357 120.499 0.427863C120.437 0.428501 120.375 0.429143 120.313 0.429826C120.313 0.673988 120.313 0.918331 120.313 1.16263C120.312 3.17397 120.322 5.18544 120.3 7.19673C120.296 7.47999 120.131 7.76264 120.041 8.04558C120.037 7.30361 120.034 6.56165 120.03 5.81974C119.905 5.81778 119.78 5.81582 119.655 5.81386C119.497 6.51755 119.341 7.22116 119.182 7.92475C119.111 7.9222 119.029 7.91964 118.972 7.91709C118.972 7.20525 118.972 6.49345 118.972 5.78156C118.915 5.77609 118.862 5.77062 118.809 5.7652C118.734 5.8879 118.657 6.01055 118.582 6.1332C118.515 6.13389 118.448 6.13457 118.382 6.13525C118.191 4.09015 117.999 2.0451 117.807 0C117.732 2.26438 117.735 4.52235 116.59 6.68854C116.559 6.56211 116.509 6.38575 116.43 6.06682C116.262 6.77383 116.138 7.32517 115.994 7.87655C115.994 5.70616 115.994 3.5359 115.994 1.3656C115.851 1.36615 115.708 1.36665 115.536 1.36715C115.536 3.34883 115.536 5.33046 115.536 7.31205C115.422 7.31196 115.307 7.31182 115.164 7.31164C115.164 6.1055 115.164 4.89936 115.164 3.69317C114.82 5.19596 115.232 6.73516 114.195 8.14358C114.067 6.09151 113.942 3.99238 113.812 1.90364C113.721 1.90364 113.618 1.90364 113.532 1.90364C113.532 3.5493 113.532 5.20089 113.532 6.84988C113.446 6.84942 113.36 6.84905 113.245 6.84864C113.245 6.25535 113.245 5.66192 113.245 5.06863C113.217 5.06976 113.166 5.07095 113.124 5.07208C112.981 5.91875 112.84 6.76531 112.697 7.61192C112.486 7.36421 112.518 7.11996 112.478 6.87908C112.44 6.64229 112.331 6.40898 112.253 6.1742C112.152 6.17867 112.051 6.18318 111.95 6.1876C111.814 6.42729 111.677 6.66709 111.541 6.90678C111.454 6.90569 111.367 6.90451 111.28 6.90346C111.209 6.27768 111.138 5.65185 111.068 5.02616C110.865 5.93642 110.884 6.84509 110.854 7.75317C110.844 8.03975 110.701 8.32496 110.619 8.61072C110.522 6.06149 110.425 3.51226 110.323 0.963027C110.318 0.839056 110.273 0.715629 110.243 0.591976C110.172 0.59471 110.096 0.59735 110.038 0.60013C110.038 2.83367 110.038 5.06725 110.038 7.30084C109.981 7.3007 109.934 7.30061 109.886 7.30047C109.789 5.45634 109.694 3.61217 109.597 1.76795C109.495 1.76886 109.38 1.76982 109.294 1.77069C109.294 4.85772 109.294 7.94475 109.294 11.0319C109.265 11.0785 109.26 11.1251 109.291 11.1714C109.25 11.2483 109.206 11.3252 109.091 11.5417C109.015 11.2663 108.98 11.1462 108.947 11.0262C108.958 10.4061 108.975 9.78591 108.977 9.16574C108.982 8.24764 108.925 7.32844 108.988 6.41166C109.052 5.47543 107.699 4.74837 107.804 3.81359C107.809 3.77068 107.633 3.72125 107.347 3.58661C107.347 5.09623 107.347 6.50643 107.347 7.91655C107.29 7.91609 107.202 7.91564 107.127 7.91528C106.991 6.11502 106.857 4.31477 106.721 2.51452C106.696 2.5152 106.672 2.51575 106.647 2.51643C106.505 4.05853 106.365 5.60059 106.223 7.14279C106.139 7.14128 106.058 7.13982 105.972 7.13823C105.972 4.95098 105.972 2.76374 105.972 0.576487C105.915 0.576305 105.862 0.576168 105.808 0.576031C105.665 2.02396 105.522 3.47197 105.366 5.0534C105.204 4.35882 105.074 3.8054 104.945 3.25201C104.844 2.66118 105.171 2.03476 104.34 1.32765C104.34 3.1223 104.34 4.75324 104.34 6.3841C104.254 6.38328 104.169 6.3825 104.111 6.38173C104.111 4.80058 104.111 3.21943 104.111 1.63823C104.054 1.6375 104.009 1.63678 103.96 1.63596C103.82 2.58669 103.677 3.53736 103.536 4.48803C103.493 4.48972 103.449 4.49145 103.406 4.49309C103.343 4.28515 103.28 4.07712 103.217 3.86913C103.002 4.3514 103.297 4.91262 102.933 5.26859C102.389 5.80142 102.53 6.31012 102.509 6.83275C102.467 7.85067 102.514 8.86968 102.491 9.88806C102.486 10.1537 102.361 10.4187 102.291 10.6841C102.271 9.96607 102.282 9.24752 102.224 8.53049C102.167 7.83003 102.045 7.13131 101.948 6.43176C101.857 6.43463 101.763 6.43768 101.677 6.44055C101.677 7.177 101.677 7.9135 101.677 8.64995C101.62 8.65118 101.569 8.65245 101.518 8.65359C101.367 7.94675 101.217 7.23996 101.066 6.53313C101.003 6.53504 100.933 6.53691 100.876 6.53883C100.876 7.39765 100.876 8.25643 100.876 9.11521C100.818 9.11535 100.775 9.11553 100.726 9.11567C100.591 7.70633 100.459 6.29703 100.323 4.88769C100.23 4.88797 100.131 4.88829 100.045 4.88861C100.045 5.59758 100.045 6.30665 100.045 7.01576C99.9879 7.01389 99.9289 7.01212 99.8726 7.01025C99.8287 6.91485 99.7827 6.81944 99.7387 6.72408C99.6723 6.43113 99.6155 6.13744 99.5361 5.84562C99.4506 5.5312 99.3358 5.21852 99.2379 4.90506C99.1372 4.91066 99.043 4.91627 98.9285 4.92196C98.9285 5.75678 98.9285 6.59164 98.9285 7.42654C98.8998 7.42463 98.8634 7.42271 98.8275 7.42085C98.6917 6.24387 98.5596 5.06689 98.4239 3.88996C98.1864 5.62993 98.2036 7.36458 98.1784 9.09895C98.1749 9.34617 97.9835 9.59256 97.8976 9.83941C97.8976 8.35015 97.8976 6.86086 97.8976 5.37156C97.8403 5.37142 97.7693 5.37119 97.7071 5.37101C97.6735 5.72634 97.6377 6.08167 97.5886 6.60134C97.4167 6.3123 97.3426 6.18947 97.2696 6.06669C97.195 6.06823 97.1198 6.06973 97.0452 6.07128C96.87 7.2827 96.6945 8.49404 96.5192 9.70542C96.4316 9.71066 96.3437 9.71589 96.2561 9.72109C96.0527 9.15308 95.8492 8.58507 95.6274 7.96521C95.5331 8.11825 95.4573 8.24135 95.3187 8.46647C95.166 6.91721 95.0285 5.47116 94.886 4.025C94.8193 4.02633 94.7478 4.02769 94.6907 4.02901C94.6907 5.01764 94.6907 6.00626 94.6907 6.99494C93.4594 6.97708 94.1564 6.32838 93.6887 6.0372C93.5826 6.10381 93.4217 6.1567 93.421 6.21042C93.3945 7.8159 93.3824 9.42152 93.3691 11.0271C93.3344 11.2739 93.2991 11.5208 93.2644 11.7677C93.2139 11.7653 93.163 11.763 93.1124 11.7607C93.0852 11.516 93.058 11.2715 93.0308 11.0269C93.0342 8.86572 93.0388 6.70471 93.035 4.54357C93.0349 4.47596 92.9509 4.40707 92.8956 4.34146C92.8793 4.32224 92.8294 4.30871 92.7899 4.29937C92.7503 4.28999 92.7041 4.28912 92.5245 4.27003C92.5245 5.34604 92.5424 6.40916 92.5127 7.47187C92.5046 7.75726 92.3521 8.04134 92.2658 8.32596C92.2599 7.75668 92.308 7.18488 92.2255 6.61901C92.1843 6.33635 91.9014 6.06435 91.7297 5.78757C91.6106 5.80256 91.4838 5.81755 91.3692 5.83254C91.3692 6.67592 91.3692 7.51925 91.3692 8.36268C91.226 8.28851 91.2 8.2157 91.1645 8.14654C91.1366 8.09242 91.0823 8.0428 91.0389 7.99118C90.9738 7.99446 90.9097 7.99774 90.8447 8.00093C90.7432 8.56092 90.6419 9.12087 90.5404 9.68086C90.5146 9.67871 90.4891 9.67652 90.4634 9.67443C90.3251 8.62898 90.1869 7.5835 90.0486 6.5381C89.8282 7.60095 89.8464 8.66042 89.8161 9.71944C89.808 10.0025 89.6516 10.2841 89.5632 10.5664C89.4818 9.22593 89.4002 7.88543 89.3188 6.54498C89.1879 6.54252 89.0571 6.53997 88.9263 6.53751C88.8657 7.03695 88.805 7.53635 88.7444 8.03579C87.9756 7.97027 88.2246 7.62746 88.2129 7.38735C88.1776 6.66608 88.2002 5.9439 88.2002 5.22203C88.0715 5.21934 87.9427 5.2167 87.8138 5.21396C87.7397 5.81514 87.6678 6.41641 87.5937 7.01758C87.5342 7.01758 87.4751 7.01767 87.4179 7.01767C87.4179 6.11534 87.4179 5.21304 87.4179 4.31062C87.332 4.31025 87.2592 4.3098 87.1811 4.30939C87.0416 5.94845 86.9011 7.58756 86.7617 9.22661C86.7412 9.2252 86.7202 9.22373 86.6998 9.22223C86.5667 7.72819 86.4332 6.23416 86.3001 4.74008C86.17 4.73698 86.0394 4.73374 85.9094 4.73064C85.6098 5.68068 85.929 6.66353 85.4994 7.61867C85.4994 7.16744 85.4994 6.71619 85.4994 6.26496C85.4422 6.26587 85.388 6.26665 85.3322 6.26752C85.2386 7.16607 85.1513 8.06453 85.0578 8.96304C84.9358 8.96071 84.8122 8.95831 84.6978 8.95603C84.6978 7.855 84.6978 6.75393 84.6978 5.65285C84.3255 6.66517 84.368 7.70902 83.6087 8.65952C83.5066 8.65291 83.4093 8.64634 83.2947 8.63978C83.2947 8.14558 83.2947 7.65138 83.2947 7.15714C83.1516 6.88746 82.9045 6.62367 82.8273 6.34679C82.6815 5.8238 82.6249 5.2932 82.5308 4.76583C82.2941 4.9842 82.3023 5.36727 82.1592 5.38536C81.0974 5.51917 81.5432 5.94203 81.5085 6.27239C81.3773 6.29389 81.135 6.33905 81.1312 6.33353C80.9603 6.08773 80.7057 5.84088 80.6793 5.58724C80.6151 4.9723 80.6584 4.354 80.6584 3.7371C80.4197 3.83392 80.3917 3.92991 80.3888 4.02618C80.3699 4.67087 80.6954 5.39685 80.2676 5.94285C79.4734 6.95631 79.6216 7.97145 79.5622 9.0014C79.5507 9.2015 79.4526 9.40025 79.3965 9.59962C79.2751 9.59461 79.1714 9.58955 79.0282 9.58449C79.0282 8.62981 79.0282 7.67517 79.0282 6.72044C78.9709 6.72139 78.885 6.7223 78.7991 6.72326C78.7991 8.15793 78.7991 9.59261 78.7991 11.0272C78.6845 11.0275 78.5701 11.0278 78.4555 11.0281C78.4555 10.5253 78.4555 10.0225 78.4555 9.35167C78.255 9.58973 78.1974 9.65566 78.061 9.81335C77.8831 9.2195 77.7329 8.70503 77.5785 8.19051C77.5069 8.19361 77.4247 8.19679 77.3674 8.19984C77.3674 8.6925 77.3674 9.18506 77.3674 9.67775C77.1384 9.08068 77.1861 8.48711 77.1341 7.89605C77.085 7.33915 77.3672 6.75219 76.927 6.22213C76.8185 6.22605 76.7088 6.23002 76.5943 6.23394C76.5943 6.79383 76.5943 7.35373 76.5943 7.91368C76.5656 7.91358 76.4956 7.91354 76.443 7.91345C76.1753 6.92624 75.9127 5.93901 75.645 4.95175C75.5971 4.95303 75.5634 4.9543 75.5062 4.95562C75.5062 5.89122 75.5062 6.82672 75.5062 7.76237C75.2484 7.32521 75.3045 6.8855 75.2486 6.44966C75.1951 6.03378 75.037 5.62195 74.8964 5.10033C74.3239 6.16354 75.3908 7.22971 74.0317 8.16991C73.9397 7.96288 73.8759 7.81992 73.821 7.69658C72.8509 8.34218 73.1254 9.10109 73.0991 9.83193C73.0848 10.229 73.0878 10.6262 73.0832 11.0234C73.0041 11.0288 72.9262 11.0256 72.8493 11.0138C72.6045 10.1944 72.3569 9.37505 72.1121 8.55572C72.0037 8.55673 71.8984 8.55778 71.7839 8.55878C71.7839 9.22753 71.7839 9.89622 71.7839 10.565C71.6694 10.5634 71.5549 10.5619 71.4403 10.5603C71.4403 9.32803 71.4403 8.09584 71.4403 6.86355C71.3831 6.86405 71.3408 6.8645 71.291 6.86496C71.086 7.3567 70.8806 7.84839 70.6755 8.34009C70.6636 8.1916 70.7607 7.98781 70.6213 7.90402C69.9617 7.50737 70.2245 7.02997 70.1154 6.58147C70.0232 6.20259 69.7352 5.83938 69.6071 5.46159C69.53 5.23442 69.5929 4.99271 69.5929 4.75753C69.4904 4.75316 69.3878 4.74883 69.2852 4.74455C69.2094 5.02511 69.0776 5.30518 69.0681 5.58647C69.034 6.57847 69.0429 7.57093 69.0276 8.56315C69.0273 8.59154 68.9393 8.61947 68.9358 8.62152C68.7336 8.48383 68.5283 8.34396 68.1736 8.1023C67.936 8.70503 67.7675 9.13261 67.5777 9.61419C67.4237 8.99429 67.2804 8.43289 67.141 7.87153C67.0482 7.87522 66.9735 7.87905 66.8589 7.88274C66.8589 8.38974 66.8589 8.89675 66.8589 9.40375C66.7731 9.40375 66.6871 9.40384 66.6012 9.40389C66.6012 8.90112 66.6012 8.39836 66.6012 7.89559C66.5726 7.89655 66.519 7.89755 66.4743 7.89855C66.358 8.3014 66.2456 8.70426 66.1293 9.10706C66.0085 9.09945 65.8854 9.09189 65.7708 9.08432C65.7708 8.64188 65.7708 8.19948 65.7708 7.75704C65.7136 7.7584 65.6604 7.75973 65.6055 7.7611C65.5626 8.05592 65.5268 8.3507 65.484 8.64552C65.4054 8.64334 65.3126 8.64115 65.2553 8.63896C65.2553 8.14193 65.2553 7.64501 65.2553 7.14794C65.1695 7.14885 65.1294 7.14962 65.0699 7.15048C65.0304 7.50244 64.9874 7.85436 64.948 8.20641C64.7279 7.61671 64.6231 7.02998 64.4414 6.45085C64.4066 6.33973 64.0599 6.25835 63.8576 6.16327C63.7341 6.26943 63.6099 6.3755 63.481 6.4863C63.3086 6.29923 63.1422 6.1203 62.9772 5.94134C62.9164 5.94854 62.8503 5.95574 62.793 5.96289C62.793 6.70627 62.793 7.44964 62.793 8.19306C62.7357 8.19215 62.6895 8.19138 62.6371 8.19056C62.597 7.98366 62.5575 7.77686 62.5174 7.57001C61.7654 8.71013 62.1203 9.877 62.0728 11.031C62.0434 11.0783 62.0443 11.1254 62.0749 11.1724C62.0486 11.5163 62.0219 11.8603 61.9954 12.2042C61.9082 11.8117 61.8195 11.4191 61.7336 11.0266C61.7336 9.75639 61.7336 8.4862 61.7336 7.21596C61.5905 7.21163 61.4625 7.20739 61.3268 7.20306C61.2758 7.74005 61.225 8.27702 61.174 8.81401C61.1351 8.8125 61.0962 8.81105 61.0574 8.80946C60.9901 8.6864 60.923 8.56338 60.8312 8.39513C60.7203 8.57281 60.6461 8.69482 60.5698 8.81692C60.5086 8.81227 60.4452 8.80772 60.388 8.80312C60.388 7.7538 60.388 6.7044 60.388 5.65503C60.3021 5.64879 60.2357 5.64269 60.1605 5.63645C59.7934 6.24528 59.4253 6.85416 59.0584 7.46299C58.1695 6.46917 58.7795 5.36008 58.4285 4.2657C58.2538 4.58121 58.1039 4.84556 57.9576 5.1099C57.8717 5.10261 57.7823 5.09522 57.6964 5.08798C57.6964 4.3313 57.6964 3.57463 57.6964 2.8179C57.5819 2.81417 57.4859 2.81044 57.379 2.8067C57.3124 3.11014 57.1929 3.41357 57.1894 3.71723C57.17 5.3321 57.1809 6.9471 57.1809 8.56196C57.1809 8.78503 57.1809 9.0082 57.1809 9.23131C57.095 9.22967 56.9805 9.22811 56.866 9.22643C56.866 7.78528 56.866 6.34415 56.866 4.90301C56.8374 4.90356 56.7864 4.90401 56.7431 4.90451C56.6153 6.36283 56.4912 7.82105 56.3583 9.33728C55.0774 8.96477 55.8575 8.33498 55.4203 7.89263C55.2502 8.1639 55.0913 8.40988 54.937 8.65582C54.8658 8.65154 54.8043 8.64726 54.7184 8.64297C54.7184 7.79504 54.7184 6.94706 54.7184 6.09912C54.6612 6.09675 54.6018 6.09438 54.5421 6.09206C54.2739 6.39167 54.0026 6.69119 53.6304 7.11327C53.6304 6.59583 53.6304 6.20109 53.6304 5.80634C52.4277 5.87774 53.1749 5.23341 52.8062 5.07832C52.547 5.09637 52.2449 5.12352 52.2424 5.11673C52.163 4.90169 52.0755 4.68395 52.0663 4.46549C52.0436 3.92354 52.0593 3.38108 52.0593 2.83886C52.0007 2.84041 51.9422 2.84191 51.8836 2.84355C51.739 3.64124 51.5943 4.43888 51.4375 5.30317C51.2751 5.16066 51.1959 5.09108 51.0209 4.93749C50.8785 6.58156 50.7447 8.12595 50.6109 9.67051C50.5642 9.66937 50.5173 9.66809 50.4705 9.66691C50.4468 9.37664 50.4231 9.08632 50.3994 8.79605C50.344 8.7951 50.2883 8.79424 50.2327 8.79328C50.1953 9.19664 50.1578 9.59994 50.1204 10.0033C50.0665 10.0038 50.0128 10.0043 49.9589 10.0048C49.9195 9.64782 49.8789 9.29081 49.8396 8.93384C49.7673 8.9337 49.7076 8.93352 49.6217 8.93338C49.6217 9.43063 49.6217 9.92784 49.6217 10.4251C49.5358 10.4245 49.4213 10.4239 49.3354 10.4233C49.3354 9.29513 49.3354 8.16708 49.3354 7.03904C49.2781 7.0405 49.2262 7.04201 49.1751 7.0436C49.03 7.9222 48.8816 8.80066 48.7366 9.67935C48.7029 9.67676 48.6675 9.67416 48.6336 9.67151C48.1173 7.54286 47.5958 5.41434 47.0795 3.28568C47.0219 3.28582 46.9589 3.28596 46.9016 3.28614C46.9016 5.31976 46.9016 7.35342 46.9016 9.38712C46.7012 9.29176 46.6647 9.19627 46.6612 9.1005C46.5685 6.52202 46.4821 3.94354 46.3879 1.36506C46.3824 1.21193 46.3374 1.05916 46.3102 0.906254C46.1245 1.52862 46.136 2.14583 46.1178 2.76282C46.113 2.92894 46.0486 3.23328 45.9636 3.23848C45.0101 3.29739 45.3306 3.69167 45.3269 3.96508C45.3039 5.62961 45.3167 7.29423 45.3113 8.9588C45.3106 9.1466 45.272 9.33441 45.2509 9.52222C45.0446 9.26803 45.0623 9.02144 45.0394 8.7761C45.0171 8.5375 44.9559 8.30013 44.9104 8.06216C44.7905 8.06899 44.6682 8.07578 44.5537 8.08257C44.5537 8.62024 44.5537 9.15795 44.5537 9.83617C43.0361 8.8007 44.0669 7.68829 43.4656 6.71702C43.4656 8.15333 43.4656 9.58968 43.4656 11.026C43.437 11.3309 43.4042 11.6357 43.3726 11.9406C43.3186 11.9405 43.2656 11.9405 43.2116 11.9405C43.1815 11.6358 43.152 11.331 43.1219 11.0264C43.1292 10.2085 43.2718 9.38485 43.0312 8.57778C42.9187 8.57924 42.8062 8.58074 42.6937 8.58224C42.6471 8.75984 42.5976 8.93738 42.5509 9.11498C42.4751 9.11179 42.4062 9.1086 42.3203 9.10541C42.3203 7.70173 42.3203 6.29795 42.3203 4.89421C42.2343 4.89385 42.1771 4.89349 42.0912 4.89308C42.0912 5.30431 42.0912 5.71554 42.0912 6.12677C42.0339 6.12755 41.9881 6.12828 41.9389 6.12901C41.8041 5.67572 41.6733 5.22239 41.5386 4.76901C41.4448 4.77461 41.3467 4.78021 41.2608 4.78573C41.2608 5.37501 41.2608 5.96426 41.2608 6.5535C41.2035 6.55386 41.1532 6.55418 41.1026 6.55445C40.9587 4.97235 40.8109 3.39015 40.6669 1.808C40.5893 1.80982 40.5164 1.81156 40.4305 1.81338C40.4305 3.49486 40.4305 5.17637 40.4305 6.85794C39.9438 6.03443 40.5854 5.13446 39.7304 4.34398C39.6491 5.71176 39.6624 7.07618 39.6379 8.44023C39.6331 8.70066 39.48 8.96013 39.3953 9.22001C39.3494 9.02742 39.3037 8.83493 39.2578 8.64239C38.3662 9.47378 38.6162 10.336 38.5945 11.1821C38.483 11.1301 38.369 11.0782 38.2544 11.0262C38.2544 9.34521 38.2544 7.66428 38.2544 5.98326C38.1972 5.98267 38.1078 5.98212 38.0316 5.98153C37.9034 6.67146 37.7781 7.36134 37.6498 8.05132C37.6181 8.05113 37.5876 8.051 37.5557 8.05086C37.5075 7.75184 37.46 7.45269 37.4117 7.15372C37.3652 7.15568 37.319 7.15763 37.2723 7.15959C37.2398 7.51697 37.2073 7.87427 37.1746 8.2316C37.1064 8.25019 37.0383 8.26878 36.97 8.28742C36.8798 8.15174 36.7919 8.01601 36.7017 7.88024C36.5981 7.91828 36.479 7.95647 36.3931 7.99451C36.3931 8.35886 36.3931 8.72326 36.3931 9.08756C36.3072 9.08879 36.2424 9.09007 36.1682 9.09134C35.9511 7.31269 35.7316 5.53398 35.5144 3.75532C35.4453 3.75701 35.3622 3.7587 35.305 3.76034C35.305 4.99417 35.305 6.22805 35.305 7.46185C35.2477 7.46226 35.1905 7.46267 35.1046 7.46299C35.1046 6.95444 35.1046 6.44579 35.1046 6.02991C34.6465 5.86662 34.3601 5.7566 33.9879 5.62534C33.9879 6.83781 33.9879 8.02786 33.9879 9.218C33.7589 8.47805 33.5439 7.73809 33.3095 6.94856C32.9264 7.56901 33.5297 8.23976 32.6134 8.76631C32.6134 7.38558 32.6134 6.00494 32.6134 4.62422C32.3844 4.98023 32.6089 5.47443 32.265 5.66934C31.6028 6.04463 31.6399 6.4416 31.6112 6.86727C31.6112 7.48335 31.6112 8.09943 31.6112 8.73336C30.1509 8.56296 31.0984 7.91801 30.5528 7.53056C30.5014 7.93641 30.4536 8.29462 30.4082 8.65277C30.3133 8.65063 30.2174 8.64849 30.1224 8.64635C30.0324 7.04797 29.9418 5.44961 29.8648 4.08009C29.3918 5.81637 28.8591 7.76988 28.3268 9.7234C28.2623 9.71985 28.1975 9.71634 28.1328 9.71279C28.0705 9.44248 28.008 9.17226 27.9456 8.90195C27.8227 8.90085 27.6997 8.89976 27.5768 8.89871C27.5447 9.66063 27.5127 10.4225 27.4807 11.1844C27.4174 11.1804 27.3542 11.1764 27.2911 11.1724C27.262 11.1257 27.2327 11.079 27.2033 11.0323C27.1807 10.3158 27.4247 9.58645 27.057 8.88695C26.9411 8.88873 26.8296 8.8905 26.7151 8.89233C26.7151 9.46088 26.7151 10.0295 26.7151 10.598C26.6292 10.5969 26.5433 10.5957 26.4574 10.5945C26.4574 10.1808 26.4574 9.76696 26.4574 9.29887C26.0565 9.37983 25.8066 9.4351 25.505 9.4987C25.3883 9.18852 25.2861 8.92367 25.1865 8.65874C25.0895 8.66352 24.9913 8.66835 24.8944 8.67309C24.8466 9.10742 24.7941 9.54176 24.7307 10.1184C24.2767 9.39924 24.9398 8.73118 23.9377 8.21188C23.9377 8.55254 23.9377 8.89319 23.9377 9.23394C23.8804 9.23249 23.8285 9.23108 23.7718 9.22957C23.7419 8.97042 23.7141 8.71127 23.6843 8.45217C23.6043 8.44724 23.5253 8.44228 23.4453 8.4374C23.2259 9.05061 23.0069 9.66381 22.782 10.2923C22.5162 10.2326 22.2954 10.183 22.0095 10.1186C21.9128 10.3327 21.8345 10.5061 21.756 10.6795C21.6955 10.6272 21.6352 10.5749 21.5746 10.5227C21.3343 10.5666 21.0939 10.6104 20.9792 10.6314C20.7153 10.4525 20.5213 10.1927 20.2423 10.161C19.7748 10.1078 19.6497 9.5556 18.9607 9.89563C18.596 9.26798 18.0116 9.70551 17.7086 9.86971C16.8329 10.3443 16.0708 10.673 15.3766 10.7388C15.1158 10.5882 14.8464 10.4325 14.5152 10.2413C14.3673 10.3848 14.2657 10.4836 14.1639 10.5825C13.2081 10.3097 12.9398 10.3332 11.8518 10.5356C11.1611 10.6642 10.3947 10.7861 9.68958 10.7495C8.096 10.6668 6.5312 10.7116 4.95617 10.8258C4.51724 10.8576 4.05505 10.8491 3.61669 10.8119C2.69784 10.7339 1.8043 10.5771 0.874492 10.8321C0.664917 10.8896 0.286248 10.7679 0 10.7287C0 10.828 0 10.9275 0 11.0268C0 11.0765 0 11.1262 0 11.1758C0 11.2255 0 11.2752 0 11.3249C1.31714 11.559 2.61218 11.5645 3.95645 11.3687C4.54131 11.2836 5.19922 11.3281 5.8192 11.3537C6.10059 11.3653 6.49558 11.4323 6.61768 11.5466C6.94029 11.8486 7.37321 11.7478 7.78461 11.7057C8.83504 11.5983 9.87829 11.4699 10.9267 11.3558C11.5058 11.2928 11.9453 11.3498 12.2372 11.6963C12.353 11.834 12.9814 12.0012 13.0806 11.9562C13.8389 11.6114 14.7886 12.0673 15.545 11.7488C15.6444 11.707 16.0225 11.8672 16.1174 11.8926C16.5434 11.6791 16.9052 11.4978 17.4599 11.2197C17.7878 11.7494 18.0288 12.1387 18.2824 12.5485C18.3208 12.3717 18.3596 12.1943 18.4272 11.8843C18.5678 12.1333 18.6316 12.2459 18.7177 12.3983C19.0743 12.3817 19.5686 11.9273 19.8238 12.6357C19.9327 12.2961 19.9822 12.1418 20.0316 11.9875C20.1017 11.963 20.1716 11.9385 20.2417 11.914C20.2554 12.0148 20.2726 12.1155 20.2865 12.2162C20.357 12.1885 20.4157 12.1606 20.5016 12.1329C20.5016 12.0109 20.5016 11.8889 20.5016 11.767C20.6448 12.0821 20.7862 12.3972 21.0069 12.8804C21.2013 12.5039 21.3177 12.2753 21.5142 11.8944C21.5719 12.353 21.6088 12.6524 21.6407 12.9072C22.1772 12.5626 22.6922 12.2316 23.2894 11.8481C23.4861 12.293 23.6633 12.7063 23.8461 13.1197C23.9071 13.1141 23.9662 13.1085 24.0234 13.1029C24.0234 12.4638 24.0234 11.8246 24.0234 11.1855L24.1421 11.1842L24.2601 11.1898C24.4122 11.8335 23.9661 12.5219 24.8538 13.1202C24.8538 12.7119 24.8538 12.3036 24.8538 11.8954C24.8824 11.8954 24.9234 11.8954 24.9592 11.8955C25.0956 12.5029 25.231 13.1101 25.3793 13.7697C25.669 13.2521 25.9109 12.8189 26.1533 12.3857C26.2829 12.9814 26.4162 13.5771 26.5458 14.1728C26.6011 14.1726 26.6578 14.1724 26.715 14.1723C26.715 13.6665 26.715 13.1607 26.715 12.6549C26.7722 12.6539 26.8247 12.6531 26.8817 12.6521C27.0329 13.1986 27.1822 13.7452 27.3333 14.2918C27.5005 13.8293 27.4639 13.3693 27.5106 12.9119C27.5494 12.532 27.6845 12.1551 27.7772 11.7769C27.9258 12.354 27.3452 13.0184 28.4769 13.4941C28.6453 13.1691 28.8046 12.8482 28.9708 12.5273C29.0421 12.5337 29.1202 12.54 29.1775 12.5462C29.1775 13.2969 29.1775 14.0475 29.1775 14.7981C30.0079 14.2255 29.4136 13.5555 29.8172 12.8808C29.9779 13.8479 30.1268 14.7402 30.2751 15.6325C30.3576 15.6298 30.4373 15.6272 30.5232 15.6245C30.5232 15.1338 30.5232 14.6431 30.5232 14.1524C30.6091 14.1533 30.695 14.1543 30.7809 14.1552C30.7809 14.8074 30.7809 15.4596 30.7809 16.1117C30.8668 16.1114 30.9527 16.1109 31.0386 16.1105C31.0386 15.359 31.0386 14.6075 31.0386 13.856C31.0958 13.8556 31.1746 13.8552 31.2447 13.8548C31.2762 14.114 31.3057 14.3731 31.3372 14.6323C31.5617 14.3461 31.5303 14.0594 31.5684 13.7754C31.6236 13.3645 31.7258 12.9557 31.8117 12.5461C31.8117 13.63 31.8117 14.714 31.8117 15.798C31.9262 15.7987 32.0516 15.7994 32.1719 15.8002C32.2265 14.2109 32.2809 12.6216 32.3355 11.0324C32.3699 10.8733 32.404 10.7142 32.4383 10.555C32.488 10.5544 32.5378 10.5538 32.5876 10.5532C32.6139 10.7081 32.6402 10.863 32.6665 11.0179C32.7284 12.5667 32.3796 14.126 33.093 15.6602C33.1742 15.4188 33.174 15.1776 33.1741 14.9364C33.1747 13.7952 33.1692 12.654 33.1813 11.5129C33.1836 11.2974 33.256 11.0823 33.2962 10.867C33.3466 10.8969 33.4029 10.9247 33.4456 10.9577C33.4702 10.9767 33.4733 11.0044 33.4861 11.0281C33.5557 11.8269 33.6254 12.6257 33.6949 13.4246C33.761 13.4244 33.827 13.4241 33.8932 13.4238C34.0459 12.8248 34.198 12.2259 34.3508 11.6269C34.4304 11.6307 34.5031 11.6344 34.589 11.6382C34.589 12.6695 34.589 13.7008 34.589 14.8061C34.9039 14.1727 35.1836 13.6315 35.4308 13.1425C35.8564 13.9231 36.3007 14.7373 36.7446 15.5515C37.0773 15.277 37.1974 15.0165 37.2104 14.7543C37.2411 14.1341 37.1993 13.5124 37.2388 12.8925C37.2618 12.5304 37.395 12.1704 37.4809 11.8094C37.4809 13.5327 37.4809 15.2559 37.4809 16.9792C37.5382 16.9798 37.6185 16.9804 37.6904 16.981C37.8346 15.7871 37.9722 14.5932 38.1163 13.3993C38.1835 13.3996 38.254 13.3998 38.3113 13.4C38.3113 14.1941 38.3113 14.9882 38.3113 15.7822C38.4258 15.7821 38.5089 15.782 38.6061 15.7818C38.6872 14.7017 38.7699 13.6217 38.8511 12.5416C39.0725 13.1311 39.2949 13.7205 39.5331 14.3549C39.657 13.2087 39.7756 12.1148 39.8939 11.0209C39.9262 10.7771 39.9586 10.5334 39.9909 10.2897C40.0426 10.2924 40.0971 10.2949 40.1487 10.2975C40.1747 10.5406 40.2011 10.7837 40.2297 11.0267C40.2297 12.82 40.2297 14.6132 40.2297 16.4065C40.6019 15.4541 40.3665 14.489 40.9276 13.5267C41.3783 12.7536 41.2185 11.872 41.3303 11.0385L41.4072 11.041L41.4844 11.0399C41.5037 11.8333 41.5019 12.6273 41.5564 13.42C41.5705 13.625 41.6842 13.9697 41.8849 14.0025C42.4872 14.1011 42.3331 14.3263 42.3399 14.5257C42.3575 15.0475 42.3458 15.5696 42.3458 16.0916C42.4117 16.0892 42.4774 16.087 42.5431 16.0847C42.5977 15.9808 42.6518 15.8768 42.7063 15.7729C42.7973 15.7773 42.8926 15.7817 42.9785 15.7862C42.9785 17.0871 42.9785 18.3879 42.9785 19.6887C43.1216 19.6882 43.2648 19.6877 43.3793 19.6873C43.3793 17.8507 43.3793 16.0141 43.3793 14.1775C43.4939 14.1788 43.6085 14.1801 43.723 14.1814C43.723 15.6631 43.723 17.1448 43.723 18.6266C43.7802 18.629 43.8442 18.6315 43.9071 18.6341C44.1649 17.6808 44.4206 16.7276 44.6736 15.7926C44.7355 15.849 44.8173 15.9244 45.0451 16.1318C45.1903 15.3856 45.3102 14.7667 45.4306 14.1477C45.4634 14.1475 45.4958 14.1472 45.5285 14.147C45.5646 14.552 45.6006 14.957 45.6368 15.3619C46.3814 13.9274 46.0538 12.4717 46.0955 11.026C46.1245 10.7201 46.1534 10.4142 46.1824 10.1082C46.237 10.1087 46.2915 10.1091 46.346 10.1097C46.3742 10.4166 46.4024 10.7236 46.4306 11.0306C46.4708 12.428 46.5174 13.8254 46.5576 15.2228C46.6892 15.2226 46.8154 15.2223 46.9586 15.2221C46.9586 14.1182 46.9586 13.0116 46.9586 11.904C47.0445 11.904 47.1304 11.904 47.2162 11.904C47.2162 13.2015 47.2162 14.4946 47.2162 15.7866C47.3308 15.7882 47.4216 15.7897 47.5243 15.7913C47.6322 15.0443 47.734 14.2976 47.8419 13.5506C47.9025 13.5512 47.9607 13.5517 48.018 13.5523C48.018 14.6935 48.018 15.8346 48.018 16.9759C48.1039 16.9765 48.1442 16.9772 48.2044 16.9779C48.26 16.7335 48.3231 16.4891 48.3787 16.2446C48.4564 16.2477 48.5335 16.2507 48.6194 16.2538C48.6194 16.9379 48.6194 17.6218 48.6194 18.306C48.648 18.3031 48.6832 18.3003 48.7174 18.2974C48.8447 17.8549 48.9632 17.4125 49.0905 16.97C49.1941 16.9745 49.3065 16.9789 49.3925 16.9834C49.3925 17.4273 49.3925 17.8711 49.3925 18.3151C49.507 18.3141 49.5929 18.3131 49.6788 18.3121C49.6788 17.6638 49.6788 17.0155 49.6788 16.2138C49.8792 16.4562 49.9542 16.5388 50.0389 16.6382C50.1431 16.513 50.2257 16.4126 50.3233 16.2953C50.4161 16.4244 50.49 16.5281 50.5645 16.6319C50.6652 16.6281 50.7657 16.6242 50.8663 16.6204C51.1403 15.0823 50.8819 13.5313 51.008 11.9895C51.088 12.2508 51.2309 12.5115 51.2369 12.7733C51.2628 13.8844 51.2478 14.9958 51.2478 16.1071C52.1873 14.7326 51.5445 13.296 51.9163 11.7452C52.3417 12.9827 51.6545 14.1233 52.5708 15.1793C52.5708 13.7952 52.5708 12.4111 52.5708 11.0271C52.5708 10.4343 52.5708 9.84164 52.5708 9.24894C52.6853 9.2499 52.7998 9.25075 52.9144 9.25166C52.9144 9.84327 52.9144 10.4349 52.9144 11.0265C52.9144 12.6091 52.9144 14.1919 52.9144 15.7746C53.0003 15.7755 53.1129 15.7766 53.2142 15.7775C53.3263 14.9543 53.4412 14.131 53.5531 13.3077C54.2241 13.9379 53.5443 14.6557 54.5179 15.3991C54.5179 14.5281 54.5179 13.823 54.5179 13.118C54.7469 13.7107 54.7199 14.303 54.7844 14.8914C54.8463 15.4554 54.4606 16.0556 55.291 16.5786C55.291 16.0154 55.291 15.4521 55.291 14.8888C56.0927 16.0521 56.1397 17.2612 56.1245 18.4747C56.2213 18.4725 56.3218 18.4704 56.4077 18.4682C56.4077 17.7246 56.4077 16.9811 56.4077 16.1138C56.6368 16.3625 56.7573 16.4737 56.9677 16.6904C57.0805 16.4776 57.1644 16.3897 57.1691 16.3005C57.2625 14.5437 57.3467 12.7868 57.4329 11.0299C57.5422 11.0783 57.6497 11.1266 57.7592 11.175C57.8111 12.7209 57.4385 14.2776 58.269 15.8096C58.269 14.7114 58.269 13.6132 58.269 12.5151C58.3549 12.5151 58.4407 12.5152 58.5266 12.5153C58.5266 14.0625 58.5266 15.6097 58.5266 17.1568C58.6411 17.1588 58.7758 17.1608 58.8993 17.1628C59.0229 15.5107 59.1548 13.8587 59.2784 12.2067C59.3973 12.2083 59.5002 12.21 59.6433 12.2118C59.6433 13.4595 59.6433 14.7071 59.6433 15.9548C59.6719 15.9547 59.7221 15.9547 59.7649 15.9546C59.8731 15.7456 59.9789 15.5366 60.087 15.3276C60.188 15.3344 60.2733 15.3411 60.3878 15.3478C60.3878 16.0973 60.3878 16.8468 60.3878 17.5963C60.4737 17.5963 60.5882 17.5962 60.7027 17.5961C60.7027 16.5449 60.7027 15.4937 60.7027 14.4425C60.76 14.4417 60.845 14.4409 60.9193 14.4401C60.953 14.6977 60.9875 14.9554 61.0212 15.213C61.0963 15.2127 61.1609 15.2125 61.2468 15.2121C61.2468 14.7564 61.2468 14.3007 61.2468 13.845C61.3327 13.846 61.4186 13.847 61.5045 13.8481C61.5045 15.4853 61.5045 17.1225 61.5045 18.7598C61.619 18.76 61.7333 18.7602 61.8448 18.7603C61.9071 17.2824 61.9665 15.8045 62.0479 14.327C62.0638 14.0378 62.1918 13.7505 62.2776 13.4623C62.2776 14.4413 62.2776 15.4204 62.2776 16.3995C62.3349 16.4002 62.4189 16.4009 62.4916 16.4017C62.7631 15.5518 63.0325 14.7018 63.325 13.7859C63.3727 14.2921 63.4199 14.7448 63.4625 15.1973C63.5431 15.195 63.6233 15.1929 63.7092 15.1906C63.7092 14.1973 63.7092 13.2039 63.7092 12.2106C63.7665 12.2111 63.8525 12.2116 63.9383 12.2121C63.9383 13.8565 63.9383 15.5009 63.9383 17.1453C63.9956 17.1476 64.0779 17.15 64.1486 17.1523C64.3606 16.3947 64.5718 15.6371 64.7838 14.8796C64.8464 14.8852 64.9085 14.8908 64.9711 14.8965C65 15.0436 65.0285 15.1906 65.0574 15.3377C65.1467 15.7412 65.2315 16.1446 65.3209 16.548C65.4054 16.545 65.4845 16.5418 65.5704 16.5387C65.5704 15.7473 65.5704 14.9559 65.5704 14.1644C66.057 15.7939 65.4271 17.4523 66.372 19.0646C66.372 18.4615 66.372 17.8584 66.372 17.1517C66.6012 17.3282 66.6763 17.3964 66.8911 17.5724C66.8911 16.416 66.8764 15.381 66.9061 14.3465C66.9135 14.0878 67.0735 13.8305 67.1625 13.5725C67.2996 14.8786 66.684 16.2444 68.2515 17.5656C68.7197 15.7632 69.1496 14.0733 69.5791 12.455C69.5791 13.5652 69.5791 14.762 69.5791 15.9588C69.6364 15.9583 69.6725 15.9577 69.7187 15.9572C69.857 15.456 69.9953 14.9548 70.1333 14.4536C70.8323 14.6353 70.6204 14.9933 70.6718 15.301C70.7333 15.6696 70.8049 16.0379 70.8693 16.4064C71.0008 16.4013 71.1253 16.396 71.2685 16.391C71.2685 15.2605 71.2685 14.1299 71.2685 12.9994C71.3544 13.0007 71.4402 13.0021 71.5262 13.0034C71.5262 14.7221 71.5262 16.4408 71.5262 18.1596C71.8411 17.7329 71.9339 17.2995 72.0252 16.8664C72.0602 16.7009 72.1026 16.5361 72.1431 16.3709C72.1943 16.4012 72.2495 16.4293 72.2935 16.4625C72.3188 16.4815 72.3232 16.5088 72.3374 16.5322C72.5128 17.2391 72.6877 17.9458 72.863 18.6526C72.9286 18.6493 72.9939 18.646 73.0593 18.6428C73.0889 18.43 73.1184 18.2174 73.148 18.0047C73.1865 18.0047 73.2249 18.0046 73.2633 18.0046C73.3469 18.2037 73.4341 18.403 73.5175 18.6021C73.6256 18.5999 73.7309 18.5976 73.8454 18.5954C73.8454 17.1707 73.8454 15.7462 73.8454 14.3214C73.9313 14.3218 74.0058 14.3221 74.0881 14.3224C74.2296 15.8587 74.3646 17.3951 74.5061 18.9314C74.5839 18.9306 74.6758 18.9299 74.733 18.9292C74.733 16.8912 74.733 14.8531 74.733 12.815C75.1053 13.7021 74.8132 14.6165 75.2445 15.493C75.9216 14.2626 74.8762 12.926 76.3365 11.6222C76.3365 13.1096 76.3365 14.461 76.3365 15.8124C76.4224 15.8129 76.5083 15.8134 76.5942 15.8139C76.5942 15.4528 76.5942 15.0918 76.5942 14.7308C76.6514 14.7286 76.6935 14.7265 76.7442 14.7242C76.9043 15.0426 77.0634 15.3609 77.2234 15.6793C77.2751 15.6753 77.3262 15.6712 77.3779 15.6672C77.4124 15.2726 77.4468 14.8781 77.4814 14.4836C77.6015 14.4841 77.7217 14.4845 77.8419 14.4852C77.9975 15.5719 78.1509 16.6587 78.3064 17.7454C78.3665 17.7451 78.4266 17.7448 78.4839 17.7447C78.4839 17.1847 78.4839 16.6248 78.4839 16.0648C78.6271 16.0587 78.746 16.0526 78.8758 16.0465C78.9611 16.6089 79.0477 17.1712 79.1332 17.7335C79.1813 17.731 79.23 17.7285 79.2782 17.7259C79.4145 16.6817 79.5512 15.6375 79.6875 14.5932C79.7053 14.5936 79.7231 14.5939 79.7408 14.5943C79.8448 15.3405 79.955 16.0868 80.0589 16.8331C80.1903 16.8288 80.3164 16.8245 80.4596 16.8203C80.4596 15.9361 80.4596 15.0517 80.4596 14.1674C80.5168 14.1686 80.6027 14.1699 80.6886 14.1711C80.6886 14.8284 80.6886 15.4856 80.6886 16.1428C80.8031 16.1483 80.9122 16.1537 81.0231 16.1592C81.1835 15.2375 81.3447 14.316 81.5051 13.3944C81.5608 13.3955 81.6168 13.3967 81.6725 13.398C81.8154 14.4896 81.9619 15.5814 82.1048 16.6732C82.1471 16.6721 82.1776 16.6711 82.2348 16.67C82.2348 14.7889 82.2348 12.9077 82.2348 11.0266C82.2348 10.6769 82.2315 10.327 82.2314 9.97741C82.3449 10.3276 82.4566 10.6778 82.5702 11.028C82.5666 11.6727 82.5391 12.3179 82.5653 12.9623C82.5915 13.6042 82.4323 14.2576 82.7073 14.945C83.0648 14.7903 83.2656 14.706 83.6664 14.5307C83.6664 15.9895 83.6664 17.3024 83.6664 18.6154C83.7523 18.615 83.8382 18.6146 83.9241 18.6142C83.9241 17.8751 83.9241 17.136 83.9241 16.3969C84.0101 16.3951 84.0835 16.3935 84.1603 16.3918C84.389 17.0459 84.6206 17.7 84.8494 18.354C85.4681 17.3895 85.1721 16.4004 85.2256 15.4257C85.2787 14.4563 85.2379 13.4853 85.2379 12.515C85.3289 12.5157 85.4203 12.5163 85.5113 12.517C85.5113 13.7528 85.4978 14.9887 85.5222 16.2243C85.5274 16.4883 85.6669 16.7515 85.7461 17.015C85.8556 17.0081 85.9571 17.001 86.0715 16.9942C86.0715 16.0462 86.0715 15.0982 86.0715 14.1503C86.5583 15.6395 86.5583 15.6395 87.1309 15.984C87.1309 14.3537 87.1309 12.7683 87.1309 11.1829L87.2596 11.1743L87.3887 11.1806C87.3887 13.1678 87.3887 15.1552 87.3887 17.1425C87.5319 17.1454 87.6859 17.1483 87.8333 17.1512C88.0757 15.77 87.8371 14.3688 87.9882 12.9838C88.082 12.9853 88.1618 12.9868 88.2763 12.9884C88.2763 13.5803 88.2763 14.1722 88.2763 14.7641C88.3336 14.7619 88.4195 14.7596 88.4768 14.7573C88.4768 14.5636 88.4768 14.3699 88.4768 14.1761C89.2212 14.1206 88.9698 14.4354 89.0022 14.62C89.1411 15.4149 89.256 16.2113 89.3881 17.0752C89.5496 16.7061 89.6814 16.4084 89.8117 16.1107C90.0496 16.8413 90.2882 17.5717 90.5012 18.2257C90.7122 17.556 90.944 16.8215 91.1757 16.0868C91.2656 15.866 91.412 15.647 91.4336 15.4243C91.475 14.9976 91.4522 14.5689 91.4522 14.1411C91.5463 14.1417 91.6266 14.1422 91.7411 14.1429C91.7411 14.6535 91.7411 15.164 91.7411 15.6746C91.7698 15.6735 91.8185 15.6723 91.858 15.6711C91.9912 15.1718 92.1134 14.6725 92.2565 14.1734C92.2565 15.7009 92.2565 17.2284 92.2565 18.7559C92.3424 18.7558 92.4573 18.7557 92.5602 18.7557C92.6728 17.2796 92.7831 15.8034 92.8956 14.3273C92.9697 14.3281 93.0296 14.3288 93.1155 14.3294C93.1155 15.5549 93.1155 16.7804 93.1155 18.0059C93.1442 18.0044 93.2003 18.003 93.2428 18.0015C93.337 17.3021 93.4309 16.6028 93.525 15.9034C93.6072 15.9033 93.6894 15.9034 93.7716 15.9033C93.8434 16.0628 93.9151 16.2223 93.9441 16.2868C94.16 15.9025 94.4006 15.4746 94.6411 15.0467C94.6812 14.7945 94.7215 14.5424 94.7616 14.2904C95.0658 15.5131 95.2914 16.7264 95.5226 17.9394C95.5284 17.9704 95.5976 17.9977 95.6829 18.0603C95.7399 17.8115 95.7877 17.6084 95.8343 17.4054C95.9106 17.4082 95.9788 17.4111 96.0647 17.4139C96.0647 18.7116 96.0647 20.0093 96.0647 21.3069C96.2938 21.0138 96.2779 20.7201 96.2966 20.4269C96.3806 19.1179 96.4289 17.8074 96.5807 16.5007C96.6718 15.7168 96.9284 14.9387 97.111 14.1581C97.2477 14.9063 97.3855 15.6545 97.5223 16.4028C97.5612 16.4047 97.6109 16.4065 97.6396 16.4084C97.6396 15.9528 97.6396 15.4972 97.6396 15.0416C97.7541 15.0407 97.8401 15.04 97.9545 15.0391C97.9545 15.8341 97.9545 16.6291 97.9545 17.424C98.0404 17.4221 98.1263 17.42 98.2123 17.418C98.2123 16.2846 98.2123 15.1511 98.2123 14.0177C98.699 14.7911 98.0977 15.6436 98.9567 16.5216C98.9567 14.5977 98.9567 12.8145 98.9567 11.0312C98.9567 10.5864 98.9567 10.1417 98.9567 9.6968C99.0713 9.69862 99.1857 9.70053 99.3003 9.70236C99.3003 10.1442 99.3003 10.586 99.3003 11.0278C99.3003 12.7678 99.3003 14.508 99.3003 16.2479C99.3575 16.249 99.4068 16.2501 99.4584 16.2512C99.5178 16.0851 99.5789 15.919 99.6693 15.6665C99.7946 15.887 99.8627 15.9988 99.9261 16.1106C100.002 16.1012 100.073 16.0919 100.159 16.0826C100.159 15.252 100.159 14.4212 100.159 13.5906C100.188 13.5925 100.222 13.5942 100.255 13.596C100.396 14.7808 100.535 15.9655 100.675 17.1502C100.723 17.1476 100.769 17.1451 100.816 17.1426C100.874 17.0341 100.932 16.9256 100.99 16.817C101.056 16.8184 101.133 16.8199 101.19 16.8214C101.19 17.5382 101.19 18.255 101.19 18.9717C101.276 18.9754 101.338 18.9792 101.412 18.983C101.558 18.8118 101.7 18.6406 101.847 18.4695C101.906 18.4755 101.963 18.4815 102.02 18.4875C102.02 19.3752 102.02 20.2629 102.02 21.1506C102.851 18.4856 102.276 15.7993 102.79 13.1306C102.909 14.7666 103.03 16.4026 103.149 18.0386C104.162 15.7201 103.783 13.3681 103.815 11.0271C103.848 10.813 103.882 10.5988 103.915 10.3845C103.963 10.3846 104.015 10.3846 104.063 10.3846C104.097 10.5985 104.139 10.8124 104.168 11.0263C104.168 13.4603 104.168 15.8943 104.168 18.3283C104.254 18.3291 104.331 18.3298 104.415 18.3305C104.509 17.0042 104.602 15.6778 104.696 14.3515C105.283 13.9738 104.767 13.3487 105.712 13.0205C105.915 12.9498 105.786 12.587 105.81 12.3588C106.007 13.6044 106.002 14.8428 106.01 16.0811C106.012 16.4027 106.025 16.726 106.087 17.0454C106.412 18.7345 106.788 20.4209 107.074 22.1118C107.18 22.7361 107.096 23.3703 107.096 24C107.187 23.9999 107.26 23.9997 107.375 23.9995C107.375 22.9473 107.375 21.8951 107.375 20.8428C107.404 20.8417 107.47 20.8405 107.52 20.8394C107.598 20.9585 107.674 21.0776 107.751 21.1965C107.811 21.192 107.869 21.1876 107.927 21.183C108.042 19.2437 108.155 17.3043 108.269 15.3649C108.343 15.3657 108.406 15.3665 108.492 15.3673C108.492 16.4067 108.492 17.4461 108.492 18.4854C108.52 18.4832 108.549 18.4808 108.578 18.4786C108.927 17.2433 109.28 16.008 109.629 14.7726C109.697 14.7756 109.752 14.7786 109.837 14.7817C109.837 15.7158 109.837 16.6499 109.837 17.584C109.923 17.5838 109.981 17.5836 110.066 17.5834C110.066 15.6442 110.066 13.705 110.066 11.7658C110.124 11.7661 110.174 11.7664 110.227 11.7666C110.365 13.7075 110.504 15.6483 110.642 17.5891C110.727 17.5881 110.811 17.5871 110.897 17.5862C110.897 16.7318 110.897 15.8775 110.897 14.9383C112.071 15.592 111.602 16.3217 111.664 16.987C111.728 17.6832 111.676 18.3826 111.676 19.0806C111.77 19.0804 111.87 19.0803 111.956 19.0801C111.956 18.0773 111.956 17.0744 111.956 16.0716C112.042 16.0706 112.093 16.0696 112.159 16.0685C112.322 16.9138 112.489 17.759 112.651 18.6043C112.781 18.5983 112.901 18.5924 113.044 18.5865C113.044 17.5075 113.044 16.4284 113.044 15.3493C113.13 15.3507 113.245 15.3522 113.331 15.3536C113.331 16.994 113.331 18.6344 113.331 20.2748C113.388 20.2744 113.416 20.2742 113.458 20.2738C113.561 19.5167 113.666 18.7596 113.769 18.0025C113.865 18.0061 113.962 18.0098 114.058 18.0135C114.09 18.2731 114.124 18.5328 114.156 18.7926C114.217 18.7918 114.277 18.7912 114.338 18.7905C114.365 18.4792 114.394 18.168 114.421 17.8567C114.496 17.8566 114.562 17.8566 114.648 17.8564C114.648 18.3148 114.648 18.7731 114.648 19.2315C114.676 19.2305 114.72 19.2295 114.757 19.2285C115.067 17.8247 115.378 16.421 115.689 15.0172C115.8 15.0228 115.908 15.0284 116.022 15.0341C116.022 15.4468 116.022 15.8593 116.022 16.272C116.108 16.2717 116.194 16.2712 116.28 16.2709C116.28 15.0853 116.28 13.8999 116.28 12.7143C116.366 13.2245 116.499 13.7341 116.516 14.245C116.552 15.3142 116.529 16.3841 116.529 17.4537C116.595 17.4535 116.662 17.4533 116.728 17.4532C116.874 16.3038 117.02 15.1546 117.165 14.0053C117.208 14.0063 117.252 14.0074 117.295 14.0085C117.331 14.3199 117.369 14.6313 117.404 14.9427C117.487 14.9417 117.568 14.9407 117.654 14.9398C117.654 14.181 117.654 13.4221 117.654 12.6632C117.74 12.6642 117.849 12.6653 117.947 12.6662C118.046 13.6619 118.144 14.6576 118.242 15.6532C118.287 15.6536 118.332 15.6539 118.377 15.6542C118.408 15.3952 118.44 15.1362 118.471 14.8772C118.515 14.8778 118.559 14.8784 118.603 14.879C118.746 16.2925 118.889 17.7062 119.031 19.1198C119.997 17.4 119.68 15.6228 119.802 13.8674C119.897 13.8695 120.002 13.8716 120.088 13.8738C120.088 16.299 120.088 18.7242 120.088 21.1494C120.346 20.4307 120.141 19.6934 120.373 18.9995C120.87 17.5158 120.356 16.0111 121.022 14.5128C121.49 13.4599 121.094 12.2896 121.084 11.1718C121.116 11.125 121.118 11.078 121.089 11.0306C121.121 10.6785 121.159 10.3264 121.19 9.97418C121.26 9.97541 121.319 9.97673 121.405 9.97791C121.405 10.1975 121.405 10.417 121.405 10.6366C121.405 12.8671 121.398 15.0977 121.403 17.3283C121.404 17.5238 121.389 17.8808 121.479 17.8906C122.687 18.0209 122.151 18.5404 122.177 18.8789C122.25 19.8388 122.202 20.8015 122.202 21.7631C122.29 21.764 122.377 21.7649 122.465 21.7658C122.465 21.5062 122.465 21.2466 122.465 20.987C122.465 18.5579 122.464 16.1289 122.465 13.6999C122.466 12.9068 122.462 12.1135 122.482 11.3206C122.485 11.2028 122.614 11.0861 122.685 10.969C122.713 10.9879 122.746 11.0069 122.774 11.0259C122.569 12.4462 123.009 13.8198 123.896 15.1712C123.896 14.79 123.896 14.4087 123.896 14.0275C123.925 14.0295 123.96 14.0315 123.995 14.0335C124.131 16.1999 124.258 18.3663 124.393 20.5327C124.478 20.5316 124.555 20.5304 124.641 20.5293C124.641 18.0029 124.641 15.4767 124.641 12.9504C124.727 12.9502 124.813 12.95 124.898 12.9499C124.898 15.8358 124.898 18.7217 124.898 21.6075C125.213 20.7261 125.382 19.8435 125.418 18.9589C125.473 17.618 125.417 16.2757 125.444 14.9343C125.449 14.6753 125.613 14.4174 125.704 14.1591C125.877 14.9704 125.213 15.8613 126.559 16.6524C126.559 16.0819 126.559 15.5908 126.559 15.0998C126.645 15.3639 126.765 15.6275 126.773 15.8923C126.8 16.8106 126.745 17.73 126.796 18.6477C126.84 19.4352 126.981 20.221 127.082 21.0076C127.177 21.0053 127.275 21.003 127.361 21.0008C127.361 18.1787 127.361 15.3567 127.361 12.5346C127.447 12.535 127.533 12.5355 127.59 12.5359C127.59 12.8056 127.59 13.0754 127.59 13.3451C127.59 15.8028 127.583 18.2606 127.605 20.7183C127.608 21.0673 127.766 21.416 127.852 21.7648C127.944 21.76 128.036 21.7552 128.128 21.7505C128.128 21.5054 128.128 21.2603 128.128 21.0153C128.129 19.1286 128.099 17.2415 128.155 15.3553C128.166 14.9569 128.49 14.5612 128.669 14.1644C128.76 15.3555 128.851 16.5465 128.942 17.7376C128.992 17.7344 129.043 17.7312 129.093 17.7279C129.215 17.2005 129.337 16.6731 129.458 16.1457C129.586 16.828 129.713 17.5103 129.841 18.1927C129.876 18.1969 129.912 18.2011 129.947 18.2052C129.993 17.9874 130.04 17.7695 130.086 17.5515C130.17 17.5521 130.254 17.5526 130.338 17.5532C130.448 18.1111 130.558 18.6689 130.667 19.2267C130.829 18.4328 130.782 17.6442 130.842 16.8582C130.9 16.0845 130.555 15.2874 131.186 14.4653C132.039 15.1608 131.355 15.9116 131.831 16.5671C131.915 16.2994 131.884 16.0318 131.923 15.7673C131.979 15.3844 132.085 15.0037 132.17 14.6221C132.265 16.603 132.359 18.5839 132.453 20.5649C132.454 20.5897 132.444 20.6167 132.458 20.639C132.53 20.7507 132.608 20.8613 132.684 20.9721C132.785 20.9639 132.886 20.9556 132.987 20.9472C132.987 20.0861 132.941 19.2238 133.002 18.3641C133.052 17.6611 132.664 16.933 133.524 16.2633C133.821 16.0323 133.777 15.6453 133.788 15.3286C133.82 14.4101 133.793 13.491 133.81 12.5723C133.814 12.4044 133.924 12.237 133.983 12.0694C134.103 12.076 134.233 12.0826 134.348 12.0893C134.348 13.7608 134.348 15.4325 134.348 17.1041C134.434 17.1032 134.548 17.1024 134.634 17.1015C134.634 16.2693 134.634 15.4372 134.634 14.605C134.691 14.6033 134.765 14.6015 134.83 14.5998C135.064 15.5871 135.296 16.5743 135.529 17.5615C135.594 17.5586 135.665 17.5556 135.722 17.5527C135.722 15.8242 135.722 14.0956 135.722 12.3671C136.152 13.9448 135.608 15.554 136.495 17.1149C136.495 15.7809 136.495 14.4469 136.495 13.1128C136.581 13.1081 136.645 13.1034 136.719 13.0988C137.132 14.5232 137.546 15.9476 137.959 17.372C138.067 17.3697 138.176 17.3675 138.284 17.3652C138.444 16.4948 138.61 15.6244 138.77 14.754C138.82 14.7535 138.872 14.7529 138.929 14.7524C138.929 15.6 138.929 16.4477 138.929 17.2953C139.015 17.2956 139.128 17.2958 139.232 17.296C139.345 15.8989 139.456 14.5018 139.579 12.9821C139.738 13.6593 139.867 14.2121 139.997 14.7647C140.025 14.8656 140.052 14.9664 140.08 15.0672C140.128 15.0628 140.174 15.0586 140.221 15.0544C140.261 14.7593 140.301 14.4641 140.342 14.169C140.389 14.1716 140.436 14.1741 140.483 14.1765C140.688 15.5573 140.892 16.9379 141.097 18.3187C141.167 18.316 141.249 18.3134 141.306 18.3107C141.306 15.9305 141.306 13.5502 141.306 11.1699C141.334 11.124 141.356 11.0762 141.353 11.0266L141.487 11.0241L141.621 11.0286C141.621 13.4476 141.621 15.8666 141.621 18.2855C141.735 18.2856 141.887 18.2857 142.024 18.2858C142.092 16.3241 142.157 14.3625 142.226 12.4008C142.266 12.4023 142.305 12.4038 142.345 12.4054C142.437 13.0118 142.529 13.6182 142.621 14.2245C142.71 14.2286 142.798 14.2327 142.886 14.2368C143.053 14.0492 143.22 13.8617 143.387 13.6741C143.464 13.6751 143.542 13.6759 143.619 13.6769C143.703 14.6785 143.784 15.6802 143.868 16.6818C143.931 16.6813 143.997 16.6808 144.055 16.6803C144.055 15.5958 144.055 14.5113 144.055 13.4268C144.141 13.6843 144.267 13.9401 144.309 14.1998C144.451 15.0675 144.565 15.9368 144.689 16.8054C144.729 16.8036 144.769 16.802 144.809 16.8003C144.917 15.825 145.026 14.8497 145.135 13.8744C145.275 14.023 145.415 14.1716 145.679 14.4526C145.679 13.99 145.633 13.6727 145.702 13.3633C145.73 13.2417 146.015 13.1377 146.183 13.0257C146.328 13.9372 146.469 14.8487 146.614 15.7603C146.707 15.7597 146.803 15.7592 146.889 15.7585C146.889 14.4872 146.889 13.2158 146.889 11.9446C147.032 11.9451 147.147 11.9455 147.261 11.9461C147.261 13.5709 147.261 15.1957 147.261 16.8204C147.347 16.8231 147.423 16.8256 147.5 16.8283C147.646 16.2314 147.795 15.6346 147.942 15.035C148.049 15.0992 148.15 15.158 148.271 15.2305C148.401 14.3176 148.527 13.4344 148.653 12.5511C149.257 12.484 149.156 12.7353 149.165 12.914C149.195 13.5216 149.204 14.1294 149.22 14.7372C149.23 14.7614 149.232 14.7877 149.251 14.8093C149.27 14.8304 149.307 14.8469 149.335 14.8654C149.459 14.6817 149.677 14.4998 149.689 14.314C149.732 13.6273 149.706 12.9391 149.706 12.2515C150.189 13.6245 149.667 15.0214 150.526 16.3739C150.526 15.4417 150.526 14.5095 150.526 13.5773C150.612 13.5766 150.726 13.5758 150.812 13.575C150.812 14.3015 150.812 15.028 150.812 15.7546C150.841 15.7502 150.867 15.7459 150.894 15.7414C151.136 14.6245 151.38 13.5076 151.622 12.3906C151.698 12.394 151.775 12.3973 151.851 12.4007C151.986 13.0307 152.125 13.6607 152.261 14.2908C152.301 14.2901 152.33 14.2896 152.387 14.2891C152.387 13.2027 152.387 12.1165 152.387 11.0302C152.387 10.8366 152.413 10.643 152.428 10.4493C152.524 10.6432 152.617 10.8372 152.713 11.0311C152.69 11.0777 152.689 11.1241 152.713 11.1706C152.703 12.3641 152.489 13.5649 153.094 14.7929C153.199 14.6101 153.274 14.4847 153.346 14.3593C153.407 14.365 153.475 14.3708 153.532 14.3765C153.532 14.9403 153.532 15.5041 153.532 16.0679C153.618 16.0713 153.716 16.0747 153.809 16.0781C153.883 15.6979 153.975 15.3185 154.027 14.9375C154.13 14.18 154.211 13.4216 154.301 12.6636C154.578 12.98 154.855 13.2963 155.278 13.7802C155.343 13.116 155.392 12.6097 155.441 12.1032C155.889 13.087 155.12 14.1533 156.357 15.0478C156.664 14.2549 156.972 13.4582 157.345 12.4938C157.552 13.0654 157.698 13.449 157.838 13.8327C157.937 13.8266 158.028 13.8205 158.142 13.8145C158.142 13.1485 158.142 12.4823 158.142 11.8163C158.142 11.8189 158.171 11.8215 158.188 11.8242C158.397 12.8973 158.603 13.9704 158.811 15.0435C158.939 15.0428 159.064 15.0423 159.191 15.0416C159.363 14.1581 159.534 13.2746 159.706 12.3943C160.007 12.4084 160.162 12.3999 160.174 12.4186C160.367 12.7308 160.541 13.0464 160.803 13.5067C160.968 13.1465 161.077 12.9245 161.234 12.5817C161.426 13.873 161.406 13.873 162.523 13.8489C162.523 13.3298 162.523 12.8073 162.523 12.2847C162.58 12.2833 162.678 12.2818 162.759 12.2804C162.9 12.6258 163.037 12.9713 163.177 13.3167C163.317 13.5348 163.456 13.7529 163.631 14.0241C163.771 13.5634 163.885 13.1888 164.009 12.7806C164.328 12.9823 164.566 13.1329 164.805 13.2836C164.827 13.4212 164.847 13.5589 164.869 13.6965C164.938 13.6955 165.014 13.6945 165.071 13.6935C165.071 13.0103 165.071 12.3271 165.071 11.6439C165.157 11.6403 165.244 11.6367 165.328 11.6331C165.469 12.1756 165.611 12.7181 165.76 13.2918C165.847 13.21 165.905 13.1509 165.974 13.0964C165.987 13.0862 166.049 13.095 166.085 13.095C166.164 13.261 166.243 13.4288 166.323 13.5966C166.389 13.5924 166.455 13.5882 166.522 13.584C166.677 13.0844 166.832 12.5847 166.988 12.0851C167.214 12.6143 167.435 13.1435 167.662 13.6728C167.726 13.6722 167.792 13.6716 167.849 13.671C167.849 13.1735 167.849 12.676 167.849 12.1786C167.963 12.1735 168.04 12.1684 168.133 12.1634C168.441 12.6278 168.752 13.0922 169.061 13.5587C170.281 13.1511 169.169 12.2778 170.156 11.7771C170.214 12.1626 170.27 12.5285 170.325 12.8944C170.432 12.8918 170.539 12.8892 170.647 12.8867C170.712 12.5273 170.779 12.1679 170.827 11.9022C171.157 12.3434 171.524 12.8325 171.957 13.4114C172.312 12.9978 172.57 12.6975 172.934 12.2738C173.106 12.5849 173.203 12.7614 173.376 13.0751C173.439 12.6307 173.479 12.3514 173.543 11.9082C173.7 12.1928 173.763 12.3068 173.827 12.4226C174.019 12.3627 174.199 12.3067 174.393 12.2459C174.518 12.4858 174.623 12.687 174.771 12.9714C175.202 12.7903 175.514 12.659 175.805 12.5366C175.853 12.6103 175.932 12.7309 176.054 12.919C176.547 12.6315 176.956 12.3933 177.331 12.1745C177.6 12.401 177.858 12.6196 178.117 12.838C178.197 12.8303 178.271 12.8226 178.357 12.815C178.357 12.4358 178.357 12.0566 178.357 11.6775C178.414 11.6807 178.467 11.6839 178.522 11.6871C178.574 11.9964 178.626 12.3056 178.686 12.6669C179.555 12.2264 180.089 11.7894 179.96 11.1862L180.064 11.1817L180.168 11.1851C180.353 11.7535 180.538 12.3218 180.713 12.8571C181.525 12.8659 181.812 12.6973 182.003 12.3535C182.14 12.1075 182.617 11.9196 182.994 11.6719C183.196 12.0977 183.359 12.4429 183.548 12.8423C184.812 12.4887 185.481 12.016 185.587 11.3158C185.909 11.809 186.231 12.3023 186.569 12.819C186.647 12.6362 186.713 12.4826 186.783 12.3179C187.008 12.3933 187.152 12.4418 187.212 12.4619C187.665 12.1457 188.08 11.8559 188.619 11.4791C188.865 11.9506 189.059 12.3222 189.296 12.7768C189.628 12.5206 189.895 12.3032 190.182 12.0942C190.683 11.7294 191.431 11.7572 191.785 12.1557C191.931 12.3208 192.033 12.4982 192.116 12.615C192.455 12.3255 192.784 12.0438 193.114 11.7621C193.608 11.7982 194.103 11.8343 194.674 11.8759C194.719 11.9591 194.793 12.0967 194.883 12.264C195.138 12.0484 195.367 11.8547 195.686 11.5844C196.303 12.2154 197.119 11.9051 197.878 11.8356C198.226 11.8037 198.613 11.5601 198.861 11.928C198.895 11.9776 199.236 12.0064 199.399 11.979C200.006 11.8766 200.598 11.7468 201.264 11.6138C201.386 11.744 201.505 11.8703 201.619 11.9918C202.69 11.9379 203.652 11.3423 204.833 11.8015C204.927 11.838 205.116 11.8525 205.214 11.8253C206.462 11.4781 207.85 11.6415 209.108 11.6392C211.966 11.6341 214.824 11.3056 217.685 11.5782C217.813 11.5905 217.95 11.5721 218.083 11.5667C219.37 11.5143 220.657 11.4628 221.943 11.4085C222.686 11.3772 223.429 11.3412 224.171 11.3073C225.224 11.3208 226.276 11.347 227.328 11.3454C231.588 11.3387 235.849 11.3265 240.109 11.3066C240.498 11.3047 240.887 11.2342 241.276 11.1955C241.778 11.2385 242.267 11.2814 242.782 11.3244C242.782 11.225 242.782 11.1256 242.782 11.0262C242.297 10.98 241.835 10.8964 241.36 10.8938Z" fill="#DEC4A6"/>
</svg>
