<svg width="18" height="18" viewBox="0 0 18 18" fill="none" xmlns="http://www.w3.org/2000/svg">
<path d="M8.95835 0C9.18064 0 9.3862 0.11807 9.49821 0.310081L12.2825 5.08321L17.4445 6.38508C17.6585 6.43903 17.8281 6.60179 17.8909 6.81332C17.9536 7.02485 17.9002 7.25379 17.7503 7.4157L14.2233 11.2254L15.5518 17.155C15.6029 17.383 15.5226 17.6205 15.3435 17.7706C15.1645 17.9207 14.9166 17.9584 14.701 17.8684L8.95835 15.469L3.21567 17.8684C3.00008 17.9584 2.75224 17.9207 2.57318 17.7706C2.39413 17.6205 2.31376 17.383 2.36485 17.155L3.69336 11.2254L0.166382 7.4157C0.0164887 7.25379 -0.0369307 7.02485 0.0258297 6.81332C0.0885901 6.60179 0.25823 6.43903 0.472171 6.38508L5.63416 5.08321L8.41848 0.310081C8.53049 0.11807 8.73605 0 8.95835 0Z" fill="white"/>
</svg>
