<svg width="35" height="28" viewBox="0 0 35 28" fill="none" xmlns="http://www.w3.org/2000/svg">
<path d="M23.1938 12.7094L15.6938 7.70938C15.5055 7.58375 15.2866 7.51161 15.0605 7.50066C14.8344 7.4897 14.6096 7.54035 14.41 7.64719C14.2105 7.75402 14.0437 7.91304 13.9274 8.10727C13.8112 8.3015 13.7499 8.52365 13.75 8.75001V18.75C13.7499 18.9764 13.8112 19.1985 13.9274 19.3927C14.0437 19.587 14.2105 19.746 14.41 19.8528C14.6096 19.9597 14.8344 20.0103 15.0605 19.9994C15.2866 19.9884 15.5055 19.9163 15.6938 19.7906L23.1938 14.7906C23.3652 14.6765 23.5058 14.5218 23.6031 14.3403C23.7003 14.1587 23.7512 13.956 23.7512 13.75C23.7512 13.544 23.7003 13.3413 23.6031 13.1597C23.5058 12.9782 23.3652 12.8235 23.1938 12.7094ZM16.25 16.4141V11.0938L20.2469 13.75L16.25 16.4141ZM34.1141 4.61251C33.9668 4.03649 33.6848 3.50373 33.2911 3.05818C32.8974 2.61264 32.4035 2.26707 31.85 2.05001C26.4937 -0.0187442 17.9688 5.94365e-06 17.5 5.94365e-06C17.0312 5.94365e-06 8.50625 -0.0187442 3.15 2.05001C2.5965 2.26707 2.10255 2.61264 1.7089 3.05818C1.31524 3.50373 1.03316 4.03649 0.885938 4.61251C0.48125 6.17188 0 9.02188 0 13.75C0 18.4781 0.48125 21.3281 0.885938 22.8875C1.03294 23.4638 1.31492 23.9969 1.70859 24.4427C2.10226 24.8885 2.59633 25.2343 3.15 25.4516C8.28125 27.4313 16.3125 27.5 17.3969 27.5H17.6031C18.6875 27.5 26.7234 27.4313 31.85 25.4516C32.4037 25.2343 32.8977 24.8885 33.2914 24.4427C33.6851 23.9969 33.9671 23.4638 34.1141 22.8875C34.5187 21.325 35 18.4781 35 13.75C35 9.02188 34.5187 6.17188 34.1141 4.61251ZM31.6937 22.2688C31.6461 22.4605 31.5538 22.6381 31.4242 22.7873C31.2947 22.9364 31.1316 23.0526 30.9484 23.1266C26.0031 25.0359 17.5922 25.0016 17.5109 25.0016H17.5C17.4156 25.0016 9.01094 25.0328 4.0625 23.1266C3.87933 23.0526 3.71628 22.9364 3.58673 22.7873C3.45718 22.6381 3.36481 22.4605 3.31719 22.2688C2.9375 20.8422 2.5 18.2141 2.5 13.75C2.5 9.28594 2.9375 6.65782 3.30625 5.23907C3.35298 5.04623 3.44495 4.86728 3.57456 4.71703C3.70416 4.56678 3.86767 4.44954 4.05156 4.37501C8.82031 2.53282 16.8109 2.50001 17.4656 2.50001H17.5078C17.5922 2.50001 26.0047 2.47188 30.9453 4.37501C31.1285 4.44893 31.2915 4.56521 31.4211 4.71432C31.5506 4.86343 31.643 5.04112 31.6906 5.23282C32.0625 6.65782 32.5 9.28594 32.5 13.75C32.5 18.2141 32.0625 20.8422 31.6937 22.2609V22.2688Z" fill="#DEC4A6"/>
</svg>
